<svg xmlns="http://www.w3.org/2000/svg" xmlns:xlink="http://www.w3.org/1999/xlink" xmlns:lucid="lucid" width="2033.77" height="545"><g transform="translate(-340 800)" lucid:page-tab-id="DuHK~Xy_bVVN"><path d="M2033.77-774c0-3.3 2.7-6 6-6h308c3.32 0 6 2.7 6 6v162c0 3.3-2.68 6-6 6h-308c-3.3 0-6-2.7-6-6z" fill="#83bbe5"/><path d="M2033.77-774c0-3.3 2.7-6 6-6h308c3.32 0 6 2.7 6 6v162c0 3.3-2.68 6-6 6h-308c-3.3 0-6-2.7-6-6z" fill="none"/><path d="M2036.27-774c0 1.38-1.12 2.5-2.5 2.5s-2.5-1.12-2.5-2.5 1.12-2.5 2.5-2.5 2.5 1.12 2.5 2.5zm6-6c0 1.38-1.12 2.5-2.5 2.5s-2.5-1.12-2.5-2.5 1.12-2.5 2.5-2.5 2.5 1.12 2.5 2.5zm9.94 0c0 1.38-1.1 2.5-2.5 2.5-1.37 0-2.5-1.12-2.5-2.5s1.13-2.5 2.5-2.5c1.4 0 2.5 1.12 2.5 2.5zm9.94 0c0 1.38-1.12 2.5-2.5 2.5s-2.5-1.12-2.5-2.5 1.12-2.5 2.5-2.5 2.5 1.12 2.5 2.5zm9.94 0c0 1.38-1.12 2.5-2.5 2.5s-2.5-1.12-2.5-2.5 1.12-2.5 2.5-2.5 2.5 1.12 2.5 2.5zm9.93 0c0 1.38-1.1 2.5-2.5 2.5-1.37 0-2.5-1.12-2.5-2.5s1.13-2.5 2.5-2.5c1.4 0 2.5 1.12 2.5 2.5zm9.95 0c0 1.38-1.12 2.5-2.5 2.5s-2.5-1.12-2.5-2.5 1.12-2.5 2.5-2.5 2.5 1.12 2.5 2.5zm9.93 0c0 1.38-1.1 2.5-2.5 2.5-1.38 0-2.5-1.12-2.5-2.5s1.12-2.5 2.5-2.5c1.4 0 2.5 1.12 2.5 2.5zm9.94 0c0 1.38-1.12 2.5-2.5 2.5s-2.5-1.12-2.5-2.5 1.12-2.5 2.5-2.5 2.5 1.12 2.5 2.5zm9.94 0c0 1.38-1.12 2.5-2.5 2.5-1.4 0-2.5-1.12-2.5-2.5s1.1-2.5 2.5-2.5c1.38 0 2.5 1.12 2.5 2.5zm9.93 0c0 1.38-1.13 2.5-2.5 2.5-1.4 0-2.5-1.12-2.5-2.5s1.1-2.5 2.5-2.5c1.37 0 2.5 1.12 2.5 2.5zm9.93 0c0 1.38-1.12 2.5-2.5 2.5s-2.5-1.12-2.5-2.5 1.12-2.5 2.5-2.5 2.5 1.12 2.5 2.5zm9.93 0c0 1.38-1.12 2.5-2.5 2.5s-2.5-1.12-2.5-2.5 1.12-2.5 2.5-2.5 2.5 1.12 2.5 2.5zm9.94 0c0 1.38-1.12 2.5-2.5 2.5s-2.5-1.12-2.5-2.5 1.12-2.5 2.5-2.5 2.5 1.12 2.5 2.5zm9.93 0c0 1.38-1.12 2.5-2.5 2.5s-2.5-1.12-2.5-2.5 1.12-2.5 2.5-2.5 2.5 1.12 2.5 2.5zm9.94 0c0 1.38-1.12 2.5-2.5 2.5s-2.5-1.12-2.5-2.5 1.12-2.5 2.5-2.5 2.5 1.12 2.5 2.5zm9.93 0c0 1.38-1.12 2.5-2.5 2.5s-2.5-1.12-2.5-2.5 1.12-2.5 2.5-2.5 2.5 1.12 2.5 2.5zm9.94 0c0 1.38-1.12 2.5-2.5 2.5s-2.5-1.12-2.5-2.5 1.12-2.5 2.5-2.5 2.5 1.12 2.5 2.5zm9.93 0c0 1.38-1.1 2.5-2.5 2.5-1.38 0-2.5-1.12-2.5-2.5s1.12-2.5 2.5-2.5c1.4 0 2.5 1.12 2.5 2.5zm9.94 0c0 1.38-1.1 2.5-2.5 2.5-1.37 0-2.5-1.12-2.5-2.5s1.13-2.5 2.5-2.5c1.4 0 2.5 1.12 2.5 2.5zm9.95 0c0 1.38-1.12 2.5-2.5 2.5-1.4 0-2.5-1.12-2.5-2.5s1.1-2.5 2.5-2.5c1.38 0 2.5 1.12 2.5 2.5zm9.93 0c0 1.38-1.12 2.5-2.5 2.5s-2.5-1.12-2.5-2.5 1.12-2.5 2.5-2.5 2.5 1.12 2.5 2.5zm9.94 0c0 1.38-1.12 2.5-2.5 2.5s-2.5-1.12-2.5-2.5 1.12-2.5 2.5-2.5 2.5 1.12 2.5 2.5zm9.93 0c0 1.38-1.12 2.5-2.5 2.5s-2.5-1.12-2.5-2.5 1.12-2.5 2.5-2.5 2.5 1.12 2.5 2.5zm9.94 0c0 1.38-1.13 2.5-2.5 2.5-1.4 0-2.5-1.12-2.5-2.5s1.1-2.5 2.5-2.5c1.37 0 2.5 1.12 2.5 2.5zm9.92 0c0 1.38-1.12 2.5-2.5 2.5s-2.5-1.12-2.5-2.5 1.12-2.5 2.5-2.5 2.5 1.12 2.5 2.5zm9.94 0c0 1.38-1.12 2.5-2.5 2.5s-2.5-1.12-2.5-2.5 1.12-2.5 2.5-2.5 2.5 1.12 2.5 2.5zm9.93 0c0 1.38-1.13 2.5-2.5 2.5-1.4 0-2.5-1.12-2.5-2.5s1.1-2.5 2.5-2.5c1.37 0 2.5 1.12 2.5 2.5zm9.93 0c0 1.38-1.12 2.5-2.5 2.5s-2.5-1.12-2.5-2.5 1.12-2.5 2.5-2.5 2.5 1.12 2.5 2.5zm9.93 0c0 1.38-1.1 2.5-2.5 2.5-1.38 0-2.5-1.12-2.5-2.5s1.12-2.5 2.5-2.5c1.4 0 2.5 1.12 2.5 2.5zm9.94 0c0 1.38-1.12 2.5-2.5 2.5s-2.5-1.12-2.5-2.5 1.12-2.5 2.5-2.5 2.5 1.12 2.5 2.5zm9.94 0c0 1.38-1.12 2.5-2.5 2.5s-2.5-1.12-2.5-2.5 1.12-2.5 2.5-2.5 2.5 1.12 2.5 2.5zm9.93 0c0 1.38-1.12 2.5-2.5 2.5s-2.5-1.12-2.5-2.5 1.12-2.5 2.5-2.5 2.5 1.12 2.5 2.5zm6 6c0 1.38-1.12 2.5-2.5 2.5s-2.5-1.12-2.5-2.5 1.12-2.5 2.5-2.5 2.5 1.12 2.5 2.5zm0 10.13c0 1.38-1.12 2.5-2.5 2.5s-2.5-1.12-2.5-2.5c0-1.4 1.12-2.5 2.5-2.5s2.5 1.1 2.5 2.5zm0 10.12c0 1.38-1.12 2.5-2.5 2.5s-2.5-1.12-2.5-2.5 1.12-2.5 2.5-2.5 2.5 1.12 2.5 2.5zm0 10.13c0 1.38-1.12 2.5-2.5 2.5s-2.5-1.12-2.5-2.5c0-1.4 1.12-2.5 2.5-2.5s2.5 1.1 2.5 2.5zm0 10.12c0 1.38-1.12 2.5-2.5 2.5s-2.5-1.12-2.5-2.5 1.12-2.5 2.5-2.5 2.5 1.12 2.5 2.5zm0 10.13c0 1.38-1.12 2.5-2.5 2.5s-2.5-1.12-2.5-2.5c0-1.4 1.12-2.5 2.5-2.5s2.5 1.1 2.5 2.5zm0 10.12c0 1.38-1.12 2.5-2.5 2.5s-2.5-1.12-2.5-2.5 1.12-2.5 2.5-2.5 2.5 1.12 2.5 2.5zm0 10.13c0 1.38-1.12 2.5-2.5 2.5s-2.5-1.12-2.5-2.5c0-1.4 1.12-2.5 2.5-2.5s2.5 1.1 2.5 2.5zm0 10.12c0 1.38-1.12 2.5-2.5 2.5s-2.5-1.12-2.5-2.5 1.12-2.5 2.5-2.5 2.5 1.12 2.5 2.5zm0 10.13c0 1.38-1.12 2.5-2.5 2.5s-2.5-1.12-2.5-2.5c0-1.4 1.12-2.5 2.5-2.5s2.5 1.1 2.5 2.5zm0 10.12c0 1.38-1.12 2.5-2.5 2.5s-2.5-1.12-2.5-2.5 1.12-2.5 2.5-2.5 2.5 1.12 2.5 2.5zm0 10.13c0 1.38-1.12 2.5-2.5 2.5s-2.5-1.12-2.5-2.5c0-1.4 1.12-2.5 2.5-2.5s2.5 1.1 2.5 2.5zm0 10.12c0 1.38-1.12 2.5-2.5 2.5s-2.5-1.12-2.5-2.5 1.12-2.5 2.5-2.5 2.5 1.12 2.5 2.5zm0 10.13c0 1.38-1.12 2.5-2.5 2.5s-2.5-1.12-2.5-2.5c0-1.4 1.12-2.5 2.5-2.5s2.5 1.1 2.5 2.5zm0 10.12c0 1.38-1.12 2.5-2.5 2.5s-2.5-1.12-2.5-2.5 1.12-2.5 2.5-2.5 2.5 1.12 2.5 2.5zm0 10.13c0 1.38-1.12 2.5-2.5 2.5s-2.5-1.12-2.5-2.5c0-1.4 1.12-2.5 2.5-2.5s2.5 1.1 2.5 2.5zm0 10.12c0 1.38-1.12 2.5-2.5 2.5s-2.5-1.12-2.5-2.5 1.12-2.5 2.5-2.5 2.5 1.12 2.5 2.5zm-6 6c0 1.38-1.12 2.5-2.5 2.5s-2.5-1.12-2.5-2.5 1.12-2.5 2.5-2.5 2.5 1.12 2.5 2.5zm-9.93 0c0 1.38-1.12 2.5-2.5 2.5s-2.5-1.12-2.5-2.5 1.12-2.5 2.5-2.5 2.5 1.12 2.5 2.5zm-9.94 0c0 1.38-1.12 2.5-2.5 2.5s-2.5-1.12-2.5-2.5 1.12-2.5 2.5-2.5 2.5 1.12 2.5 2.5zm-9.94 0c0 1.38-1.1 2.5-2.5 2.5-1.38 0-2.5-1.12-2.5-2.5s1.12-2.5 2.5-2.5c1.4 0 2.5 1.12 2.5 2.5zm-9.93 0c0 1.38-1.12 2.5-2.5 2.5s-2.5-1.12-2.5-2.5 1.12-2.5 2.5-2.5 2.5 1.12 2.5 2.5zm-9.94 0c0 1.38-1.13 2.5-2.5 2.5-1.4 0-2.5-1.12-2.5-2.5s1.1-2.5 2.5-2.5c1.37 0 2.5 1.12 2.5 2.5zm-9.94 0c0 1.38-1.12 2.5-2.5 2.5s-2.5-1.12-2.5-2.5 1.12-2.5 2.5-2.5 2.5 1.12 2.5 2.5zm-9.94 0c0 1.38-1.12 2.5-2.5 2.5s-2.5-1.12-2.5-2.5 1.12-2.5 2.5-2.5 2.5 1.12 2.5 2.5zm-9.93 0c0 1.38-1.13 2.5-2.5 2.5-1.4 0-2.5-1.12-2.5-2.5s1.1-2.5 2.5-2.5c1.37 0 2.5 1.12 2.5 2.5zm-9.95 0c0 1.38-1.12 2.5-2.5 2.5s-2.5-1.12-2.5-2.5 1.12-2.5 2.5-2.5 2.5 1.12 2.5 2.5zm-9.93 0c0 1.38-1.12 2.5-2.5 2.5s-2.5-1.12-2.5-2.5 1.12-2.5 2.5-2.5 2.5 1.12 2.5 2.5zm-9.94 0c0 1.38-1.12 2.5-2.5 2.5s-2.5-1.12-2.5-2.5 1.12-2.5 2.5-2.5 2.5 1.12 2.5 2.5zm-9.93 0c0 1.38-1.12 2.5-2.5 2.5-1.4 0-2.5-1.12-2.5-2.5s1.1-2.5 2.5-2.5c1.38 0 2.5 1.12 2.5 2.5zm-9.94 0c0 1.38-1.1 2.5-2.5 2.5-1.37 0-2.5-1.12-2.5-2.5s1.13-2.5 2.5-2.5c1.4 0 2.5 1.12 2.5 2.5zm-9.93 0c0 1.38-1.1 2.5-2.5 2.5-1.38 0-2.5-1.12-2.5-2.5s1.12-2.5 2.5-2.5c1.4 0 2.5 1.12 2.5 2.5zm-9.93 0c0 1.38-1.12 2.5-2.5 2.5s-2.5-1.12-2.5-2.5 1.12-2.5 2.5-2.5 2.5 1.12 2.5 2.5zm-9.94 0c0 1.38-1.12 2.5-2.5 2.5s-2.5-1.12-2.5-2.5 1.12-2.5 2.5-2.5 2.5 1.12 2.5 2.5zm-9.93 0c0 1.38-1.12 2.5-2.5 2.5s-2.5-1.12-2.5-2.5 1.12-2.5 2.5-2.5 2.5 1.12 2.5 2.5zm-9.94 0c0 1.38-1.12 2.5-2.5 2.5s-2.5-1.12-2.5-2.5 1.12-2.5 2.5-2.5 2.5 1.12 2.5 2.5zm-9.93 0c0 1.38-1.12 2.5-2.5 2.5s-2.5-1.12-2.5-2.5 1.12-2.5 2.5-2.5 2.5 1.12 2.5 2.5zm-9.94 0c0 1.38-1.12 2.5-2.5 2.5s-2.5-1.12-2.5-2.5 1.12-2.5 2.5-2.5 2.5 1.12 2.5 2.5zm-9.93 0c0 1.38-1.12 2.5-2.5 2.5s-2.5-1.12-2.5-2.5 1.12-2.5 2.5-2.5 2.5 1.12 2.5 2.5zm-9.94 0c0 1.38-1.13 2.5-2.5 2.5-1.4 0-2.5-1.12-2.5-2.5s1.1-2.5 2.5-2.5c1.37 0 2.5 1.12 2.5 2.5zm-9.94 0c0 1.38-1.12 2.5-2.5 2.5-1.4 0-2.5-1.12-2.5-2.5s1.1-2.5 2.5-2.5c1.38 0 2.5 1.12 2.5 2.5zm-9.94 0c0 1.38-1.12 2.5-2.5 2.5s-2.5-1.12-2.5-2.5 1.12-2.5 2.5-2.5 2.5 1.12 2.5 2.5zm-9.94 0c0 1.38-1.1 2.5-2.5 2.5-1.38 0-2.5-1.12-2.5-2.5s1.12-2.5 2.5-2.5c1.4 0 2.5 1.12 2.5 2.5zm-9.93 0c0 1.38-1.12 2.5-2.5 2.5s-2.5-1.12-2.5-2.5 1.12-2.5 2.5-2.5 2.5 1.12 2.5 2.5zm-9.94 0c0 1.38-1.1 2.5-2.5 2.5-1.37 0-2.5-1.12-2.5-2.5s1.13-2.5 2.5-2.5c1.4 0 2.5 1.12 2.5 2.5zm-9.92 0c0 1.38-1.12 2.5-2.5 2.5s-2.5-1.12-2.5-2.5 1.12-2.5 2.5-2.5 2.5 1.12 2.5 2.5zm-9.94 0c0 1.38-1.12 2.5-2.5 2.5s-2.5-1.12-2.5-2.5 1.12-2.5 2.5-2.5 2.5 1.12 2.5 2.5zm-9.93 0c0 1.38-1.1 2.5-2.5 2.5-1.37 0-2.5-1.12-2.5-2.5s1.13-2.5 2.5-2.5c1.4 0 2.5 1.12 2.5 2.5zm-9.93 0c0 1.38-1.12 2.5-2.5 2.5s-2.5-1.12-2.5-2.5 1.12-2.5 2.5-2.5 2.5 1.12 2.5 2.5zm-6-6c0 1.38-1.12 2.5-2.5 2.5s-2.5-1.12-2.5-2.5 1.12-2.5 2.5-2.5 2.5 1.12 2.5 2.5zm0-10.13c0 1.4-1.12 2.5-2.5 2.5s-2.5-1.1-2.5-2.5c0-1.38 1.12-2.5 2.5-2.5s2.5 1.12 2.5 2.5zm0-10.12c0 1.38-1.12 2.5-2.5 2.5s-2.5-1.12-2.5-2.5 1.12-2.5 2.5-2.5 2.5 1.12 2.5 2.5zm0-10.13c0 1.4-1.12 2.5-2.5 2.5s-2.5-1.1-2.5-2.5c0-1.38 1.12-2.5 2.5-2.5s2.5 1.12 2.5 2.5zm0-10.12c0 1.38-1.12 2.5-2.5 2.5s-2.5-1.12-2.5-2.5 1.12-2.5 2.5-2.5 2.5 1.12 2.5 2.5zm0-10.13c0 1.4-1.12 2.5-2.5 2.5s-2.5-1.1-2.5-2.5c0-1.38 1.12-2.5 2.5-2.5s2.5 1.12 2.5 2.5zm0-10.12c0 1.38-1.12 2.5-2.5 2.5s-2.5-1.12-2.5-2.5 1.12-2.5 2.5-2.5 2.5 1.12 2.5 2.5zm0-10.13c0 1.4-1.12 2.5-2.5 2.5s-2.5-1.1-2.5-2.5c0-1.38 1.12-2.5 2.5-2.5s2.5 1.12 2.5 2.5zm0-10.12c0 1.38-1.12 2.5-2.5 2.5s-2.5-1.12-2.5-2.5 1.12-2.5 2.5-2.5 2.5 1.12 2.5 2.5zm0-10.13c0 1.4-1.12 2.5-2.5 2.5s-2.5-1.1-2.5-2.5c0-1.38 1.12-2.5 2.5-2.5s2.5 1.12 2.5 2.5zm0-10.12c0 1.38-1.12 2.5-2.5 2.5s-2.5-1.12-2.5-2.5 1.12-2.5 2.5-2.5 2.5 1.12 2.5 2.5zm0-10.13c0 1.4-1.12 2.5-2.5 2.5s-2.5-1.1-2.5-2.5c0-1.38 1.12-2.5 2.5-2.5s2.5 1.12 2.5 2.5zm0-10.12c0 1.38-1.12 2.5-2.5 2.5s-2.5-1.12-2.5-2.5 1.12-2.5 2.5-2.5 2.5 1.12 2.5 2.5zm0-10.13c0 1.4-1.12 2.5-2.5 2.5s-2.5-1.1-2.5-2.5c0-1.38 1.12-2.5 2.5-2.5s2.5 1.12 2.5 2.5zm0-10.12c0 1.38-1.12 2.5-2.5 2.5s-2.5-1.12-2.5-2.5 1.12-2.5 2.5-2.5 2.5 1.12 2.5 2.5zm0-10.13c0 1.4-1.12 2.5-2.5 2.5s-2.5-1.1-2.5-2.5c0-1.38 1.12-2.5 2.5-2.5s2.5 1.12 2.5 2.5z" fill="#5e5e5e"/><path d="M2033.77-717h320" fill="none"/><path d="M2036.27-717c0 1.38-1.12 2.5-2.5 2.5s-2.5-1.12-2.5-2.5 1.12-2.5 2.5-2.5 2.5 1.12 2.5 2.5zm10 0c0 1.38-1.12 2.5-2.5 2.5s-2.5-1.12-2.5-2.5 1.12-2.5 2.5-2.5 2.5 1.12 2.5 2.5zm10 0c0 1.38-1.12 2.5-2.5 2.5s-2.5-1.12-2.5-2.5 1.12-2.5 2.5-2.5 2.5 1.12 2.5 2.5zm10 0c0 1.38-1.12 2.5-2.5 2.5s-2.5-1.12-2.5-2.5 1.12-2.5 2.5-2.5 2.5 1.12 2.5 2.5zm10 0c0 1.38-1.12 2.5-2.5 2.5s-2.5-1.12-2.5-2.5 1.12-2.5 2.5-2.5 2.5 1.12 2.5 2.5zm10 0c0 1.38-1.12 2.5-2.5 2.5s-2.5-1.12-2.5-2.5 1.12-2.5 2.5-2.5 2.5 1.12 2.5 2.5zm10 0c0 1.38-1.12 2.5-2.5 2.5s-2.5-1.12-2.5-2.5 1.12-2.5 2.5-2.5 2.5 1.12 2.5 2.5zm10 0c0 1.38-1.12 2.5-2.5 2.5s-2.5-1.12-2.5-2.5 1.12-2.5 2.5-2.5 2.5 1.12 2.5 2.5zm10 0c0 1.38-1.12 2.5-2.5 2.5s-2.5-1.12-2.5-2.5 1.12-2.5 2.5-2.5 2.5 1.12 2.5 2.5zm10 0c0 1.38-1.12 2.5-2.5 2.5s-2.5-1.12-2.5-2.5 1.12-2.5 2.5-2.5 2.5 1.12 2.5 2.5zm10 0c0 1.38-1.12 2.5-2.5 2.5s-2.5-1.12-2.5-2.5 1.12-2.5 2.5-2.5 2.5 1.12 2.5 2.5zm10 0c0 1.38-1.12 2.5-2.5 2.5s-2.5-1.12-2.5-2.5 1.12-2.5 2.5-2.5 2.5 1.12 2.5 2.5zm10 0c0 1.38-1.12 2.5-2.5 2.5s-2.5-1.12-2.5-2.5 1.12-2.5 2.5-2.5 2.5 1.12 2.5 2.5zm10 0c0 1.38-1.12 2.5-2.5 2.5s-2.5-1.12-2.5-2.5 1.12-2.5 2.5-2.5 2.5 1.12 2.5 2.5zm10 0c0 1.38-1.12 2.5-2.5 2.5s-2.5-1.12-2.5-2.5 1.12-2.5 2.5-2.5 2.5 1.12 2.5 2.5zm10 0c0 1.38-1.12 2.5-2.5 2.5s-2.5-1.12-2.5-2.5 1.12-2.5 2.5-2.5 2.5 1.12 2.5 2.5zm10 0c0 1.38-1.12 2.5-2.5 2.5s-2.5-1.12-2.5-2.5 1.12-2.5 2.5-2.5 2.5 1.12 2.5 2.5zm10 0c0 1.38-1.12 2.5-2.5 2.5s-2.5-1.12-2.5-2.5 1.12-2.5 2.5-2.5 2.5 1.12 2.5 2.5zm10 0c0 1.38-1.12 2.5-2.5 2.5s-2.5-1.12-2.5-2.5 1.12-2.5 2.5-2.5 2.5 1.12 2.5 2.5zm10 0c0 1.38-1.12 2.5-2.5 2.5s-2.5-1.12-2.5-2.5 1.12-2.5 2.5-2.5 2.5 1.12 2.5 2.5zm10 0c0 1.38-1.12 2.5-2.5 2.5s-2.5-1.12-2.5-2.5 1.12-2.5 2.5-2.5 2.5 1.12 2.5 2.5zm10 0c0 1.38-1.12 2.5-2.5 2.5s-2.5-1.12-2.5-2.5 1.12-2.5 2.5-2.5 2.5 1.12 2.5 2.5zm10 0c0 1.38-1.12 2.5-2.5 2.5s-2.5-1.12-2.5-2.5 1.12-2.5 2.5-2.5 2.5 1.12 2.5 2.5zm10 0c0 1.38-1.12 2.5-2.5 2.5s-2.5-1.12-2.5-2.5 1.12-2.5 2.5-2.5 2.5 1.12 2.5 2.5zm10 0c0 1.38-1.12 2.5-2.5 2.5s-2.5-1.12-2.5-2.5 1.12-2.5 2.5-2.5 2.5 1.12 2.5 2.5zm10 0c0 1.38-1.12 2.5-2.5 2.5s-2.5-1.12-2.5-2.5 1.12-2.5 2.5-2.5 2.5 1.12 2.5 2.5zm10 0c0 1.38-1.12 2.5-2.5 2.5s-2.5-1.12-2.5-2.5 1.12-2.5 2.5-2.5 2.5 1.12 2.5 2.5zm10 0c0 1.38-1.12 2.5-2.5 2.5s-2.5-1.12-2.5-2.5 1.12-2.5 2.5-2.5 2.5 1.12 2.5 2.5zm10 0c0 1.38-1.12 2.5-2.5 2.5s-2.5-1.12-2.5-2.5 1.12-2.5 2.5-2.5 2.5 1.12 2.5 2.5zm10 0c0 1.38-1.12 2.5-2.5 2.5s-2.5-1.12-2.5-2.5 1.12-2.5 2.5-2.5 2.5 1.12 2.5 2.5zm10 0c0 1.38-1.12 2.5-2.5 2.5s-2.5-1.12-2.5-2.5 1.12-2.5 2.5-2.5 2.5 1.12 2.5 2.5zm10 0c0 1.38-1.12 2.5-2.5 2.5s-2.5-1.12-2.5-2.5 1.12-2.5 2.5-2.5 2.5 1.12 2.5 2.5z" fill="#5e5e5e"/><use xlink:href="#a" transform="matrix(1,0,0,1,2043.7714285714283,-780) translate(75.40123456790124 22.611111111111114)"/><use xlink:href="#b" transform="matrix(1,0,0,1,2043.7714285714283,-780) translate(153.179012345679 22.611111111111114)"/><use xlink:href="#c" transform="matrix(1,0,0,1,2043.7714285714283,-780) translate(102.53086419753086 49.277777777777786)"/><path d="M2011.27-698.45h-78.68c-.02 0-.04 0-.04-.02s0-.03-.02-.03h-59.68" stroke="#5e5e5e" stroke-width="2" fill="none"/><path d="M2011.27-708.45v20M2031.27-698.45h-20M1834.3-708.5l20 10-20 10M1834.3-698.5h20M1874.3-698.5c0 5.52-4.47 10-10 10-5.52 0-10-4.48-10-10s4.48-10 10-10c5.53 0 10 4.48 10 10" stroke="#5e5e5e" stroke-width="2" fill="#fff"/><use xlink:href="#d" transform="matrix(1,0,0,1,1953.393876249395,-694.4496951219512) translate(0 14.222222222222223)"/><use xlink:href="#e" transform="matrix(1,0,0,1,1848.7836059464444,-723.8333333333333) translate(0 14.222222222222223)"/><use xlink:href="#f" transform="matrix(1,0,0,1,1848.7836059464444,-723.8333333333333) translate(77.82716049382717 14.222222222222223)"/><path d="M2040.44-564.5v37.36c0 3.3-2.7 6-6 6H774.3" stroke="#5e5e5e" stroke-width="2" fill="none"/><path d="M2050.44-603.05l-10 20-10-20M2040.44-603.05v20M2050.44-573.05c0 5.52-4.48 10-10 10s-10-4.48-10-10c0-5.53 4.48-10 10-10s10 4.47 10 10M779.07-556.03l-6.85 21.3L759.3-553M769.18-554.5l3.04 19.76" stroke="#5e5e5e" stroke-width="2" fill="#fff"/><path d="M783.74-524.86c0 5.53-4.48 10-10 10-5.53 0-10-4.47-10-10 0-5.52 4.47-10 10-10 5.52 0 10 4.48 10 10" stroke="#5e5e5e" stroke-width="2" fill="#fff"/><use xlink:href="#g" transform="matrix(1,0,0,1,803.4538575855516,-546.4761904761906) translate(0 14.222222222222223)"/><use xlink:href="#h" transform="matrix(1,0,0,1,803.4538575855516,-546.4761904761906) translate(101.58024691358025 14.222222222222223)"/><use xlink:href="#i" transform="matrix(1,0,0,1,803.4538575855516,-546.4761904761906) translate(132.19753086419755 14.222222222222223)"/><use xlink:href="#j" transform="matrix(1,0,0,1,1791.3212959370867,-546.4761904761906) translate(0 14.222222222222223)"/><use xlink:href="#k" transform="matrix(1,0,0,1,1791.3212959370867,-546.4761904761906) translate(30.617283950617285 14.222222222222223)"/><use xlink:href="#l" transform="matrix(1,0,0,1,1791.3212959370867,-546.4761904761906) translate(106.56790123456793 14.222222222222223)"/><use xlink:href="#m" transform="matrix(1,0,0,1,1791.3212959370867,-546.4761904761906) translate(207.11111111111114 14.222222222222223)"/><path d="M2076.44-564.5v72.5c0 3.3-2.7 6-6 6H719.1c-3.3 0-6-2.7-6-6v-23.95" stroke="#5e5e5e" stroke-width="2" fill="none"/><path d="M2086.44-603.05l-10 20-10-20M2076.44-603.05v20M2086.44-573.05c0 5.52-4.48 10-10 10s-10-4.48-10-10c0-5.53 4.48-10 10-10s10 4.47 10 10M723.1-554.5l-10 20-10-20M713.1-554.5v20M723.1-524.5c0 5.52-4.47 10-10 10-5.52 0-10-4.48-10-10 0-5.53 4.48-10 10-10 5.53 0 10 4.47 10 10" stroke="#5e5e5e" stroke-width="2" fill="#fff"/><use xlink:href="#n" transform="matrix(1,0,0,1,1837.9270923061108,-511.33333333333337) translate(0 14.222222222222223)"/><use xlink:href="#o" transform="matrix(1,0,0,1,1837.9270923061108,-511.33333333333337) translate(67.11111111111111 14.222222222222223)"/><use xlink:href="#m" transform="matrix(1,0,0,1,1837.9270923061108,-511.33333333333337) translate(167.65432098765433 14.222222222222223)"/><use xlink:href="#g" transform="matrix(1,0,0,1,798.3416477716682,-511.33333333333337) translate(0 14.222222222222223)"/><use xlink:href="#p" transform="matrix(1,0,0,1,798.3416477716682,-511.33333333333337) translate(101.58024691358025 14.222222222222223)"/><use xlink:href="#q" transform="matrix(1,0,0,1,798.3416477716682,-511.33333333333337) translate(165.7777777777778 14.222222222222223)"/><path d="M1632.86-729.43c0-27.6 22.38-50 50-50h100c27.6 0 50 22.4 50 50V-606c0 27.6-22.4 50-50 50h-100c-27.62 0-50-22.4-50-50z" stroke="#5e5e5e" stroke-width="2" fill="#fff"/><use xlink:href="#a" transform="matrix(1,0,0,1,1637.8571428571431,-774.4285714285713) translate(14.84567901234567 111.40277777777777)"/><use xlink:href="#r" transform="matrix(1,0,0,1,1637.8571428571431,-774.4285714285713) translate(92.62345679012344 111.40277777777777)"/><path d="M360-728.66c0-27.62 22.4-50 50-50h360c27.6 0 50 22.38 50 50v122.7c0 27.62-22.4 50-50 50H410c-27.6 0-50-22.38-50-50z" stroke="#5e5e5e" stroke-width="2" fill="#fff"/><use xlink:href="#a" transform="matrix(1,0,0,1,365,-773.6647040508644) translate(156.54320987654322 110.96527777777777)"/><use xlink:href="#s" transform="matrix(1,0,0,1,365,-773.6647040508644) translate(234.320987654321 110.96527777777777)"/><path d="M2113.77-564.5V-442c0 3.3-2.68 6-6 6H673.87c-3.32 0-6-2.7-6-6v-73.95" stroke="#5e5e5e" stroke-width="2" fill="none"/><path d="M2123.77-603.05l-10 20-10-20M2113.77-603.05v20M2123.77-573.05c0 5.52-4.48 10-10 10s-10-4.48-10-10c0-5.53 4.48-10 10-10s10 4.47 10 10M677.87-554.5l-10 20-10-20M667.87-554.5v20M677.87-524.5c0 5.52-4.48 10-10 10-5.53 0-10-4.48-10-10 0-5.53 4.47-10 10-10 5.52 0 10 4.47 10 10" stroke="#5e5e5e" stroke-width="2" fill="#fff"/><use xlink:href="#t" transform="matrix(1,0,0,1,1736.6977775436326,-461.33333333333337) translate(0 14.222222222222223)"/><use xlink:href="#p" transform="matrix(1,0,0,1,1736.6977775436326,-461.33333333333337) translate(102.46913580246914 14.222222222222223)"/><use xlink:href="#l" transform="matrix(1,0,0,1,1736.6977775436326,-461.33333333333337) translate(166.66666666666669 14.222222222222223)"/><use xlink:href="#m" transform="matrix(1,0,0,1,1736.6977775436326,-461.33333333333337) translate(267.20987654320993 14.222222222222223)"/><use xlink:href="#g" transform="matrix(1,0,0,1,795.0504973990925,-461.33333333333337) translate(0 14.222222222222223)"/><use xlink:href="#u" transform="matrix(1,0,0,1,795.0504973990925,-461.33333333333337) translate(101.58024691358025 14.222222222222223)"/><use xlink:href="#v" transform="matrix(1,0,0,1,795.0504973990925,-461.33333333333337) translate(203.01234567901236 14.222222222222223)"/><use xlink:href="#w" transform="matrix(1,0,0,1,795.0504973990925,-461.33333333333337) translate(267.20987654320993 14.222222222222223)"/><use xlink:href="#x" transform="matrix(1,0,0,1,795.0504973990925,-461.33333333333337) translate(288.83950617283955 14.222222222222223)"/><path d="M2145.77-564.5V-402c0 3.3-2.68 6-6 6H626.44c-3.32 0-6-2.7-6-6v-113.95" stroke="#5e5e5e" stroke-width="2" fill="none"/><path d="M2155.77-603.05l-10 20-10-20M2145.77-603.05v20M2155.77-573.05c0 5.52-4.48 10-10 10s-10-4.48-10-10c0-5.53 4.48-10 10-10s10 4.47 10 10M630.44-554.5l-10 20-10-20M620.44-554.5v20M630.44-524.5c0 5.52-4.48 10-10 10s-10-4.48-10-10c0-5.53 4.48-10 10-10s10 4.47 10 10" stroke="#5e5e5e" stroke-width="2" fill="#fff"/><use xlink:href="#y" transform="matrix(1,0,0,1,1753.2749389492208,-421.3333333333333) translate(0 14.222222222222223)"/><use xlink:href="#p" transform="matrix(1,0,0,1,1753.2749389492208,-421.3333333333333) translate(86.71604938271605 14.222222222222223)"/><use xlink:href="#l" transform="matrix(1,0,0,1,1753.2749389492208,-421.3333333333333) translate(150.9135802469136 14.222222222222223)"/><use xlink:href="#m" transform="matrix(1,0,0,1,1753.2749389492208,-421.3333333333333) translate(251.4567901234568 14.222222222222223)"/><use xlink:href="#g" transform="matrix(1,0,0,1,789.4635029480437,-421.3333333333333) translate(0 14.222222222222223)"/><use xlink:href="#z" transform="matrix(1,0,0,1,789.4635029480437,-421.3333333333333) translate(101.58024691358025 14.222222222222223)"/><use xlink:href="#v" transform="matrix(1,0,0,1,789.4635029480437,-421.3333333333333) translate(187.25925925925927 14.222222222222223)"/><use xlink:href="#q" transform="matrix(1,0,0,1,789.4635029480437,-421.3333333333333) translate(251.4567901234568 14.222222222222223)"/><path d="M2180.97-564.5V-362c0 3.3-2.68 6-6 6H581.1c-3.3 0-6-2.7-6-6v-153.95" stroke="#5e5e5e" stroke-width="2" fill="none"/><path d="M2190.97-603.05l-10 20-10-20M2180.97-603.05v20M2190.97-573.05c0 5.52-4.48 10-10 10s-10-4.48-10-10c0-5.53 4.48-10 10-10s10 4.47 10 10M585.1-554.5l-10 20-10-20M575.1-554.5v20M585.1-524.5c0 5.52-4.47 10-10 10-5.52 0-10-4.48-10-10 0-5.53 4.48-10 10-10 5.53 0 10 4.47 10 10" stroke="#5e5e5e" stroke-width="2" fill="#fff"/><g><use xlink:href="#t" transform="matrix(1,0,0,1,1647.8604704937568,-381.3333333333333) translate(0 14.222222222222223)"/><use xlink:href="#z" transform="matrix(1,0,0,1,1647.8604704937568,-381.3333333333333) translate(102.46913580246914 14.222222222222223)"/><use xlink:href="#v" transform="matrix(1,0,0,1,1647.8604704937568,-381.3333333333333) translate(188.14814814814815 14.222222222222223)"/><use xlink:href="#l" transform="matrix(1,0,0,1,1647.8604704937568,-381.3333333333333) translate(252.3456790123457 14.222222222222223)"/><use xlink:href="#m" transform="matrix(1,0,0,1,1647.8604704937568,-381.3333333333333) translate(352.8888888888889 14.222222222222223)"/></g><g><use xlink:href="#g" transform="matrix(1,0,0,1,783.3196127924807,-381.3333333333333) translate(0 14.222222222222223)"/><use xlink:href="#u" transform="matrix(1,0,0,1,783.3196127924807,-381.3333333333333) translate(101.58024691358025 14.222222222222223)"/><use xlink:href="#A" transform="matrix(1,0,0,1,783.3196127924807,-381.3333333333333) translate(203.01234567901236 14.222222222222223)"/><use xlink:href="#v" transform="matrix(1,0,0,1,783.3196127924807,-381.3333333333333) translate(288.69135802469134 14.222222222222223)"/><use xlink:href="#B" transform="matrix(1,0,0,1,783.3196127924807,-381.3333333333333) translate(352.8888888888889 14.222222222222223)"/></g><path d="M2218.57-564.5V-322c0 3.3-2.68 6-6 6H535.77c-3.3 0-6-2.7-6-6v-193.95" stroke="#5e5e5e" stroke-width="2" fill="none"/><path d="M2228.57-603.05l-10 20-10-20M2218.57-603.05v20M2228.57-573.05c0 5.52-4.48 10-10 10s-10-4.48-10-10c0-5.53 4.48-10 10-10s10 4.47 10 10M539.77-554.5l-10 20-10-20M529.77-554.5v20M539.77-524.5c0 5.52-4.48 10-10 10s-10-4.48-10-10c0-5.53 4.48-10 10-10s10 4.47 10 10" stroke="#5e5e5e" stroke-width="2" fill="#fff"/><g><use xlink:href="#C" transform="matrix(1,0,0,1,1771.1373300747325,-341.33333333333337) translate(0 14.222222222222223)"/><use xlink:href="#p" transform="matrix(1,0,0,1,1771.1373300747325,-341.33333333333337) translate(67.01234567901236 14.222222222222223)"/><use xlink:href="#l" transform="matrix(1,0,0,1,1771.1373300747325,-341.33333333333337) translate(131.2098765432099 14.222222222222223)"/><use xlink:href="#m" transform="matrix(1,0,0,1,1771.1373300747325,-341.33333333333337) translate(231.75308641975312 14.222222222222223)"/></g><g><use xlink:href="#g" transform="matrix(1,0,0,1,781.3022927689592,-341.33333333333337) translate(0 14.222222222222223)"/><use xlink:href="#D" transform="matrix(1,0,0,1,781.3022927689592,-341.33333333333337) translate(101.58024691358025 14.222222222222223)"/><use xlink:href="#v" transform="matrix(1,0,0,1,781.3022927689592,-341.33333333333337) translate(162.71604938271605 14.222222222222223)"/><use xlink:href="#q" transform="matrix(1,0,0,1,781.3022927689592,-341.33333333333337) translate(226.9135802469136 14.222222222222223)"/></g><path d="M2261.77-583.5V-272c0 3.3-2.68 6-6 6H486.44c-3.32 0-6-2.7-6-6v-264.13" stroke="#5e5e5e" stroke-width="2" fill="none"/><path d="M2251.77-583.5h20M2261.77-603.5v20M490.44-554.5l-10 20-10-20M480.44-554.5v20" stroke="#5e5e5e" stroke-width="2" fill="#fff"/><g><use xlink:href="#t" transform="matrix(1,0,0,1,1679.2529100529098,-291.3333333333333) translate(0 14.222222222222223)"/><use xlink:href="#D" transform="matrix(1,0,0,1,1679.2529100529098,-291.3333333333333) translate(102.46913580246914 14.222222222222223)"/><use xlink:href="#v" transform="matrix(1,0,0,1,1679.2529100529098,-291.3333333333333) translate(163.60493827160496 14.222222222222223)"/><use xlink:href="#l" transform="matrix(1,0,0,1,1679.2529100529098,-291.3333333333333) translate(227.8024691358025 14.222222222222223)"/><use xlink:href="#m" transform="matrix(1,0,0,1,1679.2529100529098,-291.3333333333333) translate(328.3456790123457 14.222222222222223)"/></g><g><use xlink:href="#g" transform="matrix(1,0,0,1,777.2529100529098,-291.3333333333333) translate(0 14.222222222222223)"/><use xlink:href="#u" transform="matrix(1,0,0,1,777.2529100529098,-291.3333333333333) translate(101.58024691358025 14.222222222222223)"/><use xlink:href="#E" transform="matrix(1,0,0,1,777.2529100529098,-291.3333333333333) translate(203.01234567901236 14.222222222222223)"/><use xlink:href="#v" transform="matrix(1,0,0,1,777.2529100529098,-291.3333333333333) translate(264.14814814814815 14.222222222222223)"/><use xlink:href="#q" transform="matrix(1,0,0,1,777.2529100529098,-291.3333333333333) translate(328.3456790123457 14.222222222222223)"/></g><defs><path fill="#333" d="M205 0l-28-72H64L36 0H1l101-248h38L239 0h-34zm-38-99l-47-123c-12 45-31 82-46 123h93" id="F"/><path fill="#333" d="M96-169c-40 0-48 33-48 73s9 75 48 75c24 0 41-14 43-38l32 2c-6 37-31 61-74 61-59 0-76-41-82-99-10-93 101-131 147-64 4 7 5 14 7 22l-32 3c-4-21-16-35-41-35" id="G"/><path fill="#333" d="M100-194c63 0 86 42 84 106H49c0 40 14 67 53 68 26 1 43-12 49-29l28 8c-11 28-37 45-77 45C44 4 14-33 15-96c1-61 26-98 85-98zm52 81c6-60-76-77-97-28-3 7-6 17-6 28h103" id="H"/><path fill="#333" d="M135-143c-3-34-86-38-87 0 15 53 115 12 119 90S17 21 10-45l28-5c4 36 97 45 98 0-10-56-113-15-118-90-4-57 82-63 122-42 12 7 21 19 24 35" id="I"/><g id="a"><use transform="matrix(0.06172839506172839,0,0,0.06172839506172839,0,0)" xlink:href="#F"/><use transform="matrix(0.06172839506172839,0,0,0.06172839506172839,14.814814814814813,0)" xlink:href="#G"/><use transform="matrix(0.06172839506172839,0,0,0.06172839506172839,25.925925925925924,0)" xlink:href="#G"/><use transform="matrix(0.06172839506172839,0,0,0.06172839506172839,37.03703703703704,0)" xlink:href="#H"/><use transform="matrix(0.06172839506172839,0,0,0.06172839506172839,49.382716049382715,0)" xlink:href="#I"/><use transform="matrix(0.06172839506172839,0,0,0.06172839506172839,60.49382716049382,0)" xlink:href="#I"/></g><path fill="#333" d="M212-179c-10-28-35-45-73-45-59 0-87 40-87 99 0 60 29 101 89 101 43 0 62-24 78-52l27 14C228-24 195 4 139 4 59 4 22-46 18-125c-6-104 99-153 187-111 19 9 31 26 39 46" id="J"/><path fill="#333" d="M100-194c62-1 85 37 85 99 1 63-27 99-86 99S16-35 15-95c0-66 28-99 85-99zM99-20c44 1 53-31 53-75 0-43-8-75-51-75s-53 32-53 75 10 74 51 75" id="K"/><path fill="#333" d="M117-194c89-4 53 116 60 194h-32v-121c0-31-8-49-39-48C34-167 62-67 57 0H25l-1-190h30c1 10-1 24 2 32 11-22 29-35 61-36" id="L"/><path fill="#333" d="M59-47c-2 24 18 29 38 22v24C64 9 27 4 27-40v-127H5v-23h24l9-43h21v43h35v23H59v120" id="M"/><path fill="#333" d="M114-163C36-179 61-72 57 0H25l-1-190h30c1 12-1 29 2 39 6-27 23-49 58-41v29" id="N"/><path fill="#333" d="M24 0v-261h32V0H24" id="O"/><g id="b"><use transform="matrix(0.06172839506172839,0,0,0.06172839506172839,0,0)" xlink:href="#J"/><use transform="matrix(0.06172839506172839,0,0,0.06172839506172839,15.987654320987653,0)" xlink:href="#K"/><use transform="matrix(0.06172839506172839,0,0,0.06172839506172839,28.333333333333332,0)" xlink:href="#L"/><use transform="matrix(0.06172839506172839,0,0,0.06172839506172839,40.67901234567901,0)" xlink:href="#M"/><use transform="matrix(0.06172839506172839,0,0,0.06172839506172839,46.851851851851855,0)" xlink:href="#N"/><use transform="matrix(0.06172839506172839,0,0,0.06172839506172839,54.19753086419753,0)" xlink:href="#K"/><use transform="matrix(0.06172839506172839,0,0,0.06172839506172839,66.54320987654322,0)" xlink:href="#O"/></g><path fill="#333" d="M233-177c-1 41-23 64-60 70L243 0h-38l-65-103H63V0H30v-248c88 3 205-21 203 71zM63-129c60-2 137 13 137-47 0-61-80-42-137-45v92" id="P"/><path fill="#333" d="M84 4C-5 8 30-112 23-190h32v120c0 31 7 50 39 49 72-2 45-101 50-169h31l1 190h-30c-1-10 1-25-2-33-11 22-28 36-60 37" id="Q"/><g id="c"><use transform="matrix(0.06172839506172839,0,0,0.06172839506172839,0,0)" xlink:href="#P"/><use transform="matrix(0.06172839506172839,0,0,0.06172839506172839,15.987654320987653,0)" xlink:href="#H"/><use transform="matrix(0.06172839506172839,0,0,0.06172839506172839,28.333333333333332,0)" xlink:href="#I"/><use transform="matrix(0.06172839506172839,0,0,0.06172839506172839,39.44444444444444,0)" xlink:href="#K"/><use transform="matrix(0.06172839506172839,0,0,0.06172839506172839,51.79012345679012,0)" xlink:href="#Q"/><use transform="matrix(0.06172839506172839,0,0,0.06172839506172839,64.1358024691358,0)" xlink:href="#N"/><use transform="matrix(0.06172839506172839,0,0,0.06172839506172839,71.48148148148148,0)" xlink:href="#G"/><use transform="matrix(0.06172839506172839,0,0,0.06172839506172839,82.5925925925926,0)" xlink:href="#H"/></g><path fill="#333" d="M24 0v-248h52V0H24" id="R"/><path fill="#333" d="M135-194c87-1 58 113 63 194h-50c-7-57 23-157-34-157-59 0-34 97-39 157H25l-1-190h47c2 12-1 28 3 38 12-26 28-41 61-42" id="S"/><path fill="#333" d="M25-224v-37h50v37H25zM25 0v-190h50V0H25" id="T"/><path fill="#333" d="M190-63c-7 42-38 67-86 67-59 0-84-38-90-98-12-110 154-137 174-36l-49 2c-2-19-15-32-35-32-30 0-35 28-38 64-6 74 65 87 74 30" id="U"/><path fill="#333" d="M25 0v-261h50V0H25" id="V"/><path fill="#333" d="M85 4C-2 5 27-109 22-190h50c7 57-23 150 33 157 60-5 35-97 40-157h50l1 190h-47c-2-12 1-28-3-38-12 25-28 42-61 42" id="W"/><path fill="#333" d="M88-194c31-1 46 15 58 34l-1-101h50l1 261h-48c-2-10 0-23-3-31C134-8 116 4 84 4 32 4 16-41 15-95c0-56 19-97 73-99zm17 164c33 0 40-30 41-66 1-37-9-64-41-64s-38 30-39 65c0 43 13 65 39 65" id="X"/><path fill="#333" d="M185-48c-13 30-37 53-82 52C43 2 14-33 14-96s30-98 90-98c62 0 83 45 84 108H66c0 31 8 55 39 56 18 0 30-7 34-22zm-45-69c5-46-57-63-70-21-2 6-4 13-4 21h74" id="Y"/><path fill="#333" d="M137-138c1-29-70-34-71-4 15 46 118 7 119 86 1 83-164 76-172 9l43-7c4 19 20 25 44 25 33 8 57-30 24-41C81-84 22-81 20-136c-2-80 154-74 161-7" id="Z"/><g id="d"><use transform="matrix(0.04938271604938272,0,0,0.04938271604938272,0,0)" xlink:href="#R"/><use transform="matrix(0.04938271604938272,0,0,0.04938271604938272,4.938271604938272,0)" xlink:href="#S"/><use transform="matrix(0.04938271604938272,0,0,0.04938271604938272,15.753086419753087,0)" xlink:href="#T"/><use transform="matrix(0.04938271604938272,0,0,0.04938271604938272,20.69135802469136,0)" xlink:href="#U"/><use transform="matrix(0.04938271604938272,0,0,0.04938271604938272,30.567901234567906,0)" xlink:href="#V"/><use transform="matrix(0.04938271604938272,0,0,0.04938271604938272,35.50617283950618,0)" xlink:href="#W"/><use transform="matrix(0.04938271604938272,0,0,0.04938271604938272,46.320987654320994,0)" xlink:href="#X"/><use transform="matrix(0.04938271604938272,0,0,0.04938271604938272,57.135802469135804,0)" xlink:href="#Y"/><use transform="matrix(0.04938271604938272,0,0,0.04938271604938272,67.01234567901236,0)" xlink:href="#Z"/></g><g id="e"><use transform="matrix(0.04938271604938272,0,0,0.04938271604938272,0,0)" xlink:href="#R"/><use transform="matrix(0.04938271604938272,0,0,0.04938271604938272,4.938271604938272,0)" xlink:href="#S"/><use transform="matrix(0.04938271604938272,0,0,0.04938271604938272,15.753086419753087,0)" xlink:href="#U"/><use transform="matrix(0.04938271604938272,0,0,0.04938271604938272,25.629629629629633,0)" xlink:href="#V"/><use transform="matrix(0.04938271604938272,0,0,0.04938271604938272,30.567901234567906,0)" xlink:href="#W"/><use transform="matrix(0.04938271604938272,0,0,0.04938271604938272,41.38271604938272,0)" xlink:href="#X"/><use transform="matrix(0.04938271604938272,0,0,0.04938271604938272,52.19753086419754,0)" xlink:href="#Y"/><use transform="matrix(0.04938271604938272,0,0,0.04938271604938272,62.074074074074076,0)" xlink:href="#X"/></g><g id="f"><use transform="matrix(0.04938271604938272,0,0,0.04938271604938272,0,0)" xlink:href="#T"/><use transform="matrix(0.04938271604938272,0,0,0.04938271604938272,4.938271604938272,0)" xlink:href="#S"/></g><path fill="#333" d="M24-248c120-7 223 5 221 122C244-46 201 0 124 0H24v-248zM76-40c74 7 117-18 117-86 0-67-45-88-117-82v168" id="aa"/><path fill="#333" d="M115-3C79 11 28 4 28-45v-112H4v-33h27l15-45h31v45h36v33H77v99c-1 23 16 31 38 25v30" id="ab"/><path fill="#333" d="M135-150c-39-12-60 13-60 57V0H25l-1-190h47c2 13-1 29 3 40 6-28 27-53 61-41v41" id="ac"/><path fill="#333" d="M220-157c-53 9-28 100-34 157h-49v-107c1-27-5-49-29-50C55-147 81-57 75 0H25l-1-190h47c2 12-1 28 3 38 10-53 101-56 108 0 13-22 24-43 59-42 82 1 51 116 57 194h-49v-107c-1-25-5-48-29-50" id="ad"/><g id="g"><use transform="matrix(0.04938271604938272,0,0,0.04938271604938272,0,0)" xlink:href="#aa"/><use transform="matrix(0.04938271604938272,0,0,0.04938271604938272,12.790123456790125,0)" xlink:href="#Y"/><use transform="matrix(0.04938271604938272,0,0,0.04938271604938272,22.66666666666667,0)" xlink:href="#ab"/><use transform="matrix(0.04938271604938272,0,0,0.04938271604938272,28.54320987654322,0)" xlink:href="#Y"/><use transform="matrix(0.04938271604938272,0,0,0.04938271604938272,38.41975308641976,0)" xlink:href="#ac"/><use transform="matrix(0.04938271604938272,0,0,0.04938271604938272,45.33333333333334,0)" xlink:href="#ad"/><use transform="matrix(0.04938271604938272,0,0,0.04938271604938272,61.13580246913581,0)" xlink:href="#T"/><use transform="matrix(0.04938271604938272,0,0,0.04938271604938272,66.07407407407408,0)" xlink:href="#S"/><use transform="matrix(0.04938271604938272,0,0,0.04938271604938272,76.88888888888889,0)" xlink:href="#Y"/><use transform="matrix(0.04938271604938272,0,0,0.04938271604938272,86.76543209876543,0)" xlink:href="#Z"/></g><path fill="#333" d="M24-248c93 1 206-16 204 79-1 75-69 88-152 82V0H24v-248zm52 121c47 0 100 7 100-41 0-47-54-39-100-39v80" id="ae"/><path fill="#333" d="M140-251c80 0 125 45 125 126S219 4 139 4C58 4 15-44 15-125s44-126 125-126zm-1 214c52 0 73-35 73-88 0-50-21-86-72-86-52 0-73 35-73 86s22 88 72 88" id="af"/><g id="h"><use transform="matrix(0.04938271604938272,0,0,0.04938271604938272,0,0)" xlink:href="#ae"/><use transform="matrix(0.04938271604938272,0,0,0.04938271604938272,11.851851851851853,0)" xlink:href="#af"/></g><path fill="#333" d="M128 0H69L1-190h53L99-40l48-150h52" id="ag"/><path fill="#333" d="M135-194c52 0 70 43 70 98 0 56-19 99-73 100-30 1-46-15-58-35L72 0H24l1-261h50v104c11-23 29-37 60-37zM114-30c31 0 40-27 40-66 0-37-7-63-39-63s-41 28-41 65c0 36 8 64 40 64" id="ah"/><path fill="#333" d="M123 10C108 53 80 86 19 72V37c35 8 53-11 59-39L3-190h52l48 148c12-52 28-100 44-148h51" id="ai"/><g id="i"><use transform="matrix(0.04938271604938272,0,0,0.04938271604938272,0,0)" xlink:href="#ag"/><use transform="matrix(0.04938271604938272,0,0,0.04938271604938272,9.876543209876544,0)" xlink:href="#T"/><use transform="matrix(0.04938271604938272,0,0,0.04938271604938272,14.814814814814817,0)" xlink:href="#Z"/><use transform="matrix(0.04938271604938272,0,0,0.04938271604938272,24.69135802469136,0)" xlink:href="#T"/><use transform="matrix(0.04938271604938272,0,0,0.04938271604938272,29.629629629629633,0)" xlink:href="#ah"/><use transform="matrix(0.04938271604938272,0,0,0.04938271604938272,40.44444444444445,0)" xlink:href="#T"/><use transform="matrix(0.04938271604938272,0,0,0.04938271604938272,45.38271604938272,0)" xlink:href="#V"/><use transform="matrix(0.04938271604938272,0,0,0.04938271604938272,50.320987654320994,0)" xlink:href="#T"/><use transform="matrix(0.04938271604938272,0,0,0.04938271604938272,55.25925925925927,0)" xlink:href="#ab"/><use transform="matrix(0.04938271604938272,0,0,0.04938271604938272,61.13580246913581,0)" xlink:href="#ai"/></g><g id="j"><use transform="matrix(0.04938271604938272,0,0,0.04938271604938272,0,0)" xlink:href="#ae"/><use transform="matrix(0.04938271604938272,0,0,0.04938271604938272,11.851851851851853,0)" xlink:href="#af"/></g><g id="k"><use transform="matrix(0.04938271604938272,0,0,0.04938271604938272,0,0)" xlink:href="#ag"/><use transform="matrix(0.04938271604938272,0,0,0.04938271604938272,9.876543209876544,0)" xlink:href="#T"/><use transform="matrix(0.04938271604938272,0,0,0.04938271604938272,14.814814814814817,0)" xlink:href="#Z"/><use transform="matrix(0.04938271604938272,0,0,0.04938271604938272,24.69135802469136,0)" xlink:href="#T"/><use transform="matrix(0.04938271604938272,0,0,0.04938271604938272,29.629629629629633,0)" xlink:href="#ah"/><use transform="matrix(0.04938271604938272,0,0,0.04938271604938272,40.44444444444445,0)" xlink:href="#T"/><use transform="matrix(0.04938271604938272,0,0,0.04938271604938272,45.38271604938272,0)" xlink:href="#V"/><use transform="matrix(0.04938271604938272,0,0,0.04938271604938272,50.320987654320994,0)" xlink:href="#T"/><use transform="matrix(0.04938271604938272,0,0,0.04938271604938272,55.25925925925927,0)" xlink:href="#ab"/><use transform="matrix(0.04938271604938272,0,0,0.04938271604938272,61.13580246913581,0)" xlink:href="#ai"/></g><g id="l"><use transform="matrix(0.04938271604938272,0,0,0.04938271604938272,0,0)" xlink:href="#X"/><use transform="matrix(0.04938271604938272,0,0,0.04938271604938272,10.814814814814815,0)" xlink:href="#Y"/><use transform="matrix(0.04938271604938272,0,0,0.04938271604938272,20.69135802469136,0)" xlink:href="#ab"/><use transform="matrix(0.04938271604938272,0,0,0.04938271604938272,26.567901234567902,0)" xlink:href="#Y"/><use transform="matrix(0.04938271604938272,0,0,0.04938271604938272,36.44444444444445,0)" xlink:href="#ac"/><use transform="matrix(0.04938271604938272,0,0,0.04938271604938272,43.35802469135803,0)" xlink:href="#ad"/><use transform="matrix(0.04938271604938272,0,0,0.04938271604938272,59.1604938271605,0)" xlink:href="#T"/><use transform="matrix(0.04938271604938272,0,0,0.04938271604938272,64.09876543209877,0)" xlink:href="#S"/><use transform="matrix(0.04938271604938272,0,0,0.04938271604938272,74.91358024691358,0)" xlink:href="#Y"/><use transform="matrix(0.04938271604938272,0,0,0.04938271604938272,84.79012345679013,0)" xlink:href="#X"/></g><g id="m"><use transform="matrix(0.04938271604938272,0,0,0.04938271604938272,0,0)" xlink:href="#ah"/><use transform="matrix(0.04938271604938272,0,0,0.04938271604938272,10.814814814814815,0)" xlink:href="#ai"/></g><path fill="#333" d="M199 0l-22-63H83L61 0H9l90-248h61L250 0h-51zm-33-102l-36-108c-10 38-24 72-36 108h72" id="aj"/><g id="n"><use transform="matrix(0.04938271604938272,0,0,0.04938271604938272,0,0)" xlink:href="#aj"/><use transform="matrix(0.04938271604938272,0,0,0.04938271604938272,12.790123456790125,0)" xlink:href="#U"/><use transform="matrix(0.04938271604938272,0,0,0.04938271604938272,22.66666666666667,0)" xlink:href="#U"/><use transform="matrix(0.04938271604938272,0,0,0.04938271604938272,32.543209876543216,0)" xlink:href="#Y"/><use transform="matrix(0.04938271604938272,0,0,0.04938271604938272,42.41975308641976,0)" xlink:href="#Z"/><use transform="matrix(0.04938271604938272,0,0,0.04938271604938272,52.2962962962963,0)" xlink:href="#Z"/></g><g id="o"><use transform="matrix(0.04938271604938272,0,0,0.04938271604938272,0,0)" xlink:href="#X"/><use transform="matrix(0.04938271604938272,0,0,0.04938271604938272,10.814814814814815,0)" xlink:href="#Y"/><use transform="matrix(0.04938271604938272,0,0,0.04938271604938272,20.69135802469136,0)" xlink:href="#ab"/><use transform="matrix(0.04938271604938272,0,0,0.04938271604938272,26.567901234567902,0)" xlink:href="#Y"/><use transform="matrix(0.04938271604938272,0,0,0.04938271604938272,36.44444444444445,0)" xlink:href="#ac"/><use transform="matrix(0.04938271604938272,0,0,0.04938271604938272,43.35802469135803,0)" xlink:href="#ad"/><use transform="matrix(0.04938271604938272,0,0,0.04938271604938272,59.1604938271605,0)" xlink:href="#T"/><use transform="matrix(0.04938271604938272,0,0,0.04938271604938272,64.09876543209877,0)" xlink:href="#S"/><use transform="matrix(0.04938271604938272,0,0,0.04938271604938272,74.91358024691358,0)" xlink:href="#Y"/><use transform="matrix(0.04938271604938272,0,0,0.04938271604938272,84.79012345679013,0)" xlink:href="#X"/></g><path fill="#333" d="M133-34C117-15 103 5 69 4 32 3 11-16 11-54c-1-60 55-63 116-61 1-26-3-47-28-47-18 1-26 9-28 27l-52-2c7-38 36-58 82-57s74 22 75 68l1 82c-1 14 12 18 25 15v27c-30 8-71 5-69-32zm-48 3c29 0 43-24 42-57-32 0-66-3-65 30 0 17 8 27 23 27" id="ak"/><g id="p"><use transform="matrix(0.04938271604938272,0,0,0.04938271604938272,0,0)" xlink:href="#ak"/><use transform="matrix(0.04938271604938272,0,0,0.04938271604938272,9.876543209876544,0)" xlink:href="#U"/><use transform="matrix(0.04938271604938272,0,0,0.04938271604938272,19.75308641975309,0)" xlink:href="#U"/><use transform="matrix(0.04938271604938272,0,0,0.04938271604938272,29.629629629629633,0)" xlink:href="#Y"/><use transform="matrix(0.04938271604938272,0,0,0.04938271604938272,39.50617283950618,0)" xlink:href="#Z"/><use transform="matrix(0.04938271604938272,0,0,0.04938271604938272,49.38271604938272,0)" xlink:href="#Z"/></g><path fill="#333" d="M110-194c64 0 96 36 96 99 0 64-35 99-97 99-61 0-95-36-95-99 0-62 34-99 96-99zm-1 164c35 0 45-28 45-65 0-40-10-65-43-65-34 0-45 26-45 65 0 36 10 65 43 65" id="al"/><g id="q"><use transform="matrix(0.04938271604938272,0,0,0.04938271604938272,0,0)" xlink:href="#ab"/><use transform="matrix(0.04938271604938272,0,0,0.04938271604938272,5.8765432098765435,0)" xlink:href="#al"/></g><g id="r"><use transform="matrix(0.06172839506172839,0,0,0.06172839506172839,0,0)" xlink:href="#J"/><use transform="matrix(0.06172839506172839,0,0,0.06172839506172839,15.987654320987653,0)" xlink:href="#K"/><use transform="matrix(0.06172839506172839,0,0,0.06172839506172839,28.333333333333332,0)" xlink:href="#L"/><use transform="matrix(0.06172839506172839,0,0,0.06172839506172839,40.67901234567901,0)" xlink:href="#M"/><use transform="matrix(0.06172839506172839,0,0,0.06172839506172839,46.851851851851855,0)" xlink:href="#N"/><use transform="matrix(0.06172839506172839,0,0,0.06172839506172839,54.19753086419753,0)" xlink:href="#K"/><use transform="matrix(0.06172839506172839,0,0,0.06172839506172839,66.54320987654322,0)" xlink:href="#O"/><use transform="matrix(0.06172839506172839,0,0,0.06172839506172839,71.41975308641976,0)" xlink:href="#I"/></g><path fill="#333" d="M30-248c87 1 191-15 191 75 0 78-77 80-158 76V0H30v-248zm33 125c57 0 124 11 124-50 0-59-68-47-124-48v98" id="am"/><path fill="#333" d="M24-231v-30h32v30H24zM24 0v-190h32V0H24" id="an"/><path fill="#333" d="M179-190L93 31C79 59 56 82 12 73V49c39 6 53-20 64-50L1-190h34L92-34l54-156h33" id="ao"/><g id="s"><use transform="matrix(0.06172839506172839,0,0,0.06172839506172839,0,0)" xlink:href="#am"/><use transform="matrix(0.06172839506172839,0,0,0.06172839506172839,14.814814814814813,0)" xlink:href="#K"/><use transform="matrix(0.06172839506172839,0,0,0.06172839506172839,27.160493827160494,0)" xlink:href="#O"/><use transform="matrix(0.06172839506172839,0,0,0.06172839506172839,32.03703703703704,0)" xlink:href="#an"/><use transform="matrix(0.06172839506172839,0,0,0.06172839506172839,36.91358024691358,0)" xlink:href="#G"/><use transform="matrix(0.06172839506172839,0,0,0.06172839506172839,48.0246913580247,0)" xlink:href="#ao"/></g><path fill="#333" d="M135-194c53 0 70 44 70 98 0 56-19 98-73 100-31 1-45-17-59-34 3 33 2 69 2 105H25l-1-265h48c2 10 0 23 3 31 11-24 29-35 60-35zM114-30c33 0 39-31 40-66 0-38-9-64-40-64-56 0-55 130 0 130" id="ap"/><path fill="#333" d="M195-6C206 82 75 100 31 46c-4-6-6-13-8-21l49-6c3 16 16 24 34 25 40 0 42-37 40-79-11 22-30 35-61 35-53 0-70-43-70-97 0-56 18-96 73-97 30 0 46 14 59 34l2-30h47zm-90-29c32 0 41-27 41-63 0-35-9-62-40-62-32 0-39 29-40 63 0 36 9 62 39 62" id="aq"/><g id="t"><use transform="matrix(0.04938271604938272,0,0,0.04938271604938272,0,0)" xlink:href="#ae"/><use transform="matrix(0.04938271604938272,0,0,0.04938271604938272,11.851851851851853,0)" xlink:href="#ac"/><use transform="matrix(0.04938271604938272,0,0,0.04938271604938272,18.765432098765434,0)" xlink:href="#al"/><use transform="matrix(0.04938271604938272,0,0,0.04938271604938272,29.58024691358025,0)" xlink:href="#ap"/><use transform="matrix(0.04938271604938272,0,0,0.04938271604938272,40.39506172839506,0)" xlink:href="#ak"/><use transform="matrix(0.04938271604938272,0,0,0.04938271604938272,50.27160493827161,0)" xlink:href="#aq"/><use transform="matrix(0.04938271604938272,0,0,0.04938271604938272,61.086419753086425,0)" xlink:href="#ak"/><use transform="matrix(0.04938271604938272,0,0,0.04938271604938272,70.96296296296296,0)" xlink:href="#ab"/><use transform="matrix(0.04938271604938272,0,0,0.04938271604938272,76.8395061728395,0)" xlink:href="#Y"/><use transform="matrix(0.04938271604938272,0,0,0.04938271604938272,86.71604938271605,0)" xlink:href="#X"/></g><g id="u"><use transform="matrix(0.04938271604938272,0,0,0.04938271604938272,0,0)" xlink:href="#ap"/><use transform="matrix(0.04938271604938272,0,0,0.04938271604938272,10.814814814814815,0)" xlink:href="#ac"/><use transform="matrix(0.04938271604938272,0,0,0.04938271604938272,17.728395061728396,0)" xlink:href="#al"/><use transform="matrix(0.04938271604938272,0,0,0.04938271604938272,28.543209876543205,0)" xlink:href="#ap"/><use transform="matrix(0.04938271604938272,0,0,0.04938271604938272,39.358024691358025,0)" xlink:href="#ak"/><use transform="matrix(0.04938271604938272,0,0,0.04938271604938272,49.23456790123457,0)" xlink:href="#aq"/><use transform="matrix(0.04938271604938272,0,0,0.04938271604938272,60.04938271604939,0)" xlink:href="#ak"/><use transform="matrix(0.04938271604938272,0,0,0.04938271604938272,69.92592592592592,0)" xlink:href="#ab"/><use transform="matrix(0.04938271604938272,0,0,0.04938271604938272,75.80246913580247,0)" xlink:href="#Y"/><use transform="matrix(0.04938271604938272,0,0,0.04938271604938272,85.67901234567901,0)" xlink:href="#X"/></g><g id="v"><use transform="matrix(0.04938271604938272,0,0,0.04938271604938272,0,0)" xlink:href="#ak"/><use transform="matrix(0.04938271604938272,0,0,0.04938271604938272,9.876543209876544,0)" xlink:href="#U"/><use transform="matrix(0.04938271604938272,0,0,0.04938271604938272,19.75308641975309,0)" xlink:href="#U"/><use transform="matrix(0.04938271604938272,0,0,0.04938271604938272,29.629629629629633,0)" xlink:href="#Y"/><use transform="matrix(0.04938271604938272,0,0,0.04938271604938272,39.50617283950618,0)" xlink:href="#Z"/><use transform="matrix(0.04938271604938272,0,0,0.04938271604938272,49.38271604938272,0)" xlink:href="#Z"/></g><g id="w"><use transform="matrix(0.04938271604938272,0,0,0.04938271604938272,0,0)" xlink:href="#ab"/><use transform="matrix(0.04938271604938272,0,0,0.04938271604938272,5.8765432098765435,0)" xlink:href="#al"/></g><path fill="#333" d="M67-125c0 53 21 87 73 88 37 1 54-22 65-47l45 17C233-25 199 4 140 4 58 4 20-42 15-125 8-235 124-281 211-232c18 10 29 29 36 50l-46 12c-8-25-30-41-62-41-52 0-71 34-72 86" id="ar"/><path fill="#333" d="M240-174c0 40-23 61-54 70L253 0h-59l-57-94H76V0H24v-248c93 4 217-23 216 74zM76-134c48-2 112 12 112-38 0-48-66-32-112-35v73" id="as"/><g id="x"><use transform="matrix(0.04938271604938272,0,0,0.04938271604938272,0,0)" xlink:href="#aj"/><use transform="matrix(0.04938271604938272,0,0,0.04938271604938272,12.790123456790125,0)" xlink:href="#ar"/><use transform="matrix(0.04938271604938272,0,0,0.04938271604938272,25.58024691358025,0)" xlink:href="#as"/></g><g id="y"><use transform="matrix(0.04938271604938272,0,0,0.04938271604938272,0,0)" xlink:href="#ae"/><use transform="matrix(0.04938271604938272,0,0,0.04938271604938272,11.851851851851853,0)" xlink:href="#ac"/><use transform="matrix(0.04938271604938272,0,0,0.04938271604938272,18.765432098765434,0)" xlink:href="#al"/><use transform="matrix(0.04938271604938272,0,0,0.04938271604938272,29.58024691358025,0)" xlink:href="#ab"/><use transform="matrix(0.04938271604938272,0,0,0.04938271604938272,35.45679012345679,0)" xlink:href="#Y"/><use transform="matrix(0.04938271604938272,0,0,0.04938271604938272,45.333333333333336,0)" xlink:href="#U"/><use transform="matrix(0.04938271604938272,0,0,0.04938271604938272,55.20987654320988,0)" xlink:href="#ab"/><use transform="matrix(0.04938271604938272,0,0,0.04938271604938272,61.086419753086425,0)" xlink:href="#Y"/><use transform="matrix(0.04938271604938272,0,0,0.04938271604938272,70.96296296296296,0)" xlink:href="#X"/></g><g id="z"><use transform="matrix(0.04938271604938272,0,0,0.04938271604938272,0,0)" xlink:href="#ap"/><use transform="matrix(0.04938271604938272,0,0,0.04938271604938272,10.814814814814815,0)" xlink:href="#ac"/><use transform="matrix(0.04938271604938272,0,0,0.04938271604938272,17.728395061728396,0)" xlink:href="#al"/><use transform="matrix(0.04938271604938272,0,0,0.04938271604938272,28.543209876543205,0)" xlink:href="#ab"/><use transform="matrix(0.04938271604938272,0,0,0.04938271604938272,34.41975308641975,0)" xlink:href="#Y"/><use transform="matrix(0.04938271604938272,0,0,0.04938271604938272,44.2962962962963,0)" xlink:href="#U"/><use transform="matrix(0.04938271604938272,0,0,0.04938271604938272,54.17283950617284,0)" xlink:href="#ab"/><use transform="matrix(0.04938271604938272,0,0,0.04938271604938272,60.04938271604939,0)" xlink:href="#Y"/><use transform="matrix(0.04938271604938272,0,0,0.04938271604938272,69.92592592592592,0)" xlink:href="#X"/></g><g id="A"><use transform="matrix(0.04938271604938272,0,0,0.04938271604938272,0,0)" xlink:href="#ap"/><use transform="matrix(0.04938271604938272,0,0,0.04938271604938272,10.814814814814815,0)" xlink:href="#ac"/><use transform="matrix(0.04938271604938272,0,0,0.04938271604938272,17.728395061728396,0)" xlink:href="#al"/><use transform="matrix(0.04938271604938272,0,0,0.04938271604938272,28.543209876543205,0)" xlink:href="#ab"/><use transform="matrix(0.04938271604938272,0,0,0.04938271604938272,34.41975308641975,0)" xlink:href="#Y"/><use transform="matrix(0.04938271604938272,0,0,0.04938271604938272,44.2962962962963,0)" xlink:href="#U"/><use transform="matrix(0.04938271604938272,0,0,0.04938271604938272,54.17283950617284,0)" xlink:href="#ab"/><use transform="matrix(0.04938271604938272,0,0,0.04938271604938272,60.04938271604939,0)" xlink:href="#Y"/><use transform="matrix(0.04938271604938272,0,0,0.04938271604938272,69.92592592592592,0)" xlink:href="#X"/></g><g id="B"><use transform="matrix(0.04938271604938272,0,0,0.04938271604938272,0,0)" xlink:href="#ab"/><use transform="matrix(0.04938271604938272,0,0,0.04938271604938272,5.8765432098765435,0)" xlink:href="#al"/></g><path fill="#333" d="M24 0v-248h52v208h133V0H24" id="at"/><path fill="#333" d="M147 0L96-86 75-71V0H25v-261h50v150l67-79h53l-66 74L201 0h-54" id="au"/><g id="C"><use transform="matrix(0.04938271604938272,0,0,0.04938271604938272,0,0)" xlink:href="#at"/><use transform="matrix(0.04938271604938272,0,0,0.04938271604938272,10.814814814814815,0)" xlink:href="#al"/><use transform="matrix(0.04938271604938272,0,0,0.04938271604938272,21.62962962962963,0)" xlink:href="#U"/><use transform="matrix(0.04938271604938272,0,0,0.04938271604938272,31.506172839506174,0)" xlink:href="#au"/><use transform="matrix(0.04938271604938272,0,0,0.04938271604938272,41.38271604938272,0)" xlink:href="#Y"/><use transform="matrix(0.04938271604938272,0,0,0.04938271604938272,51.25925925925927,0)" xlink:href="#X"/></g><g id="D"><use transform="matrix(0.04938271604938272,0,0,0.04938271604938272,0,0)" xlink:href="#V"/><use transform="matrix(0.04938271604938272,0,0,0.04938271604938272,4.938271604938272,0)" xlink:href="#al"/><use transform="matrix(0.04938271604938272,0,0,0.04938271604938272,15.753086419753087,0)" xlink:href="#U"/><use transform="matrix(0.04938271604938272,0,0,0.04938271604938272,25.629629629629633,0)" xlink:href="#au"/><use transform="matrix(0.04938271604938272,0,0,0.04938271604938272,35.50617283950618,0)" xlink:href="#Y"/><use transform="matrix(0.04938271604938272,0,0,0.04938271604938272,45.38271604938272,0)" xlink:href="#X"/></g><g id="E"><use transform="matrix(0.04938271604938272,0,0,0.04938271604938272,0,0)" xlink:href="#V"/><use transform="matrix(0.04938271604938272,0,0,0.04938271604938272,4.938271604938272,0)" xlink:href="#al"/><use transform="matrix(0.04938271604938272,0,0,0.04938271604938272,15.753086419753087,0)" xlink:href="#U"/><use transform="matrix(0.04938271604938272,0,0,0.04938271604938272,25.629629629629633,0)" xlink:href="#au"/><use transform="matrix(0.04938271604938272,0,0,0.04938271604938272,35.50617283950618,0)" xlink:href="#Y"/><use transform="matrix(0.04938271604938272,0,0,0.04938271604938272,45.38271604938272,0)" xlink:href="#X"/></g></defs></g></svg>