<svg xmlns="http://www.w3.org/2000/svg" xmlns:xlink="http://www.w3.org/1999/xlink" xmlns:lucid="lucid" width="1050.67" height="943.33"><g transform="translate(-380 2780)" lucid:page-tab-id="2CHKCvAesxzA"><path d="M1033.4-2158.62V-1960" stroke="#5e5e5e" stroke-width="2" fill="none"/><path d="M1043.4-2197.17l-10 20-10-20M1033.4-2197.17v20M1043.4-2167.17c0 5.52-4.47 10-10 10-5.5 0-10-4.48-10-10s4.5-10 10-10c5.53 0 10 4.48 10 10M1023.4-1921.45l10-20 10 20M1033.4-1921.45v-20M1043.4-1951.45c0 5.53-4.47 10-10 10-5.5 0-10-4.47-10-10 0-5.52 4.5-10 10-10 5.53 0 10 4.48 10 10" stroke="#5e5e5e" stroke-width="2" fill="#fff"/><use xlink:href="#a" transform="matrix(1,0,0,1,947.4835978835473,-2155.5162792483593) translate(0 14.222222222222223)"/><use xlink:href="#b" transform="matrix(1,0,0,1,1041.4095238094733,-1964.9280528470065) translate(0 14.222222222222223)"/><use xlink:href="#c" transform="matrix(1,0,0,1,1041.4095238094733,-1964.9280528470065) translate(83.80246913580248 14.222222222222223)"/><path d="M891.75-2292.62H640" stroke="#5e5e5e" stroke-width="2" fill="none"/><path d="M930.3-2282.62l-20-10 20-10M930.3-2292.62h-20M910.3-2292.62c0 5.52-4.47 10-10 10-5.52 0-10-4.48-10-10s4.48-10 10-10c5.53 0 10 4.48 10 10M601.45-2302.62l20 10-20 10M601.45-2292.62h20M641.45-2292.62c0 5.52-4.48 10-10 10-5.53 0-10-4.48-10-10s4.47-10 10-10c5.52 0 10 4.48 10 10" stroke="#5e5e5e" stroke-width="2" fill="#fff"/><use xlink:href="#a" transform="matrix(1,0,0,1,813.3574402137097,-2317.951256092988) translate(0 14.222222222222223)"/><use xlink:href="#b" transform="matrix(1,0,0,1,635.9704134888601,-2288.617922759655) translate(0 14.222222222222223)"/><use xlink:href="#c" transform="matrix(1,0,0,1,635.9704134888601,-2288.617922759655) translate(83.80246913580248 14.222222222222223)"/><path d="M1304.33-2534.18l-.92 3.42-2.52 2.53-3.4.92h-245.02l-2.65.7-1.76 1.78-.72 2.64v95.56h-2v-95.82l.93-3.42 2.53-2.53 3.4-.9h245.02l2.64-.72 1.78-1.78.7-2.64V-2630h2z" fill="#5e5e5e"/><path d="M1036.32-2388.07l10-20 10 20z" fill="#fff"/><path d="M1057.22-2388.5l-1.8.88-9.1-18.2-9.1 18.2-1.8-.9 10.9-21.78z" fill="#5e5e5e"/><path fill="#fff"/><path d="M1047.32-2388.07h-2v-20h2z" fill="#5e5e5e"/><path d="M1056.32-2418.07l-.5 3.17-1.43 2.74-2.17 2.17-2.75 1.43-3.16.5-3.16-.5-2.74-1.42-2.17-2.16-1.42-2.74-.5-3.17.5-3.16 1.42-2.74 2.17-2.17 2.74-1.42 3.16-.5 3.16.5 2.75 1.42 2.16 2.17 1.4 2.74.52 3.16z" fill="#fff"/><path d="M1049.8-2428.52l3.03 1.57 2.38 2.38 1.58 3.03.53 3.32-.98.15 1 .16-.54 3.3-1.57 3.04-2.37 2.38-3.03 1.57-3.48.55-3.47-.56-3.03-1.58-2.38-2.38-1.57-3.03-.56-3.47.57-3.47 1.57-3.03 2.38-2.38 3.03-1.57 3.47-.56zm-6.32 1.93l-2.46 1.28-1.95 1.95-1.27 2.46-.46 2.83.46 2.85 1.27 2.46 1.95 1.95 2.46 1.26 2.84.46 2.85-.46 2.46-1.27 1.95-1.96 1.27-2.46.46-2.85-.45-2.84-1.27-2.47-1.95-1.95-2.46-1.27-2.85-.45z" fill="#5e5e5e"/><path fill="#fff"/><path d="M1313.33-2658h-20v-2h20z" fill="#5e5e5e"/><path fill="#fff"/><path d="M1304.33-2649h-2v-20h2z" fill="#5e5e5e"/><path d="M1313.33-2639l-.5 3.16-1.43 2.75-2.16 2.17-2.75 1.42-3.17.5-3.16-.5-2.74-1.43-2.17-2.16-1.42-2.74-.5-3.16.5-3.16 1.42-2.75 2.17-2.17 2.74-1.42 3.16-.5 3.16.5 2.74 1.43 2.16 2.16 1.42 2.74.5 3.16z" fill="#fff"/><path d="M1306.8-2649.45l3.04 1.56 2.38 2.4 1.57 3.02.52 3.32-1 .16 1 .16-.53 3.32-1.58 3.02-2.38 2.4-3.03 1.55-3.47.56-3.47-.55-3.03-1.56-2.38-2.4-1.57-3.02-.56-3.48.56-3.48 1.57-3.02 2.38-2.4 3.03-1.55 3.47-.56zm-6.3 1.92l-2.48 1.28-1.94 1.94-1.28 2.46-.45 2.84.45 2.84 1.28 2.47 1.94 1.95 2.47 1.28 2.83.46 2.85-.47 2.46-1.28 1.95-1.94 1.26-2.46.46-2.84-.46-2.84-1.27-2.47-1.96-1.95-2.46-1.28-2.85-.46z" fill="#5e5e5e"/><use xlink:href="#a" transform="matrix(1,0,0,1,1068.1310213290826,-2524.308961379827) translate(0 14.222222222222223)"/><use xlink:href="#b" transform="matrix(1,0,0,1,1311.333333333333,-2632.4274465691783) translate(0 14.222222222222223)"/><use xlink:href="#c" transform="matrix(1,0,0,1,1311.333333333333,-2632.4274465691783) translate(83.80246913580248 14.222222222222223)"/><path d="M741-2543l.7 2.63 1.8 1.78 2.63.72h236.33l3.4.92 2.54 2.53.92 3.42v104.38h-2v-104.13l-.7-2.64-1.8-1.76-2.63-.72H745.86l-3.42-.92-2.53-2.53-.92-3.42v-104.4h2z" fill="#5e5e5e"/><path d="M978.32-2388.07l10-20 10 20z" fill="#fff"/><path d="M999.22-2388.5l-1.8.88-9.1-18.2-9.1 18.2-1.8-.9 10.9-21.78z" fill="#5e5e5e"/><path fill="#fff"/><path d="M989.32-2388.07h-2v-20h2z" fill="#5e5e5e"/><path d="M998.32-2418.07l-.5 3.17-1.43 2.74-2.17 2.17-2.75 1.43-3.16.5-3.16-.5-2.74-1.42-2.17-2.16-1.42-2.74-.5-3.17.5-3.16 1.42-2.74 2.17-2.17 2.74-1.42 3.16-.5 3.16.5 2.75 1.42 2.16 2.17 1.4 2.74.52 3.16z" fill="#fff"/><path d="M991.8-2428.52l3.03 1.57 2.38 2.38 1.58 3.03.53 3.32-.98.15 1 .16-.54 3.3-1.57 3.04-2.37 2.38-3.03 1.57-3.48.55-3.47-.56-3.03-1.58-2.38-2.38-1.57-3.03-.56-3.47.57-3.47 1.57-3.03 2.38-2.38 3.03-1.57 3.47-.56zm-6.32 1.93l-2.46 1.28-1.95 1.95-1.27 2.46-.46 2.83.46 2.85 1.27 2.46 1.95 1.95 2.46 1.26 2.84.46 2.85-.46 2.46-1.27 1.95-1.96 1.27-2.46.46-2.85-.45-2.84-1.27-2.47-1.95-1.95-2.46-1.27-2.85-.45z" fill="#5e5e5e"/><path fill="#fff"/><path d="M750-2675.14h-20v-2h20z" fill="#5e5e5e"/><path fill="#fff"/><path d="M741-2666.14h-2v-20h2z" fill="#5e5e5e"/><path d="M750-2656.14l-.5 3.16-1.43 2.74-2.16 2.17-2.74 1.42-3.16.5-3.16-.5-2.75-1.42-2.17-2.17-1.42-2.74-.5-3.16.5-3.16 1.43-2.75 2.16-2.16 2.74-1.43 3.16-.5 3.16.5 2.75 1.42 2.17 2.15 1.42 2.75.5 3.16z" fill="#fff"/><path d="M743.48-2666.6l3.02 1.57 2.4 2.4 1.55 3 .54 3.33-1 .16 1 .16-.55 3.32-1.56 3.02-2.4 2.4-3.02 1.55-3.48.57-3.48-.56-3.02-1.55-2.4-2.4-1.55-3-.56-3.5.55-3.47 1.56-3.02 2.4-2.4 3.02-1.55 3.48-.55zm-6.32 1.93l-2.47 1.27-1.95 1.95-1.28 2.46-.46 2.86.47 2.84 1.28 2.47 1.94 1.94 2.46 1.3 2.84.45 2.84-.46 2.47-1.3 1.95-1.93 1.28-2.47.46-2.84-.47-2.85-1.28-2.45-1.94-1.95-2.46-1.27-2.84-.46z" fill="#5e5e5e"/><use xlink:href="#a" transform="matrix(1,0,0,1,902.3978835978334,-2514.176938511775) translate(0 14.222222222222223)"/><use xlink:href="#b" transform="matrix(1,0,0,1,627.5061728395062,-2636.4274465691783) translate(0 14.222222222222223)"/><use xlink:href="#c" transform="matrix(1,0,0,1,627.5061728395062,-2636.4274465691783) translate(83.80246913580248 14.222222222222223)"/><path d="M1017.8-2535.54v108.92h-2v-118.47h2zm.02-108.93v78.05h-2v-78.06z" fill="#5e5e5e"/><path d="M1006.8-2388.07l10-20 10 20z" fill="#fff"/><path d="M1027.7-2388.5l-1.8.88-9.1-18.2-9.1 18.2-1.8-.9 10.9-21.78z" fill="#5e5e5e"/><path fill="#fff"/><path d="M1017.8-2388.07h-2v-20h2z" fill="#5e5e5e"/><path d="M1026.8-2418.07l-.5 3.17-1.42 2.74-2.17 2.17-2.73 1.43-3.16.5-3.15-.5-2.75-1.42-2.16-2.16-1.42-2.74-.5-3.17.5-3.16 1.42-2.74 2.16-2.17 2.75-1.42 3.16-.5 3.17.5 2.74 1.42 2.18 2.17 1.42 2.74.5 3.16z" fill="#fff"/><path d="M1020.28-2428.52l3.03 1.57 2.4 2.38 1.56 3.03.53 3.32-1 .15 1 .16-.54 3.3-1.57 3.04-2.4 2.38-3.02 1.57-3.47.55-3.47-.56-3.03-1.58-2.38-2.38-1.57-3.03-.56-3.47.55-3.47 1.57-3.03 2.38-2.38 3.03-1.57 3.48-.56zm-6.32 1.93l-2.46 1.28-1.95 1.95-1.27 2.46-.46 2.83.46 2.85 1.27 2.46 1.95 1.95 2.46 1.26 2.85.46 2.85-.46 2.47-1.27 1.94-1.96 1.27-2.46.46-2.85-.47-2.84-1.27-2.47-1.94-1.95-2.47-1.27-2.84-.45z" fill="#5e5e5e"/><path fill="#fff"/><path d="M1026.82-2672.48h-20v-2h20z" fill="#5e5e5e"/><path fill="#fff"/><path d="M1017.82-2663.48h-2v-20h2z" fill="#5e5e5e"/><path d="M1026.82-2653.48l-.5 3.17-1.43 2.73-2.18 2.17-2.74 1.42-3.16.5-3.16-.5-2.75-1.42-2.15-2.17-1.42-2.74-.5-3.18.5-3.16 1.42-2.74 2.16-2.17 2.76-1.42 3.16-.5 3.16.5 2.74 1.42 2.17 2.17 1.4 2.74.52 3.16z" fill="#fff"/><path d="M1020.3-2663.93l3.02 1.57 2.4 2.38 1.55 3.03.54 3.32-.98.15 1 .16-.55 3.32-1.56 3.03-2.38 2.38-3.02 1.58-3.48.56-3.48-.56-3.02-1.57-2.4-2.37-1.55-3.03-.56-3.48.57-3.47 1.56-3.03 2.4-2.38 3-1.57 3.5-.56zm-6.32 1.93l-2.47 1.27-1.93 1.95-1.28 2.46-.47 2.84.46 2.85 1.27 2.46 1.94 1.95 2.48 1.27 2.84.46 2.84-.45 2.47-1.27 1.94-1.95 1.28-2.46.46-2.85-.45-2.84-1.28-2.46-1.94-1.95-2.47-1.27-2.84-.46z" fill="#5e5e5e"/><use xlink:href="#a" transform="matrix(1,0,0,1,977.8559036814027,-2566.419109486789) translate(0 14.222222222222223)"/><use xlink:href="#b" transform="matrix(1,0,0,1,904.3250394838718,-2648.0641926518356) translate(0 14.222222222222223)"/><use xlink:href="#c" transform="matrix(1,0,0,1,904.3250394838718,-2648.0641926518356) translate(83.80246913580248 14.222222222222223)"/><path d="M640-2744.48c0-3.3 2.7-6 6-6h188c3.3 0 6 2.7 6 6v51.34c0 3.3-2.7 6-6 6H646c-3.3 0-6-2.7-6-6z" stroke="#5e5e5e" stroke-width="2" fill="#fff"/><use xlink:href="#d" transform="matrix(1,0,0,1,645,-2745.4750656167976) translate(32.71604938271605 31.27777777777778)"/><use xlink:href="#e" transform="matrix(1,0,0,1,645,-2745.4750656167976) translate(99.25925925925925 31.27777777777778)"/><path d="M918.67-2741.8c0-3.32 2.68-6 6-6h188c3.3 0 6 2.68 6 6v51.32c0 3.32-2.7 6-6 6h-188c-3.32 0-6-2.68-6-6z" stroke="#5e5e5e" stroke-width="2" fill="#fff"/><use xlink:href="#f" transform="matrix(1,0,0,1,923.6666666666666,-2742.808398950131) translate(27.129629629629633 17.77777777777778)"/><use xlink:href="#e" transform="matrix(1,0,0,1,923.6666666666666,-2742.808398950131) translate(65.98765432098766 44.44444444444444)"/><path d="M1196-2754c0-3.3 2.7-6 6-6h202.67c3.3 0 6 2.7 6 6v78c0 3.3-2.7 6-6 6H1202c-3.3 0-6-2.7-6-6z" stroke="#5e5e5e" stroke-width="2" fill="#fff"/><use xlink:href="#g" transform="matrix(1,0,0,1,1200.9999999999998,-2755) translate(33.456790123456784 45.27777777777778)"/><use xlink:href="#e" transform="matrix(1,0,0,1,1200.9999999999998,-2755) translate(113.51851851851852 45.27777777777778)"/><path d="M931.75-2336.62c0-27.6 22.4-50 50-50h100c27.62 0 50 22.4 50 50v88c0 27.62-22.38 50-50 50h-100c-27.6 0-50-22.38-50-50z" stroke="#5e5e5e" stroke-width="2" fill="#fff"/><g><use xlink:href="#h" transform="matrix(1,0,0,1,936.7523809522777,-2381.617922759655) translate(27.777777777777786 95.65277777777777)"/><use xlink:href="#i" transform="matrix(1,0,0,1,936.7523809522777,-2381.617922759655) translate(105.55555555555556 95.65277777777777)"/></g><path d="M932-1914c0-3.3 2.7-6 6-6h188c3.3 0 6 2.7 6 6v51.33c0 3.32-2.7 6-6 6H938c-3.3 0-6-2.68-6-6z" stroke="#5e5e5e" stroke-width="2" fill="#fff"/><g><use xlink:href="#j" transform="matrix(1,0,0,1,936.9999999999998,-1915) translate(65.98765432098766 31.27777777777778)"/></g><path d="M400-2336.62c0-27.6 22.4-50 50-50h100c27.6 0 50 22.4 50 50v88c0 27.62-22.4 50-50 50H450c-27.6 0-50-22.38-50-50z" stroke="#5e5e5e" stroke-width="2" fill="#fff"/><g><use xlink:href="#k" transform="matrix(1,0,0,1,405,-2381.617922759655) translate(64.16666666666667 95.65277777777777)"/></g><defs><path fill="#333" d="M169-182c-1-43-94-46-97-3 18 66 151 10 154 114 3 95-165 93-204 36-6-8-10-19-12-30l50-8c3 46 112 56 116 5-17-69-150-10-154-114-4-87 153-88 188-35 5 8 8 18 10 28" id="l"/><path fill="#333" d="M135-194c53 0 70 44 70 98 0 56-19 98-73 100-31 1-45-17-59-34 3 33 2 69 2 105H25l-1-265h48c2 10 0 23 3 31 11-24 29-35 60-35zM114-30c33 0 39-31 40-66 0-38-9-64-40-64-56 0-55 130 0 130" id="m"/><path fill="#333" d="M185-48c-13 30-37 53-82 52C43 2 14-33 14-96s30-98 90-98c62 0 83 45 84 108H66c0 31 8 55 39 56 18 0 30-7 34-22zm-45-69c5-46-57-63-70-21-2 6-4 13-4 21h74" id="n"/><path fill="#333" d="M190-63c-7 42-38 67-86 67-59 0-84-38-90-98-12-110 154-137 174-36l-49 2c-2-19-15-32-35-32-30 0-35 28-38 64-6 74 65 87 74 30" id="o"/><path fill="#333" d="M25-224v-37h50v37H25zM25 0v-190h50V0H25" id="p"/><path fill="#333" d="M121-226c-27-7-43 5-38 36h38v33H83V0H34v-157H6v-33h28c-9-59 32-81 87-68v32" id="q"/><path fill="#333" d="M137-138c1-29-70-34-71-4 15 46 118 7 119 86 1 83-164 76-172 9l43-7c4 19 20 25 44 25 33 8 57-30 24-41C81-84 22-81 20-136c-2-80 154-74 161-7" id="r"/><g id="a"><use transform="matrix(0.04938271604938272,0,0,0.04938271604938272,0,0)" xlink:href="#l"/><use transform="matrix(0.04938271604938272,0,0,0.04938271604938272,11.851851851851853,0)" xlink:href="#m"/><use transform="matrix(0.04938271604938272,0,0,0.04938271604938272,22.666666666666668,0)" xlink:href="#n"/><use transform="matrix(0.04938271604938272,0,0,0.04938271604938272,32.543209876543216,0)" xlink:href="#o"/><use transform="matrix(0.04938271604938272,0,0,0.04938271604938272,42.41975308641976,0)" xlink:href="#p"/><use transform="matrix(0.04938271604938272,0,0,0.04938271604938272,47.35802469135803,0)" xlink:href="#q"/><use transform="matrix(0.04938271604938272,0,0,0.04938271604938272,53.23456790123457,0)" xlink:href="#p"/><use transform="matrix(0.04938271604938272,0,0,0.04938271604938272,58.17283950617284,0)" xlink:href="#n"/><use transform="matrix(0.04938271604938272,0,0,0.04938271604938272,68.0493827160494,0)" xlink:href="#r"/></g><path fill="#333" d="M88-194c31-1 46 15 58 34l-1-101h50l1 261h-48c-2-10 0-23-3-31C134-8 116 4 84 4 32 4 16-41 15-95c0-56 19-97 73-99zm17 164c33 0 40-30 41-66 1-37-9-64-41-64s-38 30-39 65c0 43 13 65 39 65" id="s"/><g id="b"><use transform="matrix(0.04938271604938272,0,0,0.04938271604938272,0,0)" xlink:href="#l"/><use transform="matrix(0.04938271604938272,0,0,0.04938271604938272,11.851851851851853,0)" xlink:href="#m"/><use transform="matrix(0.04938271604938272,0,0,0.04938271604938272,22.666666666666668,0)" xlink:href="#n"/><use transform="matrix(0.04938271604938272,0,0,0.04938271604938272,32.543209876543216,0)" xlink:href="#o"/><use transform="matrix(0.04938271604938272,0,0,0.04938271604938272,42.41975308641976,0)" xlink:href="#p"/><use transform="matrix(0.04938271604938272,0,0,0.04938271604938272,47.35802469135803,0)" xlink:href="#q"/><use transform="matrix(0.04938271604938272,0,0,0.04938271604938272,53.23456790123457,0)" xlink:href="#p"/><use transform="matrix(0.04938271604938272,0,0,0.04938271604938272,58.17283950617284,0)" xlink:href="#n"/><use transform="matrix(0.04938271604938272,0,0,0.04938271604938272,68.0493827160494,0)" xlink:href="#s"/></g><path fill="#333" d="M135-194c52 0 70 43 70 98 0 56-19 99-73 100-30 1-46-15-58-35L72 0H24l1-261h50v104c11-23 29-37 60-37zM114-30c31 0 40-27 40-66 0-37-7-63-39-63s-41 28-41 65c0 36 8 64 40 64" id="t"/><path fill="#333" d="M123 10C108 53 80 86 19 72V37c35 8 53-11 59-39L3-190h52l48 148c12-52 28-100 44-148h51" id="u"/><g id="c"><use transform="matrix(0.04938271604938272,0,0,0.04938271604938272,0,0)" xlink:href="#t"/><use transform="matrix(0.04938271604938272,0,0,0.04938271604938272,10.814814814814815,0)" xlink:href="#u"/></g><path fill="#333" d="M30-248c87 1 191-15 191 75 0 78-77 80-158 76V0H30v-248zm33 125c57 0 124 11 124-50 0-59-68-47-124-48v98" id="v"/><path fill="#333" d="M84 4C-5 8 30-112 23-190h32v120c0 31 7 50 39 49 72-2 45-101 50-169h31l1 190h-30c-1-10 1-25-2-33-11 22-28 36-60 37" id="w"/><path fill="#333" d="M115-194c53 0 69 39 70 98 0 66-23 100-70 100C84 3 66-7 56-30L54 0H23l1-261h32v101c10-23 28-34 59-34zm-8 174c40 0 45-34 45-75 0-40-5-75-45-74-42 0-51 32-51 76 0 43 10 73 51 73" id="x"/><path fill="#333" d="M24 0v-261h32V0H24" id="y"/><path fill="#333" d="M24-231v-30h32v30H24zM24 0v-190h32V0H24" id="z"/><path fill="#333" d="M96-169c-40 0-48 33-48 73s9 75 48 75c24 0 41-14 43-38l32 2c-6 37-31 61-74 61-59 0-76-41-82-99-10-93 101-131 147-64 4 7 5 14 7 22l-32 3c-4-21-16-35-41-35" id="A"/><g id="d"><use transform="matrix(0.06172839506172839,0,0,0.06172839506172839,0,0)" xlink:href="#v"/><use transform="matrix(0.06172839506172839,0,0,0.06172839506172839,14.814814814814813,0)" xlink:href="#w"/><use transform="matrix(0.06172839506172839,0,0,0.06172839506172839,27.160493827160494,0)" xlink:href="#x"/><use transform="matrix(0.06172839506172839,0,0,0.06172839506172839,39.50617283950617,0)" xlink:href="#y"/><use transform="matrix(0.06172839506172839,0,0,0.06172839506172839,44.382716049382715,0)" xlink:href="#z"/><use transform="matrix(0.06172839506172839,0,0,0.06172839506172839,49.25925925925926,0)" xlink:href="#A"/></g><path fill="#333" d="M205 0l-28-72H64L36 0H1l101-248h38L239 0h-34zm-38-99l-47-123c-12 45-31 82-46 123h93" id="B"/><path fill="#333" d="M177-190C167-65 218 103 67 71c-23-6-38-20-44-43l32-5c15 47 100 32 89-28v-30C133-14 115 1 83 1 29 1 15-40 15-95c0-56 16-97 71-98 29-1 48 16 59 35 1-10 0-23 2-32h30zM94-22c36 0 50-32 50-73 0-42-14-75-50-75-39 0-46 34-46 75s6 73 46 73" id="C"/><path fill="#333" d="M100-194c63 0 86 42 84 106H49c0 40 14 67 53 68 26 1 43-12 49-29l28 8c-11 28-37 45-77 45C44 4 14-33 15-96c1-61 26-98 85-98zm52 81c6-60-76-77-97-28-3 7-6 17-6 28h103" id="D"/><path fill="#333" d="M117-194c89-4 53 116 60 194h-32v-121c0-31-8-49-39-48C34-167 62-67 57 0H25l-1-190h30c1 10-1 24 2 32 11-22 29-35 61-36" id="E"/><path fill="#333" d="M59-47c-2 24 18 29 38 22v24C64 9 27 4 27-40v-127H5v-23h24l9-43h21v43h35v23H59v120" id="F"/><g id="e"><use transform="matrix(0.06172839506172839,0,0,0.06172839506172839,0,0)" xlink:href="#B"/><use transform="matrix(0.06172839506172839,0,0,0.06172839506172839,14.814814814814813,0)" xlink:href="#C"/><use transform="matrix(0.06172839506172839,0,0,0.06172839506172839,27.160493827160494,0)" xlink:href="#D"/><use transform="matrix(0.06172839506172839,0,0,0.06172839506172839,39.50617283950617,0)" xlink:href="#E"/><use transform="matrix(0.06172839506172839,0,0,0.06172839506172839,51.85185185185185,0)" xlink:href="#F"/></g><path fill="#333" d="M106-169C34-169 62-67 57 0H25v-261h32l-1 103c12-21 28-36 61-36 89 0 53 116 60 194h-32v-121c2-32-8-49-39-48" id="G"/><path fill="#333" d="M141-36C126-15 110 5 73 4 37 3 15-17 15-53c-1-64 63-63 125-63 3-35-9-54-41-54-24 1-41 7-42 31l-33-3c5-37 33-52 76-52 45 0 72 20 72 64v82c-1 20 7 32 28 27v20c-31 9-61-2-59-35zM48-53c0 20 12 33 32 33 41-3 63-29 60-74-43 2-92-5-92 41" id="H"/><path fill="#333" d="M85-194c31 0 48 13 60 33l-1-100h32l1 261h-30c-2-10 0-23-3-31C134-8 116 4 85 4 32 4 16-35 15-94c0-66 23-100 70-100zm9 24c-40 0-46 34-46 75 0 40 6 74 45 74 42 0 51-32 51-76 0-42-9-74-50-73" id="I"/><g id="f"><use transform="matrix(0.06172839506172839,0,0,0.06172839506172839,0,0)" xlink:href="#B"/><use transform="matrix(0.06172839506172839,0,0,0.06172839506172839,14.814814814814813,0)" xlink:href="#w"/><use transform="matrix(0.06172839506172839,0,0,0.06172839506172839,27.160493827160494,0)" xlink:href="#F"/><use transform="matrix(0.06172839506172839,0,0,0.06172839506172839,33.333333333333336,0)" xlink:href="#G"/><use transform="matrix(0.06172839506172839,0,0,0.06172839506172839,45.67901234567901,0)" xlink:href="#D"/><use transform="matrix(0.06172839506172839,0,0,0.06172839506172839,58.02469135802469,0)" xlink:href="#E"/><use transform="matrix(0.06172839506172839,0,0,0.06172839506172839,70.37037037037037,0)" xlink:href="#F"/><use transform="matrix(0.06172839506172839,0,0,0.06172839506172839,76.5432098765432,0)" xlink:href="#z"/><use transform="matrix(0.06172839506172839,0,0,0.06172839506172839,81.41975308641975,0)" xlink:href="#A"/><use transform="matrix(0.06172839506172839,0,0,0.06172839506172839,92.53086419753086,0)" xlink:href="#H"/><use transform="matrix(0.06172839506172839,0,0,0.06172839506172839,104.87654320987654,0)" xlink:href="#F"/><use transform="matrix(0.06172839506172839,0,0,0.06172839506172839,111.04938271604938,0)" xlink:href="#D"/><use transform="matrix(0.06172839506172839,0,0,0.06172839506172839,123.39506172839506,0)" xlink:href="#I"/></g><path fill="#333" d="M212-179c-10-28-35-45-73-45-59 0-87 40-87 99 0 60 29 101 89 101 43 0 62-24 78-52l27 14C228-24 195 4 139 4 59 4 22-46 18-125c-6-104 99-153 187-111 19 9 31 26 39 46" id="J"/><path fill="#333" d="M114-163C36-179 61-72 57 0H25l-1-190h30c1 12-1 29 2 39 6-27 23-49 58-41v29" id="K"/><path fill="#333" d="M100-194c62-1 85 37 85 99 1 63-27 99-86 99S16-35 15-95c0-66 28-99 85-99zM99-20c44 1 53-31 53-75 0-43-8-75-51-75s-53 32-53 75 10 74 51 75" id="L"/><g id="g"><use transform="matrix(0.06172839506172839,0,0,0.06172839506172839,0,0)" xlink:href="#J"/><use transform="matrix(0.06172839506172839,0,0,0.06172839506172839,15.987654320987653,0)" xlink:href="#K"/><use transform="matrix(0.06172839506172839,0,0,0.06172839506172839,23.333333333333332,0)" xlink:href="#D"/><use transform="matrix(0.06172839506172839,0,0,0.06172839506172839,35.67901234567901,0)" xlink:href="#H"/><use transform="matrix(0.06172839506172839,0,0,0.06172839506172839,48.02469135802469,0)" xlink:href="#F"/><use transform="matrix(0.06172839506172839,0,0,0.06172839506172839,54.19753086419753,0)" xlink:href="#L"/><use transform="matrix(0.06172839506172839,0,0,0.06172839506172839,66.54320987654322,0)" xlink:href="#K"/></g><path fill="#333" d="M135-143c-3-34-86-38-87 0 15 53 115 12 119 90S17 21 10-45l28-5c4 36 97 45 98 0-10-56-113-15-118-90-4-57 82-63 122-42 12 7 21 19 24 35" id="M"/><g id="h"><use transform="matrix(0.06172839506172839,0,0,0.06172839506172839,0,0)" xlink:href="#B"/><use transform="matrix(0.06172839506172839,0,0,0.06172839506172839,14.814814814814813,0)" xlink:href="#A"/><use transform="matrix(0.06172839506172839,0,0,0.06172839506172839,25.925925925925924,0)" xlink:href="#A"/><use transform="matrix(0.06172839506172839,0,0,0.06172839506172839,37.03703703703704,0)" xlink:href="#D"/><use transform="matrix(0.06172839506172839,0,0,0.06172839506172839,49.382716049382715,0)" xlink:href="#M"/><use transform="matrix(0.06172839506172839,0,0,0.06172839506172839,60.49382716049382,0)" xlink:href="#M"/></g><path fill="#333" d="M233-177c-1 41-23 64-60 70L243 0h-38l-65-103H63V0H30v-248c88 3 205-21 203 71zM63-129c60-2 137 13 137-47 0-61-80-42-137-45v92" id="N"/><g id="i"><use transform="matrix(0.06172839506172839,0,0,0.06172839506172839,0,0)" xlink:href="#N"/><use transform="matrix(0.06172839506172839,0,0,0.06172839506172839,15.987654320987653,0)" xlink:href="#w"/><use transform="matrix(0.06172839506172839,0,0,0.06172839506172839,28.333333333333332,0)" xlink:href="#y"/><use transform="matrix(0.06172839506172839,0,0,0.06172839506172839,33.20987654320987,0)" xlink:href="#D"/><use transform="matrix(0.06172839506172839,0,0,0.06172839506172839,45.55555555555555,0)" xlink:href="#M"/></g><g id="j"><use transform="matrix(0.06172839506172839,0,0,0.06172839506172839,0,0)" xlink:href="#B"/><use transform="matrix(0.06172839506172839,0,0,0.06172839506172839,14.814814814814813,0)" xlink:href="#C"/><use transform="matrix(0.06172839506172839,0,0,0.06172839506172839,27.160493827160494,0)" xlink:href="#D"/><use transform="matrix(0.06172839506172839,0,0,0.06172839506172839,39.50617283950617,0)" xlink:href="#E"/><use transform="matrix(0.06172839506172839,0,0,0.06172839506172839,51.85185185185185,0)" xlink:href="#F"/></g><path fill="#333" d="M143 4C61 4 22-44 18-125c-5-107 100-154 193-111 17 8 29 25 37 43l-32 9c-13-25-37-40-76-40-61 0-88 39-88 99 0 61 29 100 91 101 35 0 62-11 79-27v-45h-74v-28h105v86C228-13 192 4 143 4" id="O"/><path fill="#333" d="M115-194c55 1 70 41 70 98S169 2 115 4C84 4 66-9 55-30l1 105H24l-1-265h31l2 30c10-21 28-34 59-34zm-8 174c40 0 45-34 45-75s-6-73-45-74c-42 0-51 32-51 76 0 43 10 73 51 73" id="P"/><g id="k"><use transform="matrix(0.06172839506172839,0,0,0.06172839506172839,0,0)" xlink:href="#O"/><use transform="matrix(0.06172839506172839,0,0,0.06172839506172839,17.28395061728395,0)" xlink:href="#K"/><use transform="matrix(0.06172839506172839,0,0,0.06172839506172839,24.629629629629626,0)" xlink:href="#L"/><use transform="matrix(0.06172839506172839,0,0,0.06172839506172839,36.9753086419753,0)" xlink:href="#w"/><use transform="matrix(0.06172839506172839,0,0,0.06172839506172839,49.32098765432098,0)" xlink:href="#P"/></g></defs></g></svg>