<svg xmlns="http://www.w3.org/2000/svg" xmlns:xlink="http://www.w3.org/1999/xlink" xmlns:lucid="lucid" width="2965.32" height="2050.57"><g transform="translate(-2480 7111)" lucid:page-tab-id="FvFKNBPHVG9w"><path d="M3880-5550c0-27.6 22.4-50 50-50h100c27.6 0 50 22.4 50 50v88c0 27.6-22.4 50-50 50h-100c-27.6 0-50-22.4-50-50z" stroke="#5e5e5e" stroke-width="2" fill="#fff"/><use xlink:href="#a" transform="matrix(1,0,0,1,3885,-5595) translate(26.543209876543216 95.65277777777777)"/><use xlink:href="#b" transform="matrix(1,0,0,1,3885,-5595) translate(104.32098765432099 95.65277777777777)"/><path d="M3880-5830c0-27.6 22.4-50 50-50h100c27.6 0 50 22.4 50 50v88c0 27.6-22.4 50-50 50h-100c-27.6 0-50-22.4-50-50z" stroke="#5e5e5e" stroke-width="2" fill="#fff"/><use xlink:href="#a" transform="matrix(1,0,0,1,3885,-5875) translate(26.543209876543216 95.65277777777777)"/><use xlink:href="#b" transform="matrix(1,0,0,1,3885,-5875) translate(104.32098765432099 95.65277777777777)"/><path d="M3880-6110c0-27.6 22.4-50 50-50h100c27.6 0 50 22.4 50 50v88c0 27.6-22.4 50-50 50h-100c-27.6 0-50-22.4-50-50z" stroke="#5e5e5e" stroke-width="2" fill="#fff"/><use xlink:href="#a" transform="matrix(1,0,0,1,3885,-6155) translate(26.543209876543216 95.65277777777777)"/><use xlink:href="#b" transform="matrix(1,0,0,1,3885,-6155) translate(104.32098765432099 95.65277777777777)"/><path d="M3880-6390c0-27.6 22.4-50 50-50h100c27.6 0 50 22.4 50 50v88c0 27.6-22.4 50-50 50h-100c-27.6 0-50-22.4-50-50z" stroke="#5e5e5e" stroke-width="2" fill="#fff"/><use xlink:href="#a" transform="matrix(1,0,0,1,3885,-6435) translate(26.543209876543216 95.65277777777777)"/><use xlink:href="#b" transform="matrix(1,0,0,1,3885,-6435) translate(104.32098765432099 95.65277777777777)"/><path d="M3880-6670c0-27.6 22.4-50 50-50h100c27.6 0 50 22.4 50 50v88c0 27.6-22.4 50-50 50h-100c-27.6 0-50-22.4-50-50z" stroke="#5e5e5e" stroke-width="2" fill="#fff"/><use xlink:href="#a" transform="matrix(1,0,0,1,3885,-6715) translate(26.543209876543216 95.65277777777777)"/><use xlink:href="#b" transform="matrix(1,0,0,1,3885,-6715) translate(104.32098765432099 95.65277777777777)"/><path d="M2500-6415.5c0-3.3 2.7-6 6-6h188c3.3 0 6 2.7 6 6v162c0 3.3-2.7 6-6 6h-188c-3.3 0-6-2.7-6-6z" fill="#ffdf71"/><path d="M2500-6415.5c0-3.3 2.7-6 6-6h188c3.3 0 6 2.7 6 6v162c0 3.3-2.7 6-6 6h-188c-3.3 0-6-2.7-6-6zM2500-6358.5h200" stroke="#5e5e5e" stroke-width="3" fill="none"/><use xlink:href="#c" transform="matrix(1,0,0,1,2510,-6421.5) translate(41.944444444444436 22.611111111111114)"/><use xlink:href="#d" transform="matrix(1,0,0,1,2510,-6421.5) translate(90 49.277777777777786)"/><path d="M5225.32-6415.5c0-3.3 2.7-6 6-6h188c3.3 0 6 2.7 6 6v162c0 3.3-2.7 6-6 6h-188c-3.3 0-6-2.7-6-6z" fill="#ffdf71"/><path d="M5225.32-6415.5c0-3.3 2.7-6 6-6h188c3.3 0 6 2.7 6 6v162c0 3.3-2.7 6-6 6h-188c-3.3 0-6-2.7-6-6zM5225.32-6358.5h200" stroke="#5e5e5e" stroke-width="3" fill="none"/><use xlink:href="#c" transform="matrix(1,0,0,1,5235.31959994029,-6421.5) translate(41.944444444444436 22.611111111111114)"/><use xlink:href="#d" transform="matrix(1,0,0,1,5235.31959994029,-6421.5) translate(90 49.277777777777786)"/><path d="M4864.03-6414c0-3.3 2.7-6 6-6h188c3.3 0 6 2.7 6 6v162c0 3.3-2.7 6-6 6h-188c-3.3 0-6-2.7-6-6z" fill="#83bbe5"/><path d="M4864.03-6414c0-3.3 2.7-6 6-6h188c3.3 0 6 2.7 6 6v162c0 3.3-2.7 6-6 6h-188c-3.3 0-6-2.7-6-6z" fill="none"/><path d="M4866.53-6414c0 1.38-1.12 2.5-2.5 2.5s-2.5-1.12-2.5-2.5 1.12-2.5 2.5-2.5 2.5 1.12 2.5 2.5zm6-6c0 1.38-1.12 2.5-2.5 2.5s-2.5-1.12-2.5-2.5 1.12-2.5 2.5-2.5 2.5 1.12 2.5 2.5zm9.9 0c0 1.38-1.12 2.5-2.5 2.5-1.4 0-2.5-1.12-2.5-2.5s1.1-2.5 2.5-2.5c1.38 0 2.5 1.12 2.5 2.5zm9.9 0c0 1.38-1.13 2.5-2.5 2.5-1.4 0-2.5-1.12-2.5-2.5s1.1-2.5 2.5-2.5c1.37 0 2.5 1.12 2.5 2.5zm9.88 0c0 1.38-1.1 2.5-2.5 2.5-1.37 0-2.5-1.12-2.5-2.5s1.13-2.5 2.5-2.5c1.4 0 2.5 1.12 2.5 2.5zm9.9 0c0 1.38-1.1 2.5-2.5 2.5-1.37 0-2.5-1.12-2.5-2.5s1.13-2.5 2.5-2.5c1.4 0 2.5 1.12 2.5 2.5zm9.9 0c0 1.38-1.12 2.5-2.5 2.5s-2.5-1.12-2.5-2.5 1.12-2.5 2.5-2.5 2.5 1.12 2.5 2.5zm9.9 0c0 1.38-1.12 2.5-2.5 2.5s-2.5-1.12-2.5-2.5 1.12-2.5 2.5-2.5 2.5 1.12 2.5 2.5zm9.9 0c0 1.38-1.13 2.5-2.5 2.5-1.4 0-2.5-1.12-2.5-2.5s1.1-2.5 2.5-2.5c1.37 0 2.5 1.12 2.5 2.5zm9.9 0c0 1.38-1.13 2.5-2.5 2.5-1.4 0-2.5-1.12-2.5-2.5s1.1-2.5 2.5-2.5c1.37 0 2.5 1.12 2.5 2.5zm9.88 0c0 1.38-1.12 2.5-2.5 2.5s-2.5-1.12-2.5-2.5 1.12-2.5 2.5-2.5 2.5 1.12 2.5 2.5zm9.9 0c0 1.38-1.12 2.5-2.5 2.5s-2.5-1.12-2.5-2.5 1.12-2.5 2.5-2.5 2.5 1.12 2.5 2.5zm9.9 0c0 1.38-1.13 2.5-2.5 2.5-1.4 0-2.5-1.12-2.5-2.5s1.1-2.5 2.5-2.5c1.37 0 2.5 1.12 2.5 2.5zm9.9 0c0 1.38-1.13 2.5-2.5 2.5-1.4 0-2.5-1.12-2.5-2.5s1.1-2.5 2.5-2.5c1.37 0 2.5 1.12 2.5 2.5zm9.88 0c0 1.38-1.12 2.5-2.5 2.5s-2.5-1.12-2.5-2.5 1.12-2.5 2.5-2.5 2.5 1.12 2.5 2.5zm9.9 0c0 1.38-1.12 2.5-2.5 2.5s-2.5-1.12-2.5-2.5 1.12-2.5 2.5-2.5 2.5 1.12 2.5 2.5zm9.9 0c0 1.38-1.13 2.5-2.5 2.5-1.4 0-2.5-1.12-2.5-2.5s1.1-2.5 2.5-2.5c1.37 0 2.5 1.12 2.5 2.5zm9.9 0c0 1.38-1.13 2.5-2.5 2.5-1.4 0-2.5-1.12-2.5-2.5s1.1-2.5 2.5-2.5c1.37 0 2.5 1.12 2.5 2.5zm9.88 0c0 1.38-1.12 2.5-2.5 2.5s-2.5-1.12-2.5-2.5 1.12-2.5 2.5-2.5 2.5 1.12 2.5 2.5zm9.9 0c0 1.38-1.12 2.5-2.5 2.5-1.4 0-2.5-1.12-2.5-2.5s1.1-2.5 2.5-2.5c1.38 0 2.5 1.12 2.5 2.5zm9.9 0c0 1.38-1.13 2.5-2.5 2.5-1.4 0-2.5-1.12-2.5-2.5s1.1-2.5 2.5-2.5c1.37 0 2.5 1.12 2.5 2.5zm6 6c0 1.38-1.13 2.5-2.5 2.5-1.4 0-2.5-1.12-2.5-2.5s1.1-2.5 2.5-2.5c1.37 0 2.5 1.12 2.5 2.5zm0 10.13c0 1.38-1.13 2.5-2.5 2.5-1.4 0-2.5-1.12-2.5-2.5 0-1.4 1.1-2.5 2.5-2.5 1.37 0 2.5 1.1 2.5 2.5zm0 10.12c0 1.38-1.13 2.5-2.5 2.5-1.4 0-2.5-1.12-2.5-2.5s1.1-2.5 2.5-2.5c1.37 0 2.5 1.12 2.5 2.5zm0 10.13c0 1.38-1.13 2.5-2.5 2.5-1.4 0-2.5-1.12-2.5-2.5 0-1.4 1.1-2.5 2.5-2.5 1.37 0 2.5 1.1 2.5 2.5zm0 10.12c0 1.38-1.13 2.5-2.5 2.5-1.4 0-2.5-1.12-2.5-2.5s1.1-2.5 2.5-2.5c1.37 0 2.5 1.12 2.5 2.5zm0 10.13c0 1.38-1.13 2.5-2.5 2.5-1.4 0-2.5-1.12-2.5-2.5 0-1.4 1.1-2.5 2.5-2.5 1.37 0 2.5 1.1 2.5 2.5zm0 10.12c0 1.38-1.13 2.5-2.5 2.5-1.4 0-2.5-1.12-2.5-2.5s1.1-2.5 2.5-2.5c1.37 0 2.5 1.12 2.5 2.5zm0 10.13c0 1.38-1.13 2.5-2.5 2.5-1.4 0-2.5-1.12-2.5-2.5 0-1.4 1.1-2.5 2.5-2.5 1.37 0 2.5 1.1 2.5 2.5zm0 10.12c0 1.38-1.13 2.5-2.5 2.5-1.4 0-2.5-1.12-2.5-2.5s1.1-2.5 2.5-2.5c1.37 0 2.5 1.12 2.5 2.5zm0 10.13c0 1.38-1.13 2.5-2.5 2.5-1.4 0-2.5-1.12-2.5-2.5 0-1.4 1.1-2.5 2.5-2.5 1.37 0 2.5 1.1 2.5 2.5zm0 10.12c0 1.38-1.13 2.5-2.5 2.5-1.4 0-2.5-1.12-2.5-2.5s1.1-2.5 2.5-2.5c1.37 0 2.5 1.12 2.5 2.5zm0 10.13c0 1.38-1.13 2.5-2.5 2.5-1.4 0-2.5-1.12-2.5-2.5 0-1.4 1.1-2.5 2.5-2.5 1.37 0 2.5 1.1 2.5 2.5zm0 10.12c0 1.38-1.13 2.5-2.5 2.5-1.4 0-2.5-1.12-2.5-2.5s1.1-2.5 2.5-2.5c1.37 0 2.5 1.12 2.5 2.5zm0 10.13c0 1.38-1.13 2.5-2.5 2.5-1.4 0-2.5-1.12-2.5-2.5 0-1.4 1.1-2.5 2.5-2.5 1.37 0 2.5 1.1 2.5 2.5zm0 10.12c0 1.38-1.13 2.5-2.5 2.5-1.4 0-2.5-1.12-2.5-2.5s1.1-2.5 2.5-2.5c1.37 0 2.5 1.12 2.5 2.5zm0 10.13c0 1.38-1.13 2.5-2.5 2.5-1.4 0-2.5-1.12-2.5-2.5 0-1.4 1.1-2.5 2.5-2.5 1.37 0 2.5 1.1 2.5 2.5zm0 10.12c0 1.38-1.13 2.5-2.5 2.5-1.4 0-2.5-1.12-2.5-2.5s1.1-2.5 2.5-2.5c1.37 0 2.5 1.12 2.5 2.5zm-6 6c0 1.38-1.13 2.5-2.5 2.5-1.4 0-2.5-1.12-2.5-2.5s1.1-2.5 2.5-2.5c1.37 0 2.5 1.12 2.5 2.5zm-9.9 0c0 1.38-1.12 2.5-2.5 2.5-1.4 0-2.5-1.12-2.5-2.5s1.1-2.5 2.5-2.5c1.38 0 2.5 1.12 2.5 2.5zm-9.9 0c0 1.38-1.12 2.5-2.5 2.5s-2.5-1.12-2.5-2.5 1.12-2.5 2.5-2.5 2.5 1.12 2.5 2.5zm-9.9 0c0 1.38-1.1 2.5-2.5 2.5-1.38 0-2.5-1.12-2.5-2.5s1.12-2.5 2.5-2.5c1.4 0 2.5 1.12 2.5 2.5zm-9.9 0c0 1.38-1.1 2.5-2.5 2.5-1.37 0-2.5-1.12-2.5-2.5s1.13-2.5 2.5-2.5c1.4 0 2.5 1.12 2.5 2.5zm-9.88 0c0 1.38-1.12 2.5-2.5 2.5s-2.5-1.12-2.5-2.5 1.12-2.5 2.5-2.5 2.5 1.12 2.5 2.5zm-9.9 0c0 1.38-1.12 2.5-2.5 2.5s-2.5-1.12-2.5-2.5 1.12-2.5 2.5-2.5 2.5 1.12 2.5 2.5zm-9.9 0c0 1.38-1.1 2.5-2.5 2.5-1.37 0-2.5-1.12-2.5-2.5s1.13-2.5 2.5-2.5c1.4 0 2.5 1.12 2.5 2.5zm-9.9 0c0 1.38-1.1 2.5-2.5 2.5-1.37 0-2.5-1.12-2.5-2.5s1.13-2.5 2.5-2.5c1.4 0 2.5 1.12 2.5 2.5zm-9.88 0c0 1.38-1.12 2.5-2.5 2.5s-2.5-1.12-2.5-2.5 1.12-2.5 2.5-2.5 2.5 1.12 2.5 2.5zm-9.9 0c0 1.38-1.12 2.5-2.5 2.5s-2.5-1.12-2.5-2.5 1.12-2.5 2.5-2.5 2.5 1.12 2.5 2.5zm-9.9 0c0 1.38-1.1 2.5-2.5 2.5-1.37 0-2.5-1.12-2.5-2.5s1.13-2.5 2.5-2.5c1.4 0 2.5 1.12 2.5 2.5zm-9.9 0c0 1.38-1.1 2.5-2.5 2.5-1.37 0-2.5-1.12-2.5-2.5s1.13-2.5 2.5-2.5c1.4 0 2.5 1.12 2.5 2.5zm-9.88 0c0 1.38-1.12 2.5-2.5 2.5s-2.5-1.12-2.5-2.5 1.12-2.5 2.5-2.5 2.5 1.12 2.5 2.5zm-9.9 0c0 1.38-1.12 2.5-2.5 2.5s-2.5-1.12-2.5-2.5 1.12-2.5 2.5-2.5 2.5 1.12 2.5 2.5zm-9.9 0c0 1.38-1.1 2.5-2.5 2.5-1.37 0-2.5-1.12-2.5-2.5s1.13-2.5 2.5-2.5c1.4 0 2.5 1.12 2.5 2.5zm-9.9 0c0 1.38-1.1 2.5-2.5 2.5-1.37 0-2.5-1.12-2.5-2.5s1.13-2.5 2.5-2.5c1.4 0 2.5 1.12 2.5 2.5zm-9.88 0c0 1.38-1.12 2.5-2.5 2.5s-2.5-1.12-2.5-2.5 1.12-2.5 2.5-2.5 2.5 1.12 2.5 2.5zm-9.9 0c0 1.38-1.1 2.5-2.5 2.5-1.38 0-2.5-1.12-2.5-2.5s1.12-2.5 2.5-2.5c1.4 0 2.5 1.12 2.5 2.5zm-9.9 0c0 1.38-1.1 2.5-2.5 2.5-1.37 0-2.5-1.12-2.5-2.5s1.13-2.5 2.5-2.5c1.4 0 2.5 1.12 2.5 2.5zm-6-6c0 1.38-1.1 2.5-2.5 2.5-1.37 0-2.5-1.12-2.5-2.5s1.13-2.5 2.5-2.5c1.4 0 2.5 1.12 2.5 2.5zm0-10.13c0 1.4-1.1 2.5-2.5 2.5-1.37 0-2.5-1.1-2.5-2.5 0-1.38 1.13-2.5 2.5-2.5 1.4 0 2.5 1.12 2.5 2.5zm0-10.12c0 1.38-1.1 2.5-2.5 2.5-1.37 0-2.5-1.12-2.5-2.5s1.13-2.5 2.5-2.5c1.4 0 2.5 1.12 2.5 2.5zm0-10.13c0 1.4-1.1 2.5-2.5 2.5-1.37 0-2.5-1.1-2.5-2.5 0-1.38 1.13-2.5 2.5-2.5 1.4 0 2.5 1.12 2.5 2.5zm0-10.12c0 1.38-1.1 2.5-2.5 2.5-1.37 0-2.5-1.12-2.5-2.5s1.13-2.5 2.5-2.5c1.4 0 2.5 1.12 2.5 2.5zm0-10.13c0 1.4-1.1 2.5-2.5 2.5-1.37 0-2.5-1.1-2.5-2.5 0-1.38 1.13-2.5 2.5-2.5 1.4 0 2.5 1.12 2.5 2.5zm0-10.12c0 1.38-1.1 2.5-2.5 2.5-1.37 0-2.5-1.12-2.5-2.5s1.13-2.5 2.5-2.5c1.4 0 2.5 1.12 2.5 2.5zm0-10.13c0 1.4-1.1 2.5-2.5 2.5-1.37 0-2.5-1.1-2.5-2.5 0-1.38 1.13-2.5 2.5-2.5 1.4 0 2.5 1.12 2.5 2.5zm0-10.12c0 1.38-1.1 2.5-2.5 2.5-1.37 0-2.5-1.12-2.5-2.5s1.13-2.5 2.5-2.5c1.4 0 2.5 1.12 2.5 2.5zm0-10.13c0 1.4-1.1 2.5-2.5 2.5-1.37 0-2.5-1.1-2.5-2.5 0-1.38 1.13-2.5 2.5-2.5 1.4 0 2.5 1.12 2.5 2.5zm0-10.12c0 1.38-1.1 2.5-2.5 2.5-1.37 0-2.5-1.12-2.5-2.5s1.13-2.5 2.5-2.5c1.4 0 2.5 1.12 2.5 2.5zm0-10.13c0 1.4-1.1 2.5-2.5 2.5-1.37 0-2.5-1.1-2.5-2.5 0-1.38 1.13-2.5 2.5-2.5 1.4 0 2.5 1.12 2.5 2.5zm0-10.12c0 1.38-1.1 2.5-2.5 2.5-1.37 0-2.5-1.12-2.5-2.5s1.13-2.5 2.5-2.5c1.4 0 2.5 1.12 2.5 2.5zm0-10.13c0 1.4-1.1 2.5-2.5 2.5-1.37 0-2.5-1.1-2.5-2.5 0-1.38 1.13-2.5 2.5-2.5 1.4 0 2.5 1.12 2.5 2.5zm0-10.12c0 1.38-1.1 2.5-2.5 2.5-1.37 0-2.5-1.12-2.5-2.5s1.13-2.5 2.5-2.5c1.4 0 2.5 1.12 2.5 2.5zm0-10.13c0 1.4-1.1 2.5-2.5 2.5-1.37 0-2.5-1.1-2.5-2.5 0-1.38 1.13-2.5 2.5-2.5 1.4 0 2.5 1.12 2.5 2.5zm0-10.12c0 1.38-1.1 2.5-2.5 2.5-1.37 0-2.5-1.12-2.5-2.5s1.13-2.5 2.5-2.5c1.4 0 2.5 1.12 2.5 2.5z" fill="#5e5e5e"/><path d="M4864.03-6357h200" fill="none"/><path d="M4866.53-6357c0 1.38-1.12 2.5-2.5 2.5s-2.5-1.12-2.5-2.5 1.12-2.5 2.5-2.5 2.5 1.12 2.5 2.5zm10 0c0 1.38-1.12 2.5-2.5 2.5s-2.5-1.12-2.5-2.5 1.12-2.5 2.5-2.5 2.5 1.12 2.5 2.5zm10 0c0 1.38-1.12 2.5-2.5 2.5s-2.5-1.12-2.5-2.5 1.12-2.5 2.5-2.5 2.5 1.12 2.5 2.5zm10 0c0 1.38-1.12 2.5-2.5 2.5s-2.5-1.12-2.5-2.5 1.12-2.5 2.5-2.5 2.5 1.12 2.5 2.5zm10 0c0 1.38-1.12 2.5-2.5 2.5s-2.5-1.12-2.5-2.5 1.12-2.5 2.5-2.5 2.5 1.12 2.5 2.5zm10 0c0 1.38-1.12 2.5-2.5 2.5s-2.5-1.12-2.5-2.5 1.12-2.5 2.5-2.5 2.5 1.12 2.5 2.5zm10 0c0 1.38-1.12 2.5-2.5 2.5s-2.5-1.12-2.5-2.5 1.12-2.5 2.5-2.5 2.5 1.12 2.5 2.5zm10 0c0 1.38-1.12 2.5-2.5 2.5s-2.5-1.12-2.5-2.5 1.12-2.5 2.5-2.5 2.5 1.12 2.5 2.5zm10 0c0 1.38-1.12 2.5-2.5 2.5s-2.5-1.12-2.5-2.5 1.12-2.5 2.5-2.5 2.5 1.12 2.5 2.5zm10 0c0 1.38-1.12 2.5-2.5 2.5s-2.5-1.12-2.5-2.5 1.12-2.5 2.5-2.5 2.5 1.12 2.5 2.5zm10 0c0 1.38-1.12 2.5-2.5 2.5s-2.5-1.12-2.5-2.5 1.12-2.5 2.5-2.5 2.5 1.12 2.5 2.5zm10 0c0 1.38-1.12 2.5-2.5 2.5s-2.5-1.12-2.5-2.5 1.12-2.5 2.5-2.5 2.5 1.12 2.5 2.5zm10 0c0 1.38-1.12 2.5-2.5 2.5s-2.5-1.12-2.5-2.5 1.12-2.5 2.5-2.5 2.5 1.12 2.5 2.5zm10 0c0 1.38-1.12 2.5-2.5 2.5s-2.5-1.12-2.5-2.5 1.12-2.5 2.5-2.5 2.5 1.12 2.5 2.5zm10 0c0 1.38-1.12 2.5-2.5 2.5s-2.5-1.12-2.5-2.5 1.12-2.5 2.5-2.5 2.5 1.12 2.5 2.5zm10 0c0 1.38-1.12 2.5-2.5 2.5s-2.5-1.12-2.5-2.5 1.12-2.5 2.5-2.5 2.5 1.12 2.5 2.5zm10 0c0 1.38-1.12 2.5-2.5 2.5s-2.5-1.12-2.5-2.5 1.12-2.5 2.5-2.5 2.5 1.12 2.5 2.5zm10 0c0 1.38-1.12 2.5-2.5 2.5s-2.5-1.12-2.5-2.5 1.12-2.5 2.5-2.5 2.5 1.12 2.5 2.5zm10 0c0 1.38-1.12 2.5-2.5 2.5s-2.5-1.12-2.5-2.5 1.12-2.5 2.5-2.5 2.5 1.12 2.5 2.5zm10 0c0 1.38-1.12 2.5-2.5 2.5s-2.5-1.12-2.5-2.5 1.12-2.5 2.5-2.5 2.5 1.12 2.5 2.5z" fill="#5e5e5e"/><use xlink:href="#a" transform="matrix(1,0,0,1,4874.0296760710935,-6420) translate(15.401234567901241 22.611111111111114)"/><use xlink:href="#e" transform="matrix(1,0,0,1,4874.0296760710935,-6420) translate(93.17901234567901 22.611111111111114)"/><use xlink:href="#f" transform="matrix(1,0,0,1,4874.0296760710935,-6420) translate(42.53086419753086 49.277777777777786)"/><path d="M4528.46-6378.5c0-27.6 22.4-50 50-50h100c27.62 0 50 22.4 50 50v88c0 27.6-22.38 50-50 50h-100c-27.6 0-50-22.4-50-50z" stroke="#5e5e5e" stroke-width="2" fill="#fff"/><use xlink:href="#a" transform="matrix(1,0,0,1,4533.4624570831475,-6423.5) translate(14.84567901234567 95.65277777777777)"/><use xlink:href="#g" transform="matrix(1,0,0,1,4533.4624570831475,-6423.5) translate(92.62345679012344 95.65277777777777)"/><path d="M3900-6368.7c0-27.63 22.4-50 50-50h100c27.6 0 50 22.37 50 50v88c0 27.6-22.4 50-50 50h-100c-27.6 0-50-22.4-50-50z" stroke="#5e5e5e" stroke-width="2" fill="#fff"/><use xlink:href="#a" transform="matrix(1,0,0,1,3905,-6413.714270455496) translate(26.543209876543216 95.65277777777777)"/><use xlink:href="#b" transform="matrix(1,0,0,1,3905,-6413.714270455496) translate(104.32098765432099 95.65277777777777)"/><path d="M2852.95-6414.8c0-3.32 2.7-6 6-6h188c3.32 0 6 2.68 6 6v162c0 3.3-2.68 6-6 6h-188c-3.3 0-6-2.7-6-6z" fill="#83bbe5"/><path d="M2852.95-6414.8c0-3.32 2.7-6 6-6h188c3.32 0 6 2.68 6 6v162c0 3.3-2.68 6-6 6h-188c-3.3 0-6-2.7-6-6z" fill="none"/><path d="M2855.45-6414.8c0 1.37-1.12 2.5-2.5 2.5s-2.5-1.13-2.5-2.5c0-1.4 1.12-2.5 2.5-2.5s2.5 1.1 2.5 2.5zm6-6c0 1.37-1.12 2.5-2.5 2.5s-2.5-1.13-2.5-2.5c0-1.4 1.12-2.5 2.5-2.5s2.5 1.1 2.5 2.5zm9.9 0c0 1.37-1.12 2.5-2.5 2.5s-2.5-1.13-2.5-2.5c0-1.4 1.12-2.5 2.5-2.5s2.5 1.1 2.5 2.5zm9.9 0c0 1.37-1.13 2.5-2.5 2.5-1.4 0-2.5-1.13-2.5-2.5 0-1.4 1.1-2.5 2.5-2.5 1.37 0 2.5 1.1 2.5 2.5zm9.9 0c0 1.37-1.13 2.5-2.5 2.5-1.4 0-2.5-1.13-2.5-2.5 0-1.4 1.1-2.5 2.5-2.5 1.37 0 2.5 1.1 2.5 2.5zm9.88 0c0 1.37-1.12 2.5-2.5 2.5s-2.5-1.13-2.5-2.5c0-1.4 1.12-2.5 2.5-2.5s2.5 1.1 2.5 2.5zm9.9 0c0 1.37-1.12 2.5-2.5 2.5s-2.5-1.13-2.5-2.5c0-1.4 1.12-2.5 2.5-2.5s2.5 1.1 2.5 2.5zm9.9 0c0 1.37-1.13 2.5-2.5 2.5-1.4 0-2.5-1.13-2.5-2.5 0-1.4 1.1-2.5 2.5-2.5 1.37 0 2.5 1.1 2.5 2.5zm9.9 0c0 1.37-1.13 2.5-2.5 2.5-1.4 0-2.5-1.13-2.5-2.5 0-1.4 1.1-2.5 2.5-2.5 1.37 0 2.5 1.1 2.5 2.5zm9.88 0c0 1.37-1.1 2.5-2.5 2.5-1.37 0-2.5-1.13-2.5-2.5 0-1.4 1.13-2.5 2.5-2.5 1.4 0 2.5 1.1 2.5 2.5zm9.9 0c0 1.37-1.1 2.5-2.5 2.5-1.38 0-2.5-1.13-2.5-2.5 0-1.4 1.12-2.5 2.5-2.5 1.4 0 2.5 1.1 2.5 2.5zm9.9 0c0 1.37-1.12 2.5-2.5 2.5s-2.5-1.13-2.5-2.5c0-1.4 1.12-2.5 2.5-2.5s2.5 1.1 2.5 2.5zm9.9 0c0 1.37-1.12 2.5-2.5 2.5-1.4 0-2.5-1.13-2.5-2.5 0-1.4 1.1-2.5 2.5-2.5 1.38 0 2.5 1.1 2.5 2.5zm9.9 0c0 1.37-1.13 2.5-2.5 2.5-1.4 0-2.5-1.13-2.5-2.5 0-1.4 1.1-2.5 2.5-2.5 1.37 0 2.5 1.1 2.5 2.5zm9.88 0c0 1.37-1.12 2.5-2.5 2.5s-2.5-1.13-2.5-2.5c0-1.4 1.12-2.5 2.5-2.5s2.5 1.1 2.5 2.5zm9.9 0c0 1.37-1.12 2.5-2.5 2.5s-2.5-1.13-2.5-2.5c0-1.4 1.12-2.5 2.5-2.5s2.5 1.1 2.5 2.5zm9.9 0c0 1.37-1.13 2.5-2.5 2.5-1.4 0-2.5-1.13-2.5-2.5 0-1.4 1.1-2.5 2.5-2.5 1.37 0 2.5 1.1 2.5 2.5zm9.9 0c0 1.37-1.13 2.5-2.5 2.5-1.4 0-2.5-1.13-2.5-2.5 0-1.4 1.1-2.5 2.5-2.5 1.37 0 2.5 1.1 2.5 2.5zm9.88 0c0 1.37-1.12 2.5-2.5 2.5s-2.5-1.13-2.5-2.5c0-1.4 1.12-2.5 2.5-2.5s2.5 1.1 2.5 2.5zm9.9 0c0 1.37-1.12 2.5-2.5 2.5s-2.5-1.13-2.5-2.5c0-1.4 1.12-2.5 2.5-2.5s2.5 1.1 2.5 2.5zm9.9 0c0 1.37-1.13 2.5-2.5 2.5-1.4 0-2.5-1.13-2.5-2.5 0-1.4 1.1-2.5 2.5-2.5 1.37 0 2.5 1.1 2.5 2.5zm6 6c0 1.37-1.13 2.5-2.5 2.5-1.4 0-2.5-1.13-2.5-2.5 0-1.4 1.1-2.5 2.5-2.5 1.37 0 2.5 1.1 2.5 2.5zm0 10.12c0 1.38-1.13 2.5-2.5 2.5-1.4 0-2.5-1.12-2.5-2.5s1.1-2.5 2.5-2.5c1.37 0 2.5 1.12 2.5 2.5zm0 10.12c0 1.38-1.13 2.5-2.5 2.5-1.4 0-2.5-1.12-2.5-2.5s1.1-2.5 2.5-2.5c1.37 0 2.5 1.12 2.5 2.5zm0 10.13c0 1.38-1.13 2.5-2.5 2.5-1.4 0-2.5-1.12-2.5-2.5s1.1-2.5 2.5-2.5c1.37 0 2.5 1.12 2.5 2.5zm0 10.12c0 1.37-1.13 2.5-2.5 2.5-1.4 0-2.5-1.13-2.5-2.5 0-1.4 1.1-2.5 2.5-2.5 1.37 0 2.5 1.1 2.5 2.5zm0 10.12c0 1.38-1.13 2.5-2.5 2.5-1.4 0-2.5-1.12-2.5-2.5s1.1-2.5 2.5-2.5c1.37 0 2.5 1.12 2.5 2.5zm0 10.12c0 1.38-1.13 2.5-2.5 2.5-1.4 0-2.5-1.12-2.5-2.5s1.1-2.5 2.5-2.5c1.37 0 2.5 1.12 2.5 2.5zm0 10.13c0 1.38-1.13 2.5-2.5 2.5-1.4 0-2.5-1.12-2.5-2.5s1.1-2.5 2.5-2.5c1.37 0 2.5 1.12 2.5 2.5zm0 10.12c0 1.37-1.13 2.5-2.5 2.5-1.4 0-2.5-1.13-2.5-2.5 0-1.4 1.1-2.5 2.5-2.5 1.37 0 2.5 1.1 2.5 2.5zm0 10.12c0 1.38-1.13 2.5-2.5 2.5-1.4 0-2.5-1.12-2.5-2.5s1.1-2.5 2.5-2.5c1.37 0 2.5 1.12 2.5 2.5zm0 10.12c0 1.38-1.13 2.5-2.5 2.5-1.4 0-2.5-1.12-2.5-2.5s1.1-2.5 2.5-2.5c1.37 0 2.5 1.12 2.5 2.5zm0 10.13c0 1.38-1.13 2.5-2.5 2.5-1.4 0-2.5-1.12-2.5-2.5s1.1-2.5 2.5-2.5c1.37 0 2.5 1.12 2.5 2.5zm0 10.12c0 1.37-1.13 2.5-2.5 2.5-1.4 0-2.5-1.13-2.5-2.5 0-1.4 1.1-2.5 2.5-2.5 1.37 0 2.5 1.1 2.5 2.5zm0 10.12c0 1.38-1.13 2.5-2.5 2.5-1.4 0-2.5-1.12-2.5-2.5s1.1-2.5 2.5-2.5c1.37 0 2.5 1.12 2.5 2.5zm0 10.12c0 1.38-1.13 2.5-2.5 2.5-1.4 0-2.5-1.12-2.5-2.5s1.1-2.5 2.5-2.5c1.37 0 2.5 1.12 2.5 2.5zm0 10.13c0 1.38-1.13 2.5-2.5 2.5-1.4 0-2.5-1.12-2.5-2.5s1.1-2.5 2.5-2.5c1.37 0 2.5 1.12 2.5 2.5zm0 10.12c0 1.37-1.13 2.5-2.5 2.5-1.4 0-2.5-1.13-2.5-2.5 0-1.4 1.1-2.5 2.5-2.5 1.37 0 2.5 1.1 2.5 2.5zm-6 6c0 1.37-1.13 2.5-2.5 2.5-1.4 0-2.5-1.13-2.5-2.5 0-1.4 1.1-2.5 2.5-2.5 1.37 0 2.5 1.1 2.5 2.5zm-9.9 0c0 1.37-1.12 2.5-2.5 2.5s-2.5-1.13-2.5-2.5c0-1.4 1.12-2.5 2.5-2.5s2.5 1.1 2.5 2.5zm-9.9 0c0 1.37-1.12 2.5-2.5 2.5s-2.5-1.13-2.5-2.5c0-1.4 1.12-2.5 2.5-2.5s2.5 1.1 2.5 2.5zm-9.9 0c0 1.37-1.1 2.5-2.5 2.5-1.37 0-2.5-1.13-2.5-2.5 0-1.4 1.13-2.5 2.5-2.5 1.4 0 2.5 1.1 2.5 2.5zm-9.9 0c0 1.37-1.1 2.5-2.5 2.5-1.37 0-2.5-1.13-2.5-2.5 0-1.4 1.13-2.5 2.5-2.5 1.4 0 2.5 1.1 2.5 2.5zm-9.88 0c0 1.37-1.12 2.5-2.5 2.5s-2.5-1.13-2.5-2.5c0-1.4 1.12-2.5 2.5-2.5s2.5 1.1 2.5 2.5zm-9.9 0c0 1.37-1.12 2.5-2.5 2.5s-2.5-1.13-2.5-2.5c0-1.4 1.12-2.5 2.5-2.5s2.5 1.1 2.5 2.5zm-9.9 0c0 1.37-1.1 2.5-2.5 2.5-1.37 0-2.5-1.13-2.5-2.5 0-1.4 1.13-2.5 2.5-2.5 1.4 0 2.5 1.1 2.5 2.5zm-9.9 0c0 1.37-1.1 2.5-2.5 2.5-1.37 0-2.5-1.13-2.5-2.5 0-1.4 1.13-2.5 2.5-2.5 1.4 0 2.5 1.1 2.5 2.5zm-9.88 0c0 1.37-1.12 2.5-2.5 2.5s-2.5-1.13-2.5-2.5c0-1.4 1.12-2.5 2.5-2.5s2.5 1.1 2.5 2.5zm-9.9 0c0 1.37-1.1 2.5-2.5 2.5-1.38 0-2.5-1.13-2.5-2.5 0-1.4 1.12-2.5 2.5-2.5 1.4 0 2.5 1.1 2.5 2.5zm-9.9 0c0 1.37-1.1 2.5-2.5 2.5-1.37 0-2.5-1.13-2.5-2.5 0-1.4 1.13-2.5 2.5-2.5 1.4 0 2.5 1.1 2.5 2.5zm-9.88 0c0 1.37-1.12 2.5-2.5 2.5-1.4 0-2.5-1.13-2.5-2.5 0-1.4 1.1-2.5 2.5-2.5 1.38 0 2.5 1.1 2.5 2.5zm-9.9 0c0 1.37-1.12 2.5-2.5 2.5s-2.5-1.13-2.5-2.5c0-1.4 1.12-2.5 2.5-2.5s2.5 1.1 2.5 2.5zm-9.9 0c0 1.37-1.1 2.5-2.5 2.5-1.37 0-2.5-1.13-2.5-2.5 0-1.4 1.13-2.5 2.5-2.5 1.4 0 2.5 1.1 2.5 2.5zm-9.9 0c0 1.37-1.1 2.5-2.5 2.5-1.37 0-2.5-1.13-2.5-2.5 0-1.4 1.13-2.5 2.5-2.5 1.4 0 2.5 1.1 2.5 2.5zm-9.88 0c0 1.37-1.12 2.5-2.5 2.5s-2.5-1.13-2.5-2.5c0-1.4 1.12-2.5 2.5-2.5s2.5 1.1 2.5 2.5zm-9.9 0c0 1.37-1.12 2.5-2.5 2.5s-2.5-1.13-2.5-2.5c0-1.4 1.12-2.5 2.5-2.5s2.5 1.1 2.5 2.5zm-9.9 0c0 1.37-1.1 2.5-2.5 2.5-1.37 0-2.5-1.13-2.5-2.5 0-1.4 1.13-2.5 2.5-2.5 1.4 0 2.5 1.1 2.5 2.5zm-9.9 0c0 1.37-1.1 2.5-2.5 2.5-1.37 0-2.5-1.13-2.5-2.5 0-1.4 1.13-2.5 2.5-2.5 1.4 0 2.5 1.1 2.5 2.5zm-6-6c0 1.37-1.1 2.5-2.5 2.5-1.37 0-2.5-1.13-2.5-2.5 0-1.4 1.13-2.5 2.5-2.5 1.4 0 2.5 1.1 2.5 2.5zm0-10.13c0 1.38-1.1 2.5-2.5 2.5-1.37 0-2.5-1.12-2.5-2.5s1.13-2.5 2.5-2.5c1.4 0 2.5 1.12 2.5 2.5zm0-10.13c0 1.38-1.1 2.5-2.5 2.5-1.37 0-2.5-1.12-2.5-2.5s1.13-2.5 2.5-2.5c1.4 0 2.5 1.12 2.5 2.5zm0-10.12c0 1.38-1.1 2.5-2.5 2.5-1.37 0-2.5-1.12-2.5-2.5s1.13-2.5 2.5-2.5c1.4 0 2.5 1.12 2.5 2.5zm0-10.13c0 1.37-1.1 2.5-2.5 2.5-1.37 0-2.5-1.13-2.5-2.5 0-1.4 1.13-2.5 2.5-2.5 1.4 0 2.5 1.1 2.5 2.5zm0-10.13c0 1.38-1.1 2.5-2.5 2.5-1.37 0-2.5-1.12-2.5-2.5s1.13-2.5 2.5-2.5c1.4 0 2.5 1.12 2.5 2.5zm0-10.13c0 1.38-1.1 2.5-2.5 2.5-1.37 0-2.5-1.12-2.5-2.5s1.13-2.5 2.5-2.5c1.4 0 2.5 1.12 2.5 2.5zm0-10.12c0 1.38-1.1 2.5-2.5 2.5-1.37 0-2.5-1.12-2.5-2.5s1.13-2.5 2.5-2.5c1.4 0 2.5 1.12 2.5 2.5zm0-10.13c0 1.37-1.1 2.5-2.5 2.5-1.37 0-2.5-1.13-2.5-2.5 0-1.4 1.13-2.5 2.5-2.5 1.4 0 2.5 1.1 2.5 2.5zm0-10.13c0 1.38-1.1 2.5-2.5 2.5-1.37 0-2.5-1.12-2.5-2.5s1.13-2.5 2.5-2.5c1.4 0 2.5 1.12 2.5 2.5zm0-10.13c0 1.38-1.1 2.5-2.5 2.5-1.37 0-2.5-1.12-2.5-2.5s1.13-2.5 2.5-2.5c1.4 0 2.5 1.12 2.5 2.5zm0-10.12c0 1.38-1.1 2.5-2.5 2.5-1.37 0-2.5-1.12-2.5-2.5s1.13-2.5 2.5-2.5c1.4 0 2.5 1.12 2.5 2.5zm0-10.13c0 1.37-1.1 2.5-2.5 2.5-1.37 0-2.5-1.13-2.5-2.5 0-1.4 1.13-2.5 2.5-2.5 1.4 0 2.5 1.1 2.5 2.5zm0-10.13c0 1.38-1.1 2.5-2.5 2.5-1.37 0-2.5-1.12-2.5-2.5s1.13-2.5 2.5-2.5c1.4 0 2.5 1.12 2.5 2.5zm0-10.13c0 1.38-1.1 2.5-2.5 2.5-1.37 0-2.5-1.12-2.5-2.5s1.13-2.5 2.5-2.5c1.4 0 2.5 1.12 2.5 2.5zm0-10.12c0 1.38-1.1 2.5-2.5 2.5-1.37 0-2.5-1.12-2.5-2.5s1.13-2.5 2.5-2.5c1.4 0 2.5 1.12 2.5 2.5zm0-10.13c0 1.37-1.1 2.5-2.5 2.5-1.37 0-2.5-1.13-2.5-2.5 0-1.4 1.13-2.5 2.5-2.5 1.4 0 2.5 1.1 2.5 2.5z" fill="#5e5e5e"/><path d="M2852.95-6357.8h200" fill="none"/><path d="M2855.45-6357.8c0 1.37-1.12 2.5-2.5 2.5s-2.5-1.13-2.5-2.5c0-1.4 1.12-2.5 2.5-2.5s2.5 1.1 2.5 2.5zm10 0c0 1.37-1.12 2.5-2.5 2.5s-2.5-1.13-2.5-2.5c0-1.4 1.12-2.5 2.5-2.5s2.5 1.1 2.5 2.5zm10 0c0 1.37-1.12 2.5-2.5 2.5s-2.5-1.13-2.5-2.5c0-1.4 1.12-2.5 2.5-2.5s2.5 1.1 2.5 2.5zm10 0c0 1.37-1.12 2.5-2.5 2.5s-2.5-1.13-2.5-2.5c0-1.4 1.12-2.5 2.5-2.5s2.5 1.1 2.5 2.5zm10 0c0 1.37-1.12 2.5-2.5 2.5s-2.5-1.13-2.5-2.5c0-1.4 1.12-2.5 2.5-2.5s2.5 1.1 2.5 2.5zm10 0c0 1.37-1.12 2.5-2.5 2.5s-2.5-1.13-2.5-2.5c0-1.4 1.12-2.5 2.5-2.5s2.5 1.1 2.5 2.5zm10 0c0 1.37-1.12 2.5-2.5 2.5s-2.5-1.13-2.5-2.5c0-1.4 1.12-2.5 2.5-2.5s2.5 1.1 2.5 2.5zm10 0c0 1.37-1.12 2.5-2.5 2.5s-2.5-1.13-2.5-2.5c0-1.4 1.12-2.5 2.5-2.5s2.5 1.1 2.5 2.5zm10 0c0 1.37-1.12 2.5-2.5 2.5s-2.5-1.13-2.5-2.5c0-1.4 1.12-2.5 2.5-2.5s2.5 1.1 2.5 2.5zm10 0c0 1.37-1.12 2.5-2.5 2.5s-2.5-1.13-2.5-2.5c0-1.4 1.12-2.5 2.5-2.5s2.5 1.1 2.5 2.5zm10 0c0 1.37-1.12 2.5-2.5 2.5s-2.5-1.13-2.5-2.5c0-1.4 1.12-2.5 2.5-2.5s2.5 1.1 2.5 2.5zm10 0c0 1.37-1.12 2.5-2.5 2.5s-2.5-1.13-2.5-2.5c0-1.4 1.12-2.5 2.5-2.5s2.5 1.1 2.5 2.5zm10 0c0 1.37-1.12 2.5-2.5 2.5s-2.5-1.13-2.5-2.5c0-1.4 1.12-2.5 2.5-2.5s2.5 1.1 2.5 2.5zm10 0c0 1.37-1.12 2.5-2.5 2.5s-2.5-1.13-2.5-2.5c0-1.4 1.12-2.5 2.5-2.5s2.5 1.1 2.5 2.5zm10 0c0 1.37-1.12 2.5-2.5 2.5s-2.5-1.13-2.5-2.5c0-1.4 1.12-2.5 2.5-2.5s2.5 1.1 2.5 2.5zm10 0c0 1.37-1.12 2.5-2.5 2.5s-2.5-1.13-2.5-2.5c0-1.4 1.12-2.5 2.5-2.5s2.5 1.1 2.5 2.5zm10 0c0 1.37-1.12 2.5-2.5 2.5s-2.5-1.13-2.5-2.5c0-1.4 1.12-2.5 2.5-2.5s2.5 1.1 2.5 2.5zm10 0c0 1.37-1.12 2.5-2.5 2.5s-2.5-1.13-2.5-2.5c0-1.4 1.12-2.5 2.5-2.5s2.5 1.1 2.5 2.5zm10 0c0 1.37-1.12 2.5-2.5 2.5s-2.5-1.13-2.5-2.5c0-1.4 1.12-2.5 2.5-2.5s2.5 1.1 2.5 2.5zm10 0c0 1.37-1.12 2.5-2.5 2.5s-2.5-1.13-2.5-2.5c0-1.4 1.12-2.5 2.5-2.5s2.5 1.1 2.5 2.5z" fill="#5e5e5e"/><use xlink:href="#a" transform="matrix(1,0,0,1,2862.9523809524208,-6420.808398950131) translate(15.401234567901241 22.611111111111114)"/><use xlink:href="#h" transform="matrix(1,0,0,1,2862.9523809524208,-6420.808398950131) translate(93.17901234567901 22.611111111111114)"/><use xlink:href="#i" transform="matrix(1,0,0,1,2862.9523809524208,-6420.808398950131) translate(42.53086419753086 49.277777777777786)"/><path d="M3180-6377.8c0-27.62 22.4-50 50-50h100c27.6 0 50 22.38 50 50v88c0 27.6-22.4 50-50 50h-100c-27.6 0-50-22.4-50-50z" stroke="#5e5e5e" stroke-width="2" fill="#fff"/><use xlink:href="#a" transform="matrix(1,0,0,1,3185,-6422.808398950131) translate(14.84567901234567 95.65277777777777)"/><use xlink:href="#g" transform="matrix(1,0,0,1,3185,-6422.808398950131) translate(92.62345679012344 95.65277777777777)"/><path d="M5338.2-6424v-670c0-3.3-2.68-6-6-6H2600.7c-3.3 0-6 2.7-6 6v652.5" stroke="#5e5e5e" stroke-width="2" fill="none"/><path d="M5339.2-6423h-2v-1.03h2z" fill="#5e5e5e"/><path d="M2594.68-6426.24l-4.63-14.26h9.27z" stroke="#5e5e5e" stroke-width="2" fill="#5e5e5e"/><use xlink:href="#j" transform="matrix(1,0,0,1,5224.871980892578,-6796.894893046753) translate(0 14.222222222222223)"/><path d="M5222.82-6340.08h-137.8" stroke="#5e5e5e" stroke-width="2" fill="none"/><path d="M5223.82-6339.08h-1.03v-2h1.02z" fill="#5e5e5e"/><path d="M5069.77-6340.08l14.26-4.64v9.27z" stroke="#5e5e5e" stroke-width="2" fill="#5e5e5e"/><path d="M4860.53-6338.5h-64.97c-.03 0-.06-.03-.06-.07 0-.04-.03-.07-.07-.07h-47.47" stroke="#5e5e5e" stroke-width="2" fill="none"/><path d="M4861.53-6337.5h-1.03v-2h1.03z" fill="#5e5e5e"/><path d="M4732.7-6338.64l14.26-4.63v9.27z" stroke="#5e5e5e" stroke-width="2" fill="#5e5e5e"/><path d="M3900-6650c0-27.6 22.4-50 50-50h100c27.6 0 50 22.4 50 50v88c0 27.6-22.4 50-50 50h-100c-27.6 0-50-22.4-50-50z" stroke="#5e5e5e" stroke-width="2" fill="#fff"/><use xlink:href="#a" transform="matrix(1,0,0,1,3905,-6695) translate(26.543209876543216 95.65277777777777)"/><use xlink:href="#b" transform="matrix(1,0,0,1,3905,-6695) translate(104.32098765432099 95.65277777777777)"/><path d="M4584-6430.5V-6600c0-3.3-2.7-6-6-6h-458.5" stroke="#5e5e5e" stroke-width="2" fill="none"/><path d="M4585-6429.5h-2v-1.03h2z" fill="#5e5e5e"/><path d="M4104.24-6606l14.26-4.64v9.28z" stroke="#5e5e5e" stroke-width="2" fill="#5e5e5e"/><use xlink:href="#k" transform="matrix(1,0,0,1,4329.432098765433,-6631.333333333334) translate(0 14.222222222222223)"/><path d="M4526.46-6334.5H4119.5" stroke="#5e5e5e" stroke-width="2" fill="none"/><path d="M4527.46-6333.5h-1.02v-2h1.02z" fill="#5e5e5e"/><path d="M4104.24-6334.5l14.26-4.64v9.28z" stroke="#5e5e5e" stroke-width="2" fill="#5e5e5e"/><use xlink:href="#l" transform="matrix(1,0,0,1,4291.283950617284,-6359.833333333334) translate(0 14.222222222222223)"/><path d="M3900-6087.43c0-27.6 22.4-50 50-50h100c27.6 0 50 22.4 50 50v88c0 27.62-22.4 50-50 50h-100c-27.6 0-50-22.38-50-50z" stroke="#5e5e5e" stroke-width="2" fill="#fff"/><use xlink:href="#a" transform="matrix(1,0,0,1,3905,-6132.4285409109925) translate(26.543209876543216 95.65277777777777)"/><use xlink:href="#b" transform="matrix(1,0,0,1,3905,-6132.4285409109925) translate(104.32098765432099 95.65277777777777)"/><path d="M4896-6242.5v193.07c0 3.32-2.7 6-6 6h-770.5" stroke="#5e5e5e" stroke-width="2" fill="none"/><path d="M4897-6242.47h-2v-1.03h2z" fill="#5e5e5e"/><path d="M4104.24-6043.43l14.26-4.63v9.27z" stroke="#5e5e5e" stroke-width="2" fill="#5e5e5e"/><use xlink:href="#m" transform="matrix(1,0,0,1,4687.777777777777,-6068.7618742443265) translate(0 14.222222222222223)"/><path d="M3900-5806.14c0-27.62 22.4-50 50-50h100c27.6 0 50 22.38 50 50v88c0 27.6-22.4 50-50 50h-100c-27.6 0-50-22.4-50-50z" stroke="#5e5e5e" stroke-width="2" fill="#fff"/><use xlink:href="#a" transform="matrix(1,0,0,1,3905,-5851.142811366489) translate(26.543209876543216 95.65277777777777)"/><use xlink:href="#b" transform="matrix(1,0,0,1,3905,-5851.142811366489) translate(104.32098765432099 95.65277777777777)"/><path d="M4942.67-6242.5v474.36c0 3.3-2.7 6-6 6H4119.5" stroke="#5e5e5e" stroke-width="2" fill="none"/><path d="M4943.67-6242.47h-2v-1.03h2z" fill="#5e5e5e"/><path d="M4104.24-5762.14l14.26-4.64v9.27z" stroke="#5e5e5e" stroke-width="2" fill="#5e5e5e"/><use xlink:href="#n" transform="matrix(1,0,0,1,4706.989172571804,-5787.476144699823) translate(0 14.222222222222223)"/><path d="M3900-5524.86c0-27.6 22.4-50 50-50h100c27.6 0 50 22.4 50 50v88c0 27.62-22.4 50-50 50h-100c-27.6 0-50-22.38-50-50z" stroke="#5e5e5e" stroke-width="2" fill="#fff"/><use xlink:href="#a" transform="matrix(1,0,0,1,3905,-5569.857081821985) translate(26.543209876543216 95.65277777777777)"/><use xlink:href="#b" transform="matrix(1,0,0,1,3905,-5569.857081821985) translate(104.32098765432099 95.65277777777777)"/><path d="M4990.67-6242.5v755.64c0 3.32-2.7 6-6 6H4119.5" stroke="#5e5e5e" stroke-width="2" fill="none"/><path d="M4991.67-6242.47h-2v-1.03h2z" fill="#5e5e5e"/><path d="M4104.24-5480.86l14.26-4.63v9.28z" stroke="#5e5e5e" stroke-width="2" fill="#5e5e5e"/><use xlink:href="#o" transform="matrix(1,0,0,1,4618.550709508037,-5506.190415155318) translate(0 14.222222222222223)"/><path d="M2702.5-6340h129.45" stroke="#5e5e5e" stroke-width="2" fill="none"/><path d="M2702.53-6339h-1.03v-2h1.03z" fill="#5e5e5e"/><path d="M2847.22-6340l-14.27 4.64v-9.28z" stroke="#5e5e5e" stroke-width="2" fill="#5e5e5e"/><path d="M3056.45-6339.3h104.05" stroke="#5e5e5e" stroke-width="2" fill="none"/><path d="M3056.48-6338.3h-1.03v-2h1.03z" fill="#5e5e5e"/><path d="M3175.76-6339.3l-14.26 4.63v-9.27z" stroke="#5e5e5e" stroke-width="2" fill="#5e5e5e"/><path d="M3381.35-6385.77h502.13" stroke="#5e5e5e" stroke-width="2" fill="none"/><path d="M3381.38-6384.77h-.9l-.22-1.77-.05-.23h1.18z" fill="#5e5e5e"/><path d="M3898.75-6385.77l-14.27 4.64v-9.27z" stroke="#5e5e5e" stroke-width="2" fill="#5e5e5e"/><use xlink:href="#p" transform="matrix(1,0,0,1,3482.434302992567,-6411.100677768945) translate(0 14.222222222222223)"/><path d="M3330.84-6429.77v-136.1c0-3.3 2.7-6 6-6h543.66" stroke="#5e5e5e" stroke-width="2" fill="none"/><path d="M3331.84-6428.72l-1.82-.1h-.18v-.97h2z" fill="#5e5e5e"/><path d="M3895.76-6571.87l-14.26 4.64v-9.27z" stroke="#5e5e5e" stroke-width="2" fill="#5e5e5e"/><use xlink:href="#q" transform="matrix(1,0,0,1,3339.061728395062,-6597.200000000001) translate(0 14.222222222222223)"/><path d="M3029.33-6243.3v193.87c0 3.32 2.7 6 6 6h845.17" stroke="#5e5e5e" stroke-width="2" fill="none"/><path d="M3030.33-6243.28h-2v-1.03h2z" fill="#5e5e5e"/><path d="M3895.76-6043.43l-14.26 4.64v-9.26z" stroke="#5e5e5e" stroke-width="2" fill="#5e5e5e"/><use xlink:href="#m" transform="matrix(1,0,0,1,3078.8202114389314,-6068.7618742443265) translate(0 14.222222222222223)"/><path d="M2974.67-6243.3v509.03c0 3.32 2.68 6 6 6h899.83" stroke="#5e5e5e" stroke-width="2" fill="none"/><path d="M2975.67-6243.28h-2v-1.03h2z" fill="#5e5e5e"/><path d="M3895.76-5728.27l-14.26 4.64v-9.27z" stroke="#5e5e5e" stroke-width="2" fill="#5e5e5e"/><use xlink:href="#n" transform="matrix(1,0,0,1,3035.8518518518517,-5753.6) translate(0 14.222222222222223)"/><path d="M3860.5-6603.87h-74.43c-3.3 0-6 2.7-6 6v25" stroke="#5e5e5e" stroke-width="2" fill="none"/><path d="M3875.76-6603.87l-14.26 4.64v-9.27z" stroke="#5e5e5e" stroke-width="2" fill="#5e5e5e"/><path d="M3780.07-6572.9v1.03M3871.24-6421.2h-134c-3.32 0-6 2.67-6 6v28.43" stroke="#5e5e5e" stroke-width="2" fill="none"/><path d="M3886.5-6421.2l-14.26 4.62v-9.27z" stroke="#5e5e5e" stroke-width="2" fill="#5e5e5e"/><path d="M3731.23-6386.8v1.03M3860.5-6066h-53.32c-3.3 0-6 2.7-6 6v15.57" stroke="#5e5e5e" stroke-width="2" fill="none"/><path d="M3875.76-6066l-14.26 4.64v-9.28z" stroke="#5e5e5e" stroke-width="2" fill="#5e5e5e"/><path d="M3801.18-6044.45v1.02M3860.5-5760.27h-43.8c-3.32 0-6 2.7-6 6v25" stroke="#5e5e5e" stroke-width="2" fill="none"/><path d="M3875.76-5760.27l-14.26 4.64v-9.27z" stroke="#5e5e5e" stroke-width="2" fill="#5e5e5e"/><path d="M3810.7-5729.3v1.03M4088.12-5582.08h82.98c3.3 0 6 2.7 6 6v94.22" stroke="#5e5e5e" stroke-width="2" fill="none"/><path d="M4072.86-5582.08l14.26-4.63v9.26z" stroke="#5e5e5e" stroke-width="2" fill="#5e5e5e"/><path d="M4177.1-5481.88v1.02M4086-5864.5h72.97c3.3 0 6 2.7 6 6v95.36" stroke="#5e5e5e" stroke-width="2" fill="none"/><path d="M4070.74-5864.5l14.27-4.62v9.27z" stroke="#5e5e5e" stroke-width="2" fill="#5e5e5e"/><path d="M4164.97-5763.17v1.03M4091.5-6137.43h69.77c3.3 0 6 2.7 6 6v87" stroke="#5e5e5e" stroke-width="2" fill="none"/><path d="M4076.23-6137.43l14.27-4.64v9.27z" stroke="#5e5e5e" stroke-width="2" fill="#5e5e5e"/><path d="M4167.27-6044.45v1.02M4089.38-6420.42H4174c3.3 0 6 2.7 6 6v78.92" stroke="#5e5e5e" stroke-width="2" fill="none"/><path d="M4074.1-6420.42l14.28-4.63v9.27z" stroke="#5e5e5e" stroke-width="2" fill="#5e5e5e"/><path d="M4180-6335.53v1.03M4082.8-6707.67h87.15c3.3 0 6 2.68 6 6v94.67" stroke="#5e5e5e" stroke-width="2" fill="none"/><path d="M4067.53-6707.67l14.26-4.64v9.26z" stroke="#5e5e5e" stroke-width="2" fill="#5e5e5e"/><path d="M4175.95-6607.03v1.03M3302.67-6429.8v-202.73c0-3.32 2.68-6 6-6h571.83" stroke="#5e5e5e" stroke-width="2" fill="none"/><path d="M3303.67-6428.8h-2v-1.03h2z" fill="#5e5e5e"/><path d="M3895.76-6638.53l-14.26 4.63v-9.27z" stroke="#5e5e5e" stroke-width="2" fill="#5e5e5e"/><use xlink:href="#k" transform="matrix(1,0,0,1,3309.3710408015677,-6663.866666666667) translate(0 14.222222222222223)"/><path d="M3861-6676.8h-61.6c-3.3 0-6 2.7-6 6v31.27" stroke="#5e5e5e" stroke-width="2" fill="none"/><path d="M3876.27-6676.8l-14.27 4.64v-9.27z" stroke="#5e5e5e" stroke-width="2" fill="#5e5e5e"/><path d="M3793.4-6639.56v1.03M3380-6275.8h500.78" stroke="#5e5e5e" stroke-width="2" fill="none"/><path d="M3380.04-6274.8h-1.3l.53-2h.77z" fill="#5e5e5e"/><path d="M3896.04-6275.8l-14.26 4.63v-9.27z" stroke="#5e5e5e" stroke-width="2" fill="#5e5e5e"/><use xlink:href="#l" transform="matrix(1,0,0,1,3409.9506172839506,-6301.140871367754) translate(0 14.222222222222223)"/><path d="M3860.5-6315.87h-122.2c-3.3 0-6 2.7-6 6v33.06" stroke="#5e5e5e" stroke-width="2" fill="none"/><path d="M3875.76-6315.87l-14.26 4.64v-9.27z" stroke="#5e5e5e" stroke-width="2" fill="#5e5e5e"/><path d="M3732.3-6276.83v1.02M2924-6243.3v794.77c0 3.3 2.7 6 6 6h950.5" stroke="#5e5e5e" stroke-width="2" fill="none"/><path d="M2925-6243.28h-2v-1.03h2z" fill="#5e5e5e"/><path d="M3895.76-5442.53l-14.26 4.63v-9.27z" stroke="#5e5e5e" stroke-width="2" fill="#5e5e5e"/><use xlink:href="#o" transform="matrix(1,0,0,1,3024.2962962962965,-5467.866666666666) translate(0 14.222222222222223)"/><path d="M3860.5-5470.53h-59.23c-3.3 0-6 2.68-6 6v21" stroke="#5e5e5e" stroke-width="2" fill="none"/><path d="M3875.76-5470.53l-14.26 4.63v-9.27z" stroke="#5e5e5e" stroke-width="2" fill="#5e5e5e"/><path d="M3795.27-5443.56v1.03" stroke="#5e5e5e" stroke-width="2" fill="none"/><path d="M3880-6940.5c0-27.6 22.4-50 50-50h100c27.6 0 50 22.4 50 50v88c0 27.6-22.4 50-50 50h-100c-27.6 0-50-22.4-50-50z" stroke="#5e5e5e" stroke-width="2" fill="#fff"/><use xlink:href="#a" transform="matrix(1,0,0,1,3885,-6985.5) translate(26.543209876543216 95.65277777777777)"/><use xlink:href="#b" transform="matrix(1,0,0,1,3885,-6985.5) translate(104.32098765432099 95.65277777777777)"/><path d="M3900-6920.5c0-27.6 22.4-50 50-50h100c27.6 0 50 22.4 50 50v88c0 27.6-22.4 50-50 50h-100c-27.6 0-50-22.4-50-50z" stroke="#5e5e5e" stroke-width="2" fill="#fff"/><use xlink:href="#a" transform="matrix(1,0,0,1,3905,-6965.5) translate(26.543209876543216 95.65277777777777)"/><use xlink:href="#b" transform="matrix(1,0,0,1,3905,-6965.5) translate(104.32098765432099 95.65277777777777)"/><path d="M4674-6430.5v-440c0-3.3-2.7-6-6-6h-548.5" stroke="#5e5e5e" stroke-width="2" fill="none"/><path d="M4675-6429.5h-2v-1.03h2z" fill="#5e5e5e"/><path d="M4104.24-6876.5l14.26-4.64v9.28z" stroke="#5e5e5e" stroke-width="2" fill="#5e5e5e"/><use xlink:href="#r" transform="matrix(1,0,0,1,4503.6543209876545,-6901.833333333334) translate(0 14.222222222222223)"/><path d="M4082.8-6978.17h77.16c3.32 0 6 2.68 6 6v94.67" stroke="#5e5e5e" stroke-width="2" fill="none"/><path d="M4067.53-6978.17l14.26-4.64v9.26z" stroke="#5e5e5e" stroke-width="2" fill="#5e5e5e"/><path d="M4165.96-6877.53v1.03M3253.33-6429.8v-384.07c0-3.3 2.7-6 6-6h632.83" stroke="#5e5e5e" stroke-width="2" fill="none"/><path d="M3254.33-6428.8h-2v-1.03h2z" fill="#5e5e5e"/><path d="M3907.43-6819.87l-14.27 4.64v-9.27z" stroke="#5e5e5e" stroke-width="2" fill="#5e5e5e"/><use xlink:href="#s" transform="matrix(1,0,0,1,3267.9506172839506,-6845.2) translate(0 14.222222222222223)"/><path d="M3860.5-6867.87H3814c-3.3 0-6 2.7-6 6v41" stroke="#5e5e5e" stroke-width="2" fill="none"/><path d="M3875.76-6867.87l-14.26 4.64v-9.27z" stroke="#5e5e5e" stroke-width="2" fill="#5e5e5e"/><path d="M3808-6820.9v1.03M3224.9-6429.5v-473.7c0-3.3 2.68-6 6-6h649.6" stroke="#5e5e5e" stroke-width="2" fill="none"/><path d="M3225.9-6428.63l-2 .25v-1.15h2z" fill="#5e5e5e"/><path d="M3895.76-6909.2l-14.26 4.64v-9.28z" stroke="#5e5e5e" stroke-width="2" fill="#5e5e5e"/><use xlink:href="#r" transform="matrix(1,0,0,1,3235.6543209876545,-6934.533333333333) translate(0 14.222222222222223)"/><path d="M3860.58-6942.1H3814c-3.3 0-6 2.67-6 6v25.9" stroke="#5e5e5e" stroke-width="2" fill="none"/><path d="M3875.84-6942.1l-14.26 4.62v-9.27z" stroke="#5e5e5e" stroke-width="2" fill="#5e5e5e"/><path d="M3808-6910.23v1.03" stroke="#5e5e5e" stroke-width="2" fill="none"/><path d="M3880-5243.57c0-27.62 22.4-50 50-50h100c27.6 0 50 22.38 50 50v88c0 27.6-22.4 50-50 50h-100c-27.6 0-50-22.4-50-50z" stroke="#5e5e5e" stroke-width="2" fill="#fff"/><use xlink:href="#a" transform="matrix(1,0,0,1,3885,-5288.571352277481) translate(26.543209876543216 95.65277777777777)"/><use xlink:href="#b" transform="matrix(1,0,0,1,3885,-5288.571352277481) translate(104.32098765432099 95.65277777777777)"/><path d="M3900-5218.43c0-27.6 22.4-50 50-50h100c27.6 0 50 22.4 50 50v88c0 27.62-22.4 50-50 50h-100c-27.6 0-50-22.38-50-50z" stroke="#5e5e5e" stroke-width="2" fill="#fff"/><use xlink:href="#a" transform="matrix(1,0,0,1,3905,-5263.428434099466) translate(26.543209876543216 95.65277777777777)"/><use xlink:href="#b" transform="matrix(1,0,0,1,3905,-5263.428434099466) translate(104.32098765432099 95.65277777777777)"/><path d="M5042.67-6242.5v1062.07c0 3.32-2.7 6-6 6H4119.5" stroke="#5e5e5e" stroke-width="2" fill="none"/><path d="M5043.67-6242.47h-2v-1.03h2z" fill="#5e5e5e"/><path d="M4104.24-5174.43l14.26-4.63v9.27z" stroke="#5e5e5e" stroke-width="2" fill="#5e5e5e"/><use xlink:href="#t" transform="matrix(1,0,0,1,4669.690410226607,-5199.761767432799) translate(0 14.222222222222223)"/><path d="M4088.86-5274.7h86.9c3.32 0 6 2.67 6 6v93.27" stroke="#5e5e5e" stroke-width="2" fill="none"/><path d="M4073.6-5274.7l14.26-4.65v9.27z" stroke="#5e5e5e" stroke-width="2" fill="#5e5e5e"/><path d="M4181.76-5175.45v1.02M3001.33-6243.3v429.12c0 3.32 2.7 6 6 6h873.27" stroke="#5e5e5e" stroke-width="2" fill="none"/><path d="M3002.33-6243.28h-2v-1.03h2z" fill="#5e5e5e"/><path d="M3895.86-5808.18l-14.26 4.64v-9.27z" stroke="#5e5e5e" stroke-width="2" fill="#5e5e5e"/><use xlink:href="#u" transform="matrix(1,0,0,1,3032.1481481481483,-5833.511824427657) translate(0 14.222222222222223)"/><path d="M3860.87-5835.9h-45.1c-3.32 0-6 2.68-6 6v20.72" stroke="#5e5e5e" stroke-width="2" fill="none"/><path d="M3876.13-5835.9l-14.26 4.63v-9.27z" stroke="#5e5e5e" stroke-width="2" fill="#5e5e5e"/><path d="M3809.77-5809.2v1.02M2952.95-6243.3v722.37c0 3.3 2.7 6 6 6h921.55" stroke="#5e5e5e" stroke-width="2" fill="none"/><path d="M2953.95-6243.28h-2v-1.03h2z" fill="#5e5e5e"/><path d="M3895.76-5514.93l-14.26 4.63v-9.27z" stroke="#5e5e5e" stroke-width="2" fill="#5e5e5e"/><g><use xlink:href="#v" transform="matrix(1,0,0,1,3028.251620630774,-5540.266666666666) translate(0 14.222222222222223)"/></g><path d="M3860.5-5546.93h-56.75c-3.3 0-6 2.68-6 6v25" stroke="#5e5e5e" stroke-width="2" fill="none"/><path d="M3875.76-5546.93l-14.26 4.63v-9.27z" stroke="#5e5e5e" stroke-width="2" fill="#5e5e5e"/><path d="M3797.75-5515.96v1.03M2872-6243.3v1099.7c0 3.3 2.7 6 6 6h1002.5" stroke="#5e5e5e" stroke-width="2" fill="none"/><path d="M2873-6243.28h-2v-1.03h2z" fill="#5e5e5e"/><path d="M3895.76-5137.6l-14.26 4.64v-9.28z" stroke="#5e5e5e" stroke-width="2" fill="#5e5e5e"/><g><use xlink:href="#t" transform="matrix(1,0,0,1,3031.159953069426,-5162.933333333333) translate(0 14.222222222222223)"/></g><path d="M3860.5-5172.27h-63.8c-3.3 0-6 2.7-6 6v27.67" stroke="#5e5e5e" stroke-width="2" fill="none"/><path d="M3875.76-5172.27l-14.26 4.64v-9.27z" stroke="#5e5e5e" stroke-width="2" fill="#5e5e5e"/><path d="M3790.7-5138.63v1.03M2897.33-6243.3v1018.52c0 3.3 2.7 6 6 6h977.18M2897.33-6243.28v-1.03" stroke="#5e5e5e" stroke-width="2" fill="none"/><path d="M3895.78-5218.78l-14.27 4.63v-9.27z" stroke="#5e5e5e" stroke-width="2" fill="#5e5e5e"/><g><use xlink:href="#w" transform="matrix(1,0,0,1,3027.777777777778,-5244.116142895106) translate(0 14.222222222222223)"/></g><path d="M3862.78-5258.7h-66.1c-3.33 0-6 2.7-6 6v32.92" stroke="#5e5e5e" stroke-width="2" fill="none"/><path d="M3878.05-5258.7l-14.27 4.64v-9.27z" stroke="#5e5e5e" stroke-width="2" fill="#5e5e5e"/><path d="M3790.67-5219.8v1.02" stroke="#5e5e5e" stroke-width="2" fill="none"/><defs><path fill="#333" d="M205 0l-28-72H64L36 0H1l101-248h38L239 0h-34zm-38-99l-47-123c-12 45-31 82-46 123h93" id="x"/><path fill="#333" d="M96-169c-40 0-48 33-48 73s9 75 48 75c24 0 41-14 43-38l32 2c-6 37-31 61-74 61-59 0-76-41-82-99-10-93 101-131 147-64 4 7 5 14 7 22l-32 3c-4-21-16-35-41-35" id="y"/><path fill="#333" d="M100-194c63 0 86 42 84 106H49c0 40 14 67 53 68 26 1 43-12 49-29l28 8c-11 28-37 45-77 45C44 4 14-33 15-96c1-61 26-98 85-98zm52 81c6-60-76-77-97-28-3 7-6 17-6 28h103" id="z"/><path fill="#333" d="M135-143c-3-34-86-38-87 0 15 53 115 12 119 90S17 21 10-45l28-5c4 36 97 45 98 0-10-56-113-15-118-90-4-57 82-63 122-42 12 7 21 19 24 35" id="A"/><g id="a"><use transform="matrix(0.06172839506172839,0,0,0.06172839506172839,0,0)" xlink:href="#x"/><use transform="matrix(0.06172839506172839,0,0,0.06172839506172839,14.814814814814813,0)" xlink:href="#y"/><use transform="matrix(0.06172839506172839,0,0,0.06172839506172839,25.925925925925924,0)" xlink:href="#y"/><use transform="matrix(0.06172839506172839,0,0,0.06172839506172839,37.03703703703704,0)" xlink:href="#z"/><use transform="matrix(0.06172839506172839,0,0,0.06172839506172839,49.382716049382715,0)" xlink:href="#A"/><use transform="matrix(0.06172839506172839,0,0,0.06172839506172839,60.49382716049382,0)" xlink:href="#A"/></g><path fill="#333" d="M30-248c87 1 191-15 191 75 0 78-77 80-158 76V0H30v-248zm33 125c57 0 124 11 124-50 0-59-68-47-124-48v98" id="B"/><path fill="#333" d="M100-194c62-1 85 37 85 99 1 63-27 99-86 99S16-35 15-95c0-66 28-99 85-99zM99-20c44 1 53-31 53-75 0-43-8-75-51-75s-53 32-53 75 10 74 51 75" id="C"/><path fill="#333" d="M24 0v-261h32V0H24" id="D"/><path fill="#333" d="M24-231v-30h32v30H24zM24 0v-190h32V0H24" id="E"/><path fill="#333" d="M179-190L93 31C79 59 56 82 12 73V49c39 6 53-20 64-50L1-190h34L92-34l54-156h33" id="F"/><g id="b"><use transform="matrix(0.06172839506172839,0,0,0.06172839506172839,0,0)" xlink:href="#B"/><use transform="matrix(0.06172839506172839,0,0,0.06172839506172839,14.814814814814813,0)" xlink:href="#C"/><use transform="matrix(0.06172839506172839,0,0,0.06172839506172839,27.160493827160494,0)" xlink:href="#D"/><use transform="matrix(0.06172839506172839,0,0,0.06172839506172839,32.03703703703704,0)" xlink:href="#E"/><use transform="matrix(0.06172839506172839,0,0,0.06172839506172839,36.91358024691358,0)" xlink:href="#y"/><use transform="matrix(0.06172839506172839,0,0,0.06172839506172839,48.0246913580247,0)" xlink:href="#F"/></g><path fill="#333" d="M212-179c-10-28-35-45-73-45-59 0-87 40-87 99 0 60 29 101 89 101 43 0 62-24 78-52l27 14C228-24 195 4 139 4 59 4 22-46 18-125c-6-104 99-153 187-111 19 9 31 26 39 46" id="G"/><path fill="#333" d="M117-194c89-4 53 116 60 194h-32v-121c0-31-8-49-39-48C34-167 62-67 57 0H25l-1-190h30c1 10-1 24 2 32 11-22 29-35 61-36" id="H"/><path fill="#333" d="M59-47c-2 24 18 29 38 22v24C64 9 27 4 27-40v-127H5v-23h24l9-43h21v43h35v23H59v120" id="I"/><path fill="#333" d="M141-36C126-15 110 5 73 4 37 3 15-17 15-53c-1-64 63-63 125-63 3-35-9-54-41-54-24 1-41 7-42 31l-33-3c5-37 33-52 76-52 45 0 72 20 72 64v82c-1 20 7 32 28 27v20c-31 9-61-2-59-35zM48-53c0 20 12 33 32 33 41-3 63-29 60-74-43 2-92-5-92 41" id="J"/><path fill="#333" d="M114-163C36-179 61-72 57 0H25l-1-190h30c1 12-1 29 2 39 6-27 23-49 58-41v29" id="K"/><g id="c"><use transform="matrix(0.06172839506172839,0,0,0.06172839506172839,0,0)" xlink:href="#G"/><use transform="matrix(0.06172839506172839,0,0,0.06172839506172839,15.987654320987653,0)" xlink:href="#C"/><use transform="matrix(0.06172839506172839,0,0,0.06172839506172839,28.333333333333332,0)" xlink:href="#H"/><use transform="matrix(0.06172839506172839,0,0,0.06172839506172839,40.67901234567901,0)" xlink:href="#I"/><use transform="matrix(0.06172839506172839,0,0,0.06172839506172839,46.851851851851855,0)" xlink:href="#J"/><use transform="matrix(0.06172839506172839,0,0,0.06172839506172839,59.19753086419753,0)" xlink:href="#E"/><use transform="matrix(0.06172839506172839,0,0,0.06172839506172839,64.07407407407408,0)" xlink:href="#H"/><use transform="matrix(0.06172839506172839,0,0,0.06172839506172839,76.41975308641976,0)" xlink:href="#z"/><use transform="matrix(0.06172839506172839,0,0,0.06172839506172839,88.76543209876544,0)" xlink:href="#K"/></g><g id="e"><use transform="matrix(0.06172839506172839,0,0,0.06172839506172839,0,0)" xlink:href="#G"/><use transform="matrix(0.06172839506172839,0,0,0.06172839506172839,15.987654320987653,0)" xlink:href="#C"/><use transform="matrix(0.06172839506172839,0,0,0.06172839506172839,28.333333333333332,0)" xlink:href="#H"/><use transform="matrix(0.06172839506172839,0,0,0.06172839506172839,40.67901234567901,0)" xlink:href="#I"/><use transform="matrix(0.06172839506172839,0,0,0.06172839506172839,46.851851851851855,0)" xlink:href="#K"/><use transform="matrix(0.06172839506172839,0,0,0.06172839506172839,54.19753086419753,0)" xlink:href="#C"/><use transform="matrix(0.06172839506172839,0,0,0.06172839506172839,66.54320987654322,0)" xlink:href="#D"/></g><path fill="#333" d="M233-177c-1 41-23 64-60 70L243 0h-38l-65-103H63V0H30v-248c88 3 205-21 203 71zM63-129c60-2 137 13 137-47 0-61-80-42-137-45v92" id="L"/><path fill="#333" d="M84 4C-5 8 30-112 23-190h32v120c0 31 7 50 39 49 72-2 45-101 50-169h31l1 190h-30c-1-10 1-25-2-33-11 22-28 36-60 37" id="M"/><g id="f"><use transform="matrix(0.06172839506172839,0,0,0.06172839506172839,0,0)" xlink:href="#L"/><use transform="matrix(0.06172839506172839,0,0,0.06172839506172839,15.987654320987653,0)" xlink:href="#z"/><use transform="matrix(0.06172839506172839,0,0,0.06172839506172839,28.333333333333332,0)" xlink:href="#A"/><use transform="matrix(0.06172839506172839,0,0,0.06172839506172839,39.44444444444444,0)" xlink:href="#C"/><use transform="matrix(0.06172839506172839,0,0,0.06172839506172839,51.79012345679012,0)" xlink:href="#M"/><use transform="matrix(0.06172839506172839,0,0,0.06172839506172839,64.1358024691358,0)" xlink:href="#K"/><use transform="matrix(0.06172839506172839,0,0,0.06172839506172839,71.48148148148148,0)" xlink:href="#y"/><use transform="matrix(0.06172839506172839,0,0,0.06172839506172839,82.5925925925926,0)" xlink:href="#z"/></g><g id="g"><use transform="matrix(0.06172839506172839,0,0,0.06172839506172839,0,0)" xlink:href="#G"/><use transform="matrix(0.06172839506172839,0,0,0.06172839506172839,15.987654320987653,0)" xlink:href="#C"/><use transform="matrix(0.06172839506172839,0,0,0.06172839506172839,28.333333333333332,0)" xlink:href="#H"/><use transform="matrix(0.06172839506172839,0,0,0.06172839506172839,40.67901234567901,0)" xlink:href="#I"/><use transform="matrix(0.06172839506172839,0,0,0.06172839506172839,46.851851851851855,0)" xlink:href="#K"/><use transform="matrix(0.06172839506172839,0,0,0.06172839506172839,54.19753086419753,0)" xlink:href="#C"/><use transform="matrix(0.06172839506172839,0,0,0.06172839506172839,66.54320987654322,0)" xlink:href="#D"/><use transform="matrix(0.06172839506172839,0,0,0.06172839506172839,71.41975308641976,0)" xlink:href="#A"/></g><g id="h"><use transform="matrix(0.06172839506172839,0,0,0.06172839506172839,0,0)" xlink:href="#G"/><use transform="matrix(0.06172839506172839,0,0,0.06172839506172839,15.987654320987653,0)" xlink:href="#C"/><use transform="matrix(0.06172839506172839,0,0,0.06172839506172839,28.333333333333332,0)" xlink:href="#H"/><use transform="matrix(0.06172839506172839,0,0,0.06172839506172839,40.67901234567901,0)" xlink:href="#I"/><use transform="matrix(0.06172839506172839,0,0,0.06172839506172839,46.851851851851855,0)" xlink:href="#K"/><use transform="matrix(0.06172839506172839,0,0,0.06172839506172839,54.19753086419753,0)" xlink:href="#C"/><use transform="matrix(0.06172839506172839,0,0,0.06172839506172839,66.54320987654322,0)" xlink:href="#D"/></g><g id="i"><use transform="matrix(0.06172839506172839,0,0,0.06172839506172839,0,0)" xlink:href="#L"/><use transform="matrix(0.06172839506172839,0,0,0.06172839506172839,15.987654320987653,0)" xlink:href="#z"/><use transform="matrix(0.06172839506172839,0,0,0.06172839506172839,28.333333333333332,0)" xlink:href="#A"/><use transform="matrix(0.06172839506172839,0,0,0.06172839506172839,39.44444444444444,0)" xlink:href="#C"/><use transform="matrix(0.06172839506172839,0,0,0.06172839506172839,51.79012345679012,0)" xlink:href="#M"/><use transform="matrix(0.06172839506172839,0,0,0.06172839506172839,64.1358024691358,0)" xlink:href="#K"/><use transform="matrix(0.06172839506172839,0,0,0.06172839506172839,71.48148148148148,0)" xlink:href="#y"/><use transform="matrix(0.06172839506172839,0,0,0.06172839506172839,82.5925925925926,0)" xlink:href="#z"/></g><path fill="#333" d="M25 0v-261h50V0H25" id="N"/><path fill="#333" d="M88-194c31-1 46 15 58 34l-1-101h50l1 261h-48c-2-10 0-23-3-31C134-8 116 4 84 4 32 4 16-41 15-95c0-56 19-97 73-99zm17 164c33 0 40-30 41-66 1-37-9-64-41-64s-38 30-39 65c0 43 13 65 39 65" id="O"/><path fill="#333" d="M135-194c53 0 70 44 70 98 0 56-19 98-73 100-31 1-45-17-59-34 3 33 2 69 2 105H25l-1-265h48c2 10 0 23 3 31 11-24 29-35 60-35zM114-30c33 0 39-31 40-66 0-38-9-64-40-64-56 0-55 130 0 130" id="P"/><path fill="#333" d="M35-132v-50h50v50H35zM35 0v-49h50V0H35" id="Q"/><path fill="#333" d="M190-63c-7 42-38 67-86 67-59 0-84-38-90-98-12-110 154-137 174-36l-49 2c-2-19-15-32-35-32-30 0-35 28-38 64-6 74 65 87 74 30" id="R"/><path fill="#333" d="M110-194c64 0 96 36 96 99 0 64-35 99-97 99-61 0-95-36-95-99 0-62 34-99 96-99zm-1 164c35 0 45-28 45-65 0-40-10-65-43-65-34 0-45 26-45 65 0 36 10 65 43 65" id="S"/><path fill="#333" d="M135-194c87-1 58 113 63 194h-50c-7-57 23-157-34-157-59 0-34 97-39 157H25l-1-190h47c2 12-1 28 3 38 12-26 28-41 61-42" id="T"/><path fill="#333" d="M115-3C79 11 28 4 28-45v-112H4v-33h27l15-45h31v45h36v33H77v99c-1 23 16 31 38 25v30" id="U"/><path fill="#333" d="M133-34C117-15 103 5 69 4 32 3 11-16 11-54c-1-60 55-63 116-61 1-26-3-47-28-47-18 1-26 9-28 27l-52-2c7-38 36-58 82-57s74 22 75 68l1 82c-1 14 12 18 25 15v27c-30 8-71 5-69-32zm-48 3c29 0 43-24 42-57-32 0-66-3-65 30 0 17 8 27 23 27" id="V"/><path fill="#333" d="M25-224v-37h50v37H25zM25 0v-190h50V0H25" id="W"/><path fill="#333" d="M137-138c1-29-70-34-71-4 15 46 118 7 119 86 1 83-164 76-172 9l43-7c4 19 20 25 44 25 33 8 57-30 24-41C81-84 22-81 20-136c-2-80 154-74 161-7" id="X"/><g id="j"><use transform="matrix(0.04938271604938272,0,0,0.04938271604938272,0,0)" xlink:href="#N"/><use transform="matrix(0.04938271604938272,0,0,0.04938271604938272,4.938271604938272,0)" xlink:href="#O"/><use transform="matrix(0.04938271604938272,0,0,0.04938271604938272,15.753086419753087,0)" xlink:href="#P"/><use transform="matrix(0.04938271604938272,0,0,0.04938271604938272,26.567901234567902,0)" xlink:href="#Q"/><use transform="matrix(0.04938271604938272,0,0,0.04938271604938272,32.44444444444444,0)" xlink:href="#R"/><use transform="matrix(0.04938271604938272,0,0,0.04938271604938272,42.32098765432099,0)" xlink:href="#S"/><use transform="matrix(0.04938271604938272,0,0,0.04938271604938272,53.135802469135804,0)" xlink:href="#T"/><use transform="matrix(0.04938271604938272,0,0,0.04938271604938272,63.95061728395062,0)" xlink:href="#U"/><use transform="matrix(0.04938271604938272,0,0,0.04938271604938272,69.82716049382717,0)" xlink:href="#V"/><use transform="matrix(0.04938271604938272,0,0,0.04938271604938272,79.70370370370371,0)" xlink:href="#W"/><use transform="matrix(0.04938271604938272,0,0,0.04938271604938272,84.64197530864197,0)" xlink:href="#T"/><use transform="matrix(0.04938271604938272,0,0,0.04938271604938272,95.45679012345678,0)" xlink:href="#X"/></g><path fill="#333" d="M123 10C108 53 80 86 19 72V37c35 8 53-11 59-39L3-190h52l48 148c12-52 28-100 44-148h51" id="Y"/><path fill="#333" d="M230 0l2-204L168 0h-37L68-204 70 0H24v-248h70l56 185 57-185h69V0h-46" id="Z"/><path fill="#333" d="M185-48c-13 30-37 53-82 52C43 2 14-33 14-96s30-98 90-98c62 0 83 45 84 108H66c0 31 8 55 39 56 18 0 30-7 34-22zm-45-69c5-46-57-63-70-21-2 6-4 13-4 21h74" id="aa"/><path fill="#333" d="M220-157c-53 9-28 100-34 157h-49v-107c1-27-5-49-29-50C55-147 81-57 75 0H25l-1-190h47c2 12-1 28 3 38 10-53 101-56 108 0 13-22 24-43 59-42 82 1 51 116 57 194h-49v-107c-1-25-5-48-29-50" id="ab"/><path fill="#333" d="M135-194c52 0 70 43 70 98 0 56-19 99-73 100-30 1-46-15-58-35L72 0H24l1-261h50v104c11-23 29-37 60-37zM114-30c31 0 40-27 40-66 0-37-7-63-39-63s-41 28-41 65c0 36 8 64 40 64" id="ac"/><path fill="#333" d="M135-150c-39-12-60 13-60 57V0H25l-1-190h47c2 13-1 29 3 40 6-28 27-53 61-41v41" id="ad"/><path fill="#333" d="M24-248c93 1 206-16 204 79-1 75-69 88-152 82V0H24v-248zm52 121c47 0 100 7 100-41 0-47-54-39-100-39v80" id="ae"/><g id="k"><use transform="matrix(0.04938271604938272,0,0,0.04938271604938272,0,0)" xlink:href="#V"/><use transform="matrix(0.04938271604938272,0,0,0.04938271604938272,9.876543209876544,0)" xlink:href="#R"/><use transform="matrix(0.04938271604938272,0,0,0.04938271604938272,19.75308641975309,0)" xlink:href="#P"/><use transform="matrix(0.04938271604938272,0,0,0.04938271604938272,30.567901234567906,0)" xlink:href="#Q"/><use transform="matrix(0.04938271604938272,0,0,0.04938271604938272,36.44444444444445,0)" xlink:href="#V"/><use transform="matrix(0.04938271604938272,0,0,0.04938271604938272,46.320987654320994,0)" xlink:href="#P"/><use transform="matrix(0.04938271604938272,0,0,0.04938271604938272,57.135802469135804,0)" xlink:href="#P"/><use transform="matrix(0.04938271604938272,0,0,0.04938271604938272,67.95061728395062,0)" xlink:href="#N"/><use transform="matrix(0.04938271604938272,0,0,0.04938271604938272,72.88888888888889,0)" xlink:href="#Y"/><use transform="matrix(0.04938271604938272,0,0,0.04938271604938272,82.76543209876543,0)" xlink:href="#Z"/><use transform="matrix(0.04938271604938272,0,0,0.04938271604938272,97.53086419753086,0)" xlink:href="#aa"/><use transform="matrix(0.04938271604938272,0,0,0.04938271604938272,107.40740740740739,0)" xlink:href="#ab"/><use transform="matrix(0.04938271604938272,0,0,0.04938271604938272,123.20987654320986,0)" xlink:href="#ac"/><use transform="matrix(0.04938271604938272,0,0,0.04938271604938272,134.02469135802468,0)" xlink:href="#aa"/><use transform="matrix(0.04938271604938272,0,0,0.04938271604938272,143.9012345679012,0)" xlink:href="#ad"/><use transform="matrix(0.04938271604938272,0,0,0.04938271604938272,150.81481481481478,0)" xlink:href="#X"/><use transform="matrix(0.04938271604938272,0,0,0.04938271604938272,160.69135802469134,0)" xlink:href="#ae"/><use transform="matrix(0.04938271604938272,0,0,0.04938271604938272,172.5432098765432,0)" xlink:href="#ad"/><use transform="matrix(0.04938271604938272,0,0,0.04938271604938272,179.45679012345676,0)" xlink:href="#S"/><use transform="matrix(0.04938271604938272,0,0,0.04938271604938272,190.27160493827157,0)" xlink:href="#U"/><use transform="matrix(0.04938271604938272,0,0,0.04938271604938272,196.1481481481481,0)" xlink:href="#aa"/><use transform="matrix(0.04938271604938272,0,0,0.04938271604938272,206.02469135802465,0)" xlink:href="#R"/><use transform="matrix(0.04938271604938272,0,0,0.04938271604938272,215.9012345679012,0)" xlink:href="#U"/><use transform="matrix(0.04938271604938272,0,0,0.04938271604938272,221.77777777777774,0)" xlink:href="#aa"/><use transform="matrix(0.04938271604938272,0,0,0.04938271604938272,231.65432098765424,0)" xlink:href="#O"/></g><path fill="#333" d="M24 0v-248h52v208h133V0H24" id="af"/><path fill="#333" d="M147 0L96-86 75-71V0H25v-261h50v150l67-79h53l-66 74L201 0h-54" id="ag"/><g id="l"><use transform="matrix(0.04938271604938272,0,0,0.04938271604938272,0,0)" xlink:href="#V"/><use transform="matrix(0.04938271604938272,0,0,0.04938271604938272,9.876543209876544,0)" xlink:href="#R"/><use transform="matrix(0.04938271604938272,0,0,0.04938271604938272,19.75308641975309,0)" xlink:href="#P"/><use transform="matrix(0.04938271604938272,0,0,0.04938271604938272,30.567901234567906,0)" xlink:href="#Q"/><use transform="matrix(0.04938271604938272,0,0,0.04938271604938272,36.44444444444445,0)" xlink:href="#V"/><use transform="matrix(0.04938271604938272,0,0,0.04938271604938272,46.320987654320994,0)" xlink:href="#P"/><use transform="matrix(0.04938271604938272,0,0,0.04938271604938272,57.135802469135804,0)" xlink:href="#P"/><use transform="matrix(0.04938271604938272,0,0,0.04938271604938272,67.95061728395062,0)" xlink:href="#N"/><use transform="matrix(0.04938271604938272,0,0,0.04938271604938272,72.88888888888889,0)" xlink:href="#Y"/><use transform="matrix(0.04938271604938272,0,0,0.04938271604938272,82.76543209876543,0)" xlink:href="#Z"/><use transform="matrix(0.04938271604938272,0,0,0.04938271604938272,97.53086419753086,0)" xlink:href="#aa"/><use transform="matrix(0.04938271604938272,0,0,0.04938271604938272,107.40740740740739,0)" xlink:href="#ab"/><use transform="matrix(0.04938271604938272,0,0,0.04938271604938272,123.20987654320986,0)" xlink:href="#ac"/><use transform="matrix(0.04938271604938272,0,0,0.04938271604938272,134.02469135802468,0)" xlink:href="#aa"/><use transform="matrix(0.04938271604938272,0,0,0.04938271604938272,143.9012345679012,0)" xlink:href="#ad"/><use transform="matrix(0.04938271604938272,0,0,0.04938271604938272,150.81481481481478,0)" xlink:href="#X"/><use transform="matrix(0.04938271604938272,0,0,0.04938271604938272,160.69135802469134,0)" xlink:href="#af"/><use transform="matrix(0.04938271604938272,0,0,0.04938271604938272,171.50617283950615,0)" xlink:href="#S"/><use transform="matrix(0.04938271604938272,0,0,0.04938271604938272,182.32098765432096,0)" xlink:href="#R"/><use transform="matrix(0.04938271604938272,0,0,0.04938271604938272,192.19753086419752,0)" xlink:href="#ag"/><use transform="matrix(0.04938271604938272,0,0,0.04938271604938272,202.07407407407408,0)" xlink:href="#aa"/><use transform="matrix(0.04938271604938272,0,0,0.04938271604938272,211.95061728395063,0)" xlink:href="#O"/></g><path fill="#333" d="M140-251c80 0 125 45 125 126S219 4 139 4C58 4 15-44 15-125s44-126 125-126zm-1 214c52 0 73-35 73-88 0-50-21-86-72-86-52 0-73 35-73 86s22 88 72 88" id="ah"/><path fill="#333" d="M231 0h-52l-39-155L100 0H48L-1-190h46L77-45c9-52 24-97 36-145h53l37 145 32-145h46" id="ai"/><g id="m"><use transform="matrix(0.04938271604938272,0,0,0.04938271604938272,0,0)" xlink:href="#V"/><use transform="matrix(0.04938271604938272,0,0,0.04938271604938272,9.876543209876544,0)" xlink:href="#R"/><use transform="matrix(0.04938271604938272,0,0,0.04938271604938272,19.75308641975309,0)" xlink:href="#P"/><use transform="matrix(0.04938271604938272,0,0,0.04938271604938272,30.567901234567906,0)" xlink:href="#Q"/><use transform="matrix(0.04938271604938272,0,0,0.04938271604938272,36.44444444444445,0)" xlink:href="#V"/><use transform="matrix(0.04938271604938272,0,0,0.04938271604938272,46.320987654320994,0)" xlink:href="#R"/><use transform="matrix(0.04938271604938272,0,0,0.04938271604938272,56.19753086419754,0)" xlink:href="#R"/><use transform="matrix(0.04938271604938272,0,0,0.04938271604938272,66.07407407407408,0)" xlink:href="#aa"/><use transform="matrix(0.04938271604938272,0,0,0.04938271604938272,75.95061728395062,0)" xlink:href="#X"/><use transform="matrix(0.04938271604938272,0,0,0.04938271604938272,85.82716049382717,0)" xlink:href="#X"/><use transform="matrix(0.04938271604938272,0,0,0.04938271604938272,95.70370370370371,0)" xlink:href="#ae"/><use transform="matrix(0.04938271604938272,0,0,0.04938271604938272,107.55555555555557,0)" xlink:href="#S"/><use transform="matrix(0.04938271604938272,0,0,0.04938271604938272,118.37037037037035,0)" xlink:href="#O"/><use transform="matrix(0.04938271604938272,0,0,0.04938271604938272,129.1851851851852,0)" xlink:href="#ah"/><use transform="matrix(0.04938271604938272,0,0,0.04938271604938272,143.01234567901236,0)" xlink:href="#ai"/><use transform="matrix(0.04938271604938272,0,0,0.04938271604938272,156.83950617283952,0)" xlink:href="#T"/><use transform="matrix(0.04938271604938272,0,0,0.04938271604938272,167.65432098765433,0)" xlink:href="#aa"/><use transform="matrix(0.04938271604938272,0,0,0.04938271604938272,177.5308641975309,0)" xlink:href="#ad"/></g><g id="n"><use transform="matrix(0.04938271604938272,0,0,0.04938271604938272,0,0)" xlink:href="#V"/><use transform="matrix(0.04938271604938272,0,0,0.04938271604938272,9.876543209876544,0)" xlink:href="#R"/><use transform="matrix(0.04938271604938272,0,0,0.04938271604938272,19.75308641975309,0)" xlink:href="#P"/><use transform="matrix(0.04938271604938272,0,0,0.04938271604938272,30.567901234567906,0)" xlink:href="#Q"/><use transform="matrix(0.04938271604938272,0,0,0.04938271604938272,36.44444444444445,0)" xlink:href="#V"/><use transform="matrix(0.04938271604938272,0,0,0.04938271604938272,46.320987654320994,0)" xlink:href="#R"/><use transform="matrix(0.04938271604938272,0,0,0.04938271604938272,56.19753086419754,0)" xlink:href="#R"/><use transform="matrix(0.04938271604938272,0,0,0.04938271604938272,66.07407407407408,0)" xlink:href="#aa"/><use transform="matrix(0.04938271604938272,0,0,0.04938271604938272,75.95061728395062,0)" xlink:href="#X"/><use transform="matrix(0.04938271604938272,0,0,0.04938271604938272,85.82716049382717,0)" xlink:href="#X"/><use transform="matrix(0.04938271604938272,0,0,0.04938271604938272,95.70370370370371,0)" xlink:href="#Z"/><use transform="matrix(0.04938271604938272,0,0,0.04938271604938272,110.46913580246914,0)" xlink:href="#aa"/><use transform="matrix(0.04938271604938272,0,0,0.04938271604938272,120.34567901234568,0)" xlink:href="#ab"/><use transform="matrix(0.04938271604938272,0,0,0.04938271604938272,136.14814814814815,0)" xlink:href="#ac"/><use transform="matrix(0.04938271604938272,0,0,0.04938271604938272,146.96296296296296,0)" xlink:href="#aa"/><use transform="matrix(0.04938271604938272,0,0,0.04938271604938272,156.8395061728395,0)" xlink:href="#ad"/><use transform="matrix(0.04938271604938272,0,0,0.04938271604938272,163.75308641975306,0)" xlink:href="#X"/></g><g id="o"><use transform="matrix(0.04938271604938272,0,0,0.04938271604938272,0,0)" xlink:href="#V"/><use transform="matrix(0.04938271604938272,0,0,0.04938271604938272,9.876543209876544,0)" xlink:href="#R"/><use transform="matrix(0.04938271604938272,0,0,0.04938271604938272,19.75308641975309,0)" xlink:href="#P"/><use transform="matrix(0.04938271604938272,0,0,0.04938271604938272,30.567901234567906,0)" xlink:href="#Q"/><use transform="matrix(0.04938271604938272,0,0,0.04938271604938272,36.44444444444445,0)" xlink:href="#V"/><use transform="matrix(0.04938271604938272,0,0,0.04938271604938272,46.320987654320994,0)" xlink:href="#R"/><use transform="matrix(0.04938271604938272,0,0,0.04938271604938272,56.19753086419754,0)" xlink:href="#R"/><use transform="matrix(0.04938271604938272,0,0,0.04938271604938272,66.07407407407408,0)" xlink:href="#aa"/><use transform="matrix(0.04938271604938272,0,0,0.04938271604938272,75.95061728395062,0)" xlink:href="#X"/><use transform="matrix(0.04938271604938272,0,0,0.04938271604938272,85.82716049382717,0)" xlink:href="#X"/><use transform="matrix(0.04938271604938272,0,0,0.04938271604938272,95.70370370370371,0)" xlink:href="#Z"/><use transform="matrix(0.04938271604938272,0,0,0.04938271604938272,110.46913580246914,0)" xlink:href="#aa"/><use transform="matrix(0.04938271604938272,0,0,0.04938271604938272,120.34567901234568,0)" xlink:href="#ab"/><use transform="matrix(0.04938271604938272,0,0,0.04938271604938272,136.14814814814815,0)" xlink:href="#ac"/><use transform="matrix(0.04938271604938272,0,0,0.04938271604938272,146.96296296296296,0)" xlink:href="#aa"/><use transform="matrix(0.04938271604938272,0,0,0.04938271604938272,156.8395061728395,0)" xlink:href="#ad"/><use transform="matrix(0.04938271604938272,0,0,0.04938271604938272,163.75308641975306,0)" xlink:href="#X"/><use transform="matrix(0.04938271604938272,0,0,0.04938271604938272,173.62962962962962,0)" xlink:href="#ae"/><use transform="matrix(0.04938271604938272,0,0,0.04938271604938272,185.48148148148147,0)" xlink:href="#ad"/><use transform="matrix(0.04938271604938272,0,0,0.04938271604938272,192.39506172839504,0)" xlink:href="#S"/><use transform="matrix(0.04938271604938272,0,0,0.04938271604938272,203.20987654320984,0)" xlink:href="#U"/><use transform="matrix(0.04938271604938272,0,0,0.04938271604938272,209.0864197530864,0)" xlink:href="#aa"/><use transform="matrix(0.04938271604938272,0,0,0.04938271604938272,218.96296296296293,0)" xlink:href="#R"/><use transform="matrix(0.04938271604938272,0,0,0.04938271604938272,228.8395061728395,0)" xlink:href="#U"/><use transform="matrix(0.04938271604938272,0,0,0.04938271604938272,234.71604938271602,0)" xlink:href="#aa"/><use transform="matrix(0.04938271604938272,0,0,0.04938271604938272,244.59259259259258,0)" xlink:href="#O"/></g><g id="p"><use transform="matrix(0.04938271604938272,0,0,0.04938271604938272,0,0)" xlink:href="#V"/><use transform="matrix(0.04938271604938272,0,0,0.04938271604938272,9.876543209876544,0)" xlink:href="#R"/><use transform="matrix(0.04938271604938272,0,0,0.04938271604938272,19.75308641975309,0)" xlink:href="#P"/><use transform="matrix(0.04938271604938272,0,0,0.04938271604938272,30.567901234567906,0)" xlink:href="#Q"/><use transform="matrix(0.04938271604938272,0,0,0.04938271604938272,36.44444444444445,0)" xlink:href="#V"/><use transform="matrix(0.04938271604938272,0,0,0.04938271604938272,46.320987654320994,0)" xlink:href="#P"/><use transform="matrix(0.04938271604938272,0,0,0.04938271604938272,57.135802469135804,0)" xlink:href="#P"/><use transform="matrix(0.04938271604938272,0,0,0.04938271604938272,67.95061728395062,0)" xlink:href="#N"/><use transform="matrix(0.04938271604938272,0,0,0.04938271604938272,72.88888888888889,0)" xlink:href="#Y"/><use transform="matrix(0.04938271604938272,0,0,0.04938271604938272,82.76543209876543,0)" xlink:href="#af"/><use transform="matrix(0.04938271604938272,0,0,0.04938271604938272,93.58024691358024,0)" xlink:href="#S"/><use transform="matrix(0.04938271604938272,0,0,0.04938271604938272,104.39506172839505,0)" xlink:href="#R"/><use transform="matrix(0.04938271604938272,0,0,0.04938271604938272,114.2716049382716,0)" xlink:href="#ag"/><use transform="matrix(0.04938271604938272,0,0,0.04938271604938272,124.14814814814814,0)" xlink:href="#aa"/><use transform="matrix(0.04938271604938272,0,0,0.04938271604938272,134.02469135802468,0)" xlink:href="#O"/></g><g id="q"><use transform="matrix(0.04938271604938272,0,0,0.04938271604938272,0,0)" xlink:href="#V"/><use transform="matrix(0.04938271604938272,0,0,0.04938271604938272,9.876543209876544,0)" xlink:href="#R"/><use transform="matrix(0.04938271604938272,0,0,0.04938271604938272,19.75308641975309,0)" xlink:href="#P"/><use transform="matrix(0.04938271604938272,0,0,0.04938271604938272,30.567901234567906,0)" xlink:href="#Q"/><use transform="matrix(0.04938271604938272,0,0,0.04938271604938272,36.44444444444445,0)" xlink:href="#V"/><use transform="matrix(0.04938271604938272,0,0,0.04938271604938272,46.320987654320994,0)" xlink:href="#P"/><use transform="matrix(0.04938271604938272,0,0,0.04938271604938272,57.135802469135804,0)" xlink:href="#P"/><use transform="matrix(0.04938271604938272,0,0,0.04938271604938272,67.95061728395062,0)" xlink:href="#N"/><use transform="matrix(0.04938271604938272,0,0,0.04938271604938272,72.88888888888889,0)" xlink:href="#Y"/><use transform="matrix(0.04938271604938272,0,0,0.04938271604938272,82.76543209876543,0)" xlink:href="#ae"/><use transform="matrix(0.04938271604938272,0,0,0.04938271604938272,94.61728395061728,0)" xlink:href="#ad"/><use transform="matrix(0.04938271604938272,0,0,0.04938271604938272,101.53086419753085,0)" xlink:href="#S"/><use transform="matrix(0.04938271604938272,0,0,0.04938271604938272,112.34567901234567,0)" xlink:href="#U"/><use transform="matrix(0.04938271604938272,0,0,0.04938271604938272,118.22222222222221,0)" xlink:href="#aa"/><use transform="matrix(0.04938271604938272,0,0,0.04938271604938272,128.09876543209876,0)" xlink:href="#R"/><use transform="matrix(0.04938271604938272,0,0,0.04938271604938272,137.9753086419753,0)" xlink:href="#U"/><use transform="matrix(0.04938271604938272,0,0,0.04938271604938272,143.85185185185182,0)" xlink:href="#aa"/><use transform="matrix(0.04938271604938272,0,0,0.04938271604938272,153.72839506172835,0)" xlink:href="#O"/></g><g id="r"><use transform="matrix(0.04938271604938272,0,0,0.04938271604938272,0,0)" xlink:href="#V"/><use transform="matrix(0.04938271604938272,0,0,0.04938271604938272,9.876543209876544,0)" xlink:href="#R"/><use transform="matrix(0.04938271604938272,0,0,0.04938271604938272,19.75308641975309,0)" xlink:href="#P"/><use transform="matrix(0.04938271604938272,0,0,0.04938271604938272,30.567901234567906,0)" xlink:href="#Q"/><use transform="matrix(0.04938271604938272,0,0,0.04938271604938272,36.44444444444445,0)" xlink:href="#V"/><use transform="matrix(0.04938271604938272,0,0,0.04938271604938272,46.320987654320994,0)" xlink:href="#P"/><use transform="matrix(0.04938271604938272,0,0,0.04938271604938272,57.135802469135804,0)" xlink:href="#P"/><use transform="matrix(0.04938271604938272,0,0,0.04938271604938272,67.95061728395062,0)" xlink:href="#N"/><use transform="matrix(0.04938271604938272,0,0,0.04938271604938272,72.88888888888889,0)" xlink:href="#Y"/><use transform="matrix(0.04938271604938272,0,0,0.04938271604938272,82.76543209876543,0)" xlink:href="#Z"/><use transform="matrix(0.04938271604938272,0,0,0.04938271604938272,97.53086419753086,0)" xlink:href="#aa"/><use transform="matrix(0.04938271604938272,0,0,0.04938271604938272,107.40740740740739,0)" xlink:href="#ab"/><use transform="matrix(0.04938271604938272,0,0,0.04938271604938272,123.20987654320986,0)" xlink:href="#ac"/><use transform="matrix(0.04938271604938272,0,0,0.04938271604938272,134.02469135802468,0)" xlink:href="#aa"/><use transform="matrix(0.04938271604938272,0,0,0.04938271604938272,143.9012345679012,0)" xlink:href="#ad"/><use transform="matrix(0.04938271604938272,0,0,0.04938271604938272,150.81481481481478,0)" xlink:href="#X"/></g><g id="s"><use transform="matrix(0.04938271604938272,0,0,0.04938271604938272,0,0)" xlink:href="#V"/><use transform="matrix(0.04938271604938272,0,0,0.04938271604938272,9.876543209876544,0)" xlink:href="#R"/><use transform="matrix(0.04938271604938272,0,0,0.04938271604938272,19.75308641975309,0)" xlink:href="#P"/><use transform="matrix(0.04938271604938272,0,0,0.04938271604938272,30.567901234567906,0)" xlink:href="#Q"/><use transform="matrix(0.04938271604938272,0,0,0.04938271604938272,36.44444444444445,0)" xlink:href="#V"/><use transform="matrix(0.04938271604938272,0,0,0.04938271604938272,46.320987654320994,0)" xlink:href="#P"/><use transform="matrix(0.04938271604938272,0,0,0.04938271604938272,57.135802469135804,0)" xlink:href="#P"/><use transform="matrix(0.04938271604938272,0,0,0.04938271604938272,67.95061728395062,0)" xlink:href="#N"/><use transform="matrix(0.04938271604938272,0,0,0.04938271604938272,72.88888888888889,0)" xlink:href="#Y"/></g><g id="t"><use transform="matrix(0.04938271604938272,0,0,0.04938271604938272,0,0)" xlink:href="#V"/><use transform="matrix(0.04938271604938272,0,0,0.04938271604938272,9.876543209876544,0)" xlink:href="#R"/><use transform="matrix(0.04938271604938272,0,0,0.04938271604938272,19.75308641975309,0)" xlink:href="#P"/><use transform="matrix(0.04938271604938272,0,0,0.04938271604938272,30.567901234567906,0)" xlink:href="#Q"/><use transform="matrix(0.04938271604938272,0,0,0.04938271604938272,36.44444444444445,0)" xlink:href="#V"/><use transform="matrix(0.04938271604938272,0,0,0.04938271604938272,46.320987654320994,0)" xlink:href="#R"/><use transform="matrix(0.04938271604938272,0,0,0.04938271604938272,56.19753086419754,0)" xlink:href="#R"/><use transform="matrix(0.04938271604938272,0,0,0.04938271604938272,66.07407407407408,0)" xlink:href="#aa"/><use transform="matrix(0.04938271604938272,0,0,0.04938271604938272,75.95061728395062,0)" xlink:href="#X"/><use transform="matrix(0.04938271604938272,0,0,0.04938271604938272,85.82716049382717,0)" xlink:href="#X"/><use transform="matrix(0.04938271604938272,0,0,0.04938271604938272,95.70370370370371,0)" xlink:href="#Z"/><use transform="matrix(0.04938271604938272,0,0,0.04938271604938272,110.46913580246914,0)" xlink:href="#aa"/><use transform="matrix(0.04938271604938272,0,0,0.04938271604938272,120.34567901234568,0)" xlink:href="#ab"/><use transform="matrix(0.04938271604938272,0,0,0.04938271604938272,136.14814814814815,0)" xlink:href="#ac"/><use transform="matrix(0.04938271604938272,0,0,0.04938271604938272,146.96296296296296,0)" xlink:href="#aa"/><use transform="matrix(0.04938271604938272,0,0,0.04938271604938272,156.8395061728395,0)" xlink:href="#ad"/><use transform="matrix(0.04938271604938272,0,0,0.04938271604938272,163.75308641975306,0)" xlink:href="#X"/><use transform="matrix(0.04938271604938272,0,0,0.04938271604938272,173.62962962962962,0)" xlink:href="#af"/><use transform="matrix(0.04938271604938272,0,0,0.04938271604938272,184.44444444444443,0)" xlink:href="#S"/><use transform="matrix(0.04938271604938272,0,0,0.04938271604938272,195.25925925925924,0)" xlink:href="#R"/><use transform="matrix(0.04938271604938272,0,0,0.04938271604938272,205.13580246913577,0)" xlink:href="#ag"/><use transform="matrix(0.04938271604938272,0,0,0.04938271604938272,215.01234567901236,0)" xlink:href="#aa"/><use transform="matrix(0.04938271604938272,0,0,0.04938271604938272,224.8888888888889,0)" xlink:href="#O"/></g><g id="u"><use transform="matrix(0.04938271604938272,0,0,0.04938271604938272,0,0)" xlink:href="#V"/><use transform="matrix(0.04938271604938272,0,0,0.04938271604938272,9.876543209876544,0)" xlink:href="#R"/><use transform="matrix(0.04938271604938272,0,0,0.04938271604938272,19.75308641975309,0)" xlink:href="#P"/><use transform="matrix(0.04938271604938272,0,0,0.04938271604938272,30.567901234567906,0)" xlink:href="#Q"/><use transform="matrix(0.04938271604938272,0,0,0.04938271604938272,36.44444444444445,0)" xlink:href="#V"/><use transform="matrix(0.04938271604938272,0,0,0.04938271604938272,46.320987654320994,0)" xlink:href="#R"/><use transform="matrix(0.04938271604938272,0,0,0.04938271604938272,56.19753086419754,0)" xlink:href="#R"/><use transform="matrix(0.04938271604938272,0,0,0.04938271604938272,66.07407407407408,0)" xlink:href="#aa"/><use transform="matrix(0.04938271604938272,0,0,0.04938271604938272,75.95061728395062,0)" xlink:href="#X"/><use transform="matrix(0.04938271604938272,0,0,0.04938271604938272,85.82716049382717,0)" xlink:href="#X"/></g><g id="v"><use transform="matrix(0.04938271604938272,0,0,0.04938271604938272,0,0)" xlink:href="#V"/><use transform="matrix(0.04938271604938272,0,0,0.04938271604938272,9.876543209876544,0)" xlink:href="#R"/><use transform="matrix(0.04938271604938272,0,0,0.04938271604938272,19.75308641975309,0)" xlink:href="#P"/><use transform="matrix(0.04938271604938272,0,0,0.04938271604938272,30.567901234567906,0)" xlink:href="#Q"/><use transform="matrix(0.04938271604938272,0,0,0.04938271604938272,36.44444444444445,0)" xlink:href="#V"/><use transform="matrix(0.04938271604938272,0,0,0.04938271604938272,46.320987654320994,0)" xlink:href="#R"/><use transform="matrix(0.04938271604938272,0,0,0.04938271604938272,56.19753086419754,0)" xlink:href="#R"/><use transform="matrix(0.04938271604938272,0,0,0.04938271604938272,66.07407407407408,0)" xlink:href="#aa"/><use transform="matrix(0.04938271604938272,0,0,0.04938271604938272,75.95061728395062,0)" xlink:href="#X"/><use transform="matrix(0.04938271604938272,0,0,0.04938271604938272,85.82716049382717,0)" xlink:href="#X"/><use transform="matrix(0.04938271604938272,0,0,0.04938271604938272,95.70370370370371,0)" xlink:href="#ae"/><use transform="matrix(0.04938271604938272,0,0,0.04938271604938272,107.55555555555557,0)" xlink:href="#ad"/><use transform="matrix(0.04938271604938272,0,0,0.04938271604938272,114.46913580246914,0)" xlink:href="#S"/><use transform="matrix(0.04938271604938272,0,0,0.04938271604938272,125.28395061728394,0)" xlink:href="#U"/><use transform="matrix(0.04938271604938272,0,0,0.04938271604938272,131.16049382716048,0)" xlink:href="#aa"/><use transform="matrix(0.04938271604938272,0,0,0.04938271604938272,141.037037037037,0)" xlink:href="#R"/><use transform="matrix(0.04938271604938272,0,0,0.04938271604938272,150.91358024691357,0)" xlink:href="#U"/><use transform="matrix(0.04938271604938272,0,0,0.04938271604938272,156.7901234567901,0)" xlink:href="#aa"/><use transform="matrix(0.04938271604938272,0,0,0.04938271604938272,166.66666666666663,0)" xlink:href="#O"/></g><g id="w"><use transform="matrix(0.04938271604938272,0,0,0.04938271604938272,0,0)" xlink:href="#V"/><use transform="matrix(0.04938271604938272,0,0,0.04938271604938272,9.876543209876544,0)" xlink:href="#R"/><use transform="matrix(0.04938271604938272,0,0,0.04938271604938272,19.75308641975309,0)" xlink:href="#P"/><use transform="matrix(0.04938271604938272,0,0,0.04938271604938272,30.567901234567906,0)" xlink:href="#Q"/><use transform="matrix(0.04938271604938272,0,0,0.04938271604938272,36.44444444444445,0)" xlink:href="#V"/><use transform="matrix(0.04938271604938272,0,0,0.04938271604938272,46.320987654320994,0)" xlink:href="#R"/><use transform="matrix(0.04938271604938272,0,0,0.04938271604938272,56.19753086419754,0)" xlink:href="#R"/><use transform="matrix(0.04938271604938272,0,0,0.04938271604938272,66.07407407407408,0)" xlink:href="#aa"/><use transform="matrix(0.04938271604938272,0,0,0.04938271604938272,75.95061728395062,0)" xlink:href="#X"/><use transform="matrix(0.04938271604938272,0,0,0.04938271604938272,85.82716049382717,0)" xlink:href="#X"/><use transform="matrix(0.04938271604938272,0,0,0.04938271604938272,95.70370370370371,0)" xlink:href="#af"/><use transform="matrix(0.04938271604938272,0,0,0.04938271604938272,106.51851851851853,0)" xlink:href="#S"/><use transform="matrix(0.04938271604938272,0,0,0.04938271604938272,117.33333333333331,0)" xlink:href="#R"/><use transform="matrix(0.04938271604938272,0,0,0.04938271604938272,127.20987654320986,0)" xlink:href="#ag"/><use transform="matrix(0.04938271604938272,0,0,0.04938271604938272,137.08641975308643,0)" xlink:href="#aa"/><use transform="matrix(0.04938271604938272,0,0,0.04938271604938272,146.962962962963,0)" xlink:href="#O"/></g></defs></g></svg>