<svg xmlns="http://www.w3.org/2000/svg" xmlns:xlink="http://www.w3.org/1999/xlink" xmlns:lucid="lucid" width="2907.02" height="1627.8"><g transform="translate(-11380 -140)" lucid:page-tab-id="boDK.z-bao0N"><path d="M11400.72 166c0-3.3 2.68-6 6-6h1853.96c3.3 0 6 2.7 6 6v1083.56c0 3.3-2.7 6-6 6h-1853.96c-3.32 0-6-2.7-6-6zM13284.75 380.6c0-3.33 2.68-6 6-6h970.27c3.32 0 6 2.67 6 6V950.5c0 3.32-2.68 6-6 6h-970.27c-3.32 0-6-2.68-6-6zM11400 1277.62c0-3.32 2.7-6 6-6h1860.2c3.32 0 6 2.68 6 6v464.18c0 3.32-2.68 6-6 6H11406c-3.3 0-6-2.68-6-6z" stroke="#5e5e5e" stroke-width="3" fill="#e5e5e5"/><path d="M13893.55 651.1c0-3.3 2.7-6 6-6h308c3.32 0 6 2.7 6 6v162c0 3.33-2.68 6-6 6h-308c-3.3 0-6-2.67-6-6z" fill="#83bbe5"/><path d="M13893.55 651.1c0-3.3 2.7-6 6-6h308c3.32 0 6 2.7 6 6v162c0 3.33-2.68 6-6 6h-308c-3.3 0-6-2.67-6-6z" fill="none"/><path d="M13896.05 651.1c0 1.4-1.12 2.5-2.5 2.5s-2.5-1.1-2.5-2.5c0-1.37 1.12-2.5 2.5-2.5s2.5 1.13 2.5 2.5zm6-6c0 1.4-1.12 2.5-2.5 2.5s-2.5-1.1-2.5-2.5c0-1.37 1.12-2.5 2.5-2.5s2.5 1.13 2.5 2.5zm9.94 0c0 1.4-1.13 2.5-2.5 2.5-1.4 0-2.5-1.1-2.5-2.5 0-1.37 1.1-2.5 2.5-2.5 1.37 0 2.5 1.13 2.5 2.5zm9.92 0c0 1.4-1.12 2.5-2.5 2.5s-2.5-1.1-2.5-2.5c0-1.37 1.12-2.5 2.5-2.5s2.5 1.13 2.5 2.5zm9.94 0c0 1.4-1.12 2.5-2.5 2.5s-2.5-1.1-2.5-2.5c0-1.37 1.12-2.5 2.5-2.5s2.5 1.13 2.5 2.5zm9.93 0c0 1.4-1.12 2.5-2.5 2.5-1.4 0-2.5-1.1-2.5-2.5 0-1.37 1.1-2.5 2.5-2.5 1.38 0 2.5 1.13 2.5 2.5zm9.93 0c0 1.4-1.12 2.5-2.5 2.5s-2.5-1.1-2.5-2.5c0-1.37 1.12-2.5 2.5-2.5s2.5 1.13 2.5 2.5zm9.94 0c0 1.4-1.12 2.5-2.5 2.5-1.4 0-2.5-1.1-2.5-2.5 0-1.37 1.1-2.5 2.5-2.5 1.38 0 2.5 1.13 2.5 2.5zm9.93 0c0 1.4-1.12 2.5-2.5 2.5s-2.5-1.1-2.5-2.5c0-1.37 1.12-2.5 2.5-2.5s2.5 1.13 2.5 2.5zm9.94 0c0 1.4-1.12 2.5-2.5 2.5s-2.5-1.1-2.5-2.5c0-1.37 1.12-2.5 2.5-2.5s2.5 1.13 2.5 2.5zm9.93 0c0 1.4-1.12 2.5-2.5 2.5s-2.5-1.1-2.5-2.5c0-1.37 1.12-2.5 2.5-2.5s2.5 1.13 2.5 2.5zm9.94 0c0 1.4-1.1 2.5-2.5 2.5-1.37 0-2.5-1.1-2.5-2.5 0-1.37 1.13-2.5 2.5-2.5 1.4 0 2.5 1.13 2.5 2.5zm9.94 0c0 1.4-1.12 2.5-2.5 2.5s-2.5-1.1-2.5-2.5c0-1.37 1.12-2.5 2.5-2.5s2.5 1.13 2.5 2.5zm9.94 0c0 1.4-1.12 2.5-2.5 2.5s-2.5-1.1-2.5-2.5c0-1.37 1.12-2.5 2.5-2.5s2.5 1.13 2.5 2.5zm9.93 0c0 1.4-1.1 2.5-2.5 2.5-1.37 0-2.5-1.1-2.5-2.5 0-1.37 1.13-2.5 2.5-2.5 1.4 0 2.5 1.13 2.5 2.5zm9.95 0c0 1.4-1.12 2.5-2.5 2.5s-2.5-1.1-2.5-2.5c0-1.37 1.12-2.5 2.5-2.5s2.5 1.13 2.5 2.5zm9.93 0c0 1.4-1.1 2.5-2.5 2.5-1.38 0-2.5-1.1-2.5-2.5 0-1.37 1.12-2.5 2.5-2.5 1.4 0 2.5 1.13 2.5 2.5zm9.94 0c0 1.4-1.12 2.5-2.5 2.5s-2.5-1.1-2.5-2.5c0-1.37 1.12-2.5 2.5-2.5s2.5 1.13 2.5 2.5zm9.94 0c0 1.4-1.12 2.5-2.5 2.5-1.4 0-2.5-1.1-2.5-2.5 0-1.37 1.1-2.5 2.5-2.5 1.38 0 2.5 1.13 2.5 2.5zm9.93 0c0 1.4-1.13 2.5-2.5 2.5-1.4 0-2.5-1.1-2.5-2.5 0-1.37 1.1-2.5 2.5-2.5 1.37 0 2.5 1.13 2.5 2.5zm9.93 0c0 1.4-1.12 2.5-2.5 2.5s-2.5-1.1-2.5-2.5c0-1.37 1.12-2.5 2.5-2.5s2.5 1.13 2.5 2.5zm9.93 0c0 1.4-1.12 2.5-2.5 2.5s-2.5-1.1-2.5-2.5c0-1.37 1.12-2.5 2.5-2.5s2.5 1.13 2.5 2.5zm9.94 0c0 1.4-1.12 2.5-2.5 2.5s-2.5-1.1-2.5-2.5c0-1.37 1.12-2.5 2.5-2.5s2.5 1.13 2.5 2.5zm9.93 0c0 1.4-1.12 2.5-2.5 2.5s-2.5-1.1-2.5-2.5c0-1.37 1.12-2.5 2.5-2.5s2.5 1.13 2.5 2.5zm9.94 0c0 1.4-1.12 2.5-2.5 2.5s-2.5-1.1-2.5-2.5c0-1.37 1.12-2.5 2.5-2.5s2.5 1.13 2.5 2.5zm9.93 0c0 1.4-1.12 2.5-2.5 2.5s-2.5-1.1-2.5-2.5c0-1.37 1.12-2.5 2.5-2.5s2.5 1.13 2.5 2.5zm9.94 0c0 1.4-1.12 2.5-2.5 2.5s-2.5-1.1-2.5-2.5c0-1.37 1.12-2.5 2.5-2.5s2.5 1.13 2.5 2.5zm9.93 0c0 1.4-1.1 2.5-2.5 2.5-1.38 0-2.5-1.1-2.5-2.5 0-1.37 1.12-2.5 2.5-2.5 1.4 0 2.5 1.13 2.5 2.5zm9.94 0c0 1.4-1.1 2.5-2.5 2.5-1.37 0-2.5-1.1-2.5-2.5 0-1.37 1.13-2.5 2.5-2.5 1.4 0 2.5 1.13 2.5 2.5zm9.95 0c0 1.4-1.12 2.5-2.5 2.5s-2.5-1.1-2.5-2.5c0-1.37 1.12-2.5 2.5-2.5s2.5 1.13 2.5 2.5zm9.93 0c0 1.4-1.12 2.5-2.5 2.5s-2.5-1.1-2.5-2.5c0-1.37 1.12-2.5 2.5-2.5s2.5 1.13 2.5 2.5zm9.94 0c0 1.4-1.12 2.5-2.5 2.5s-2.5-1.1-2.5-2.5c0-1.37 1.12-2.5 2.5-2.5s2.5 1.13 2.5 2.5zm9.93 0c0 1.4-1.12 2.5-2.5 2.5s-2.5-1.1-2.5-2.5c0-1.37 1.12-2.5 2.5-2.5s2.5 1.13 2.5 2.5zm6 6c0 1.4-1.12 2.5-2.5 2.5s-2.5-1.1-2.5-2.5c0-1.37 1.12-2.5 2.5-2.5s2.5 1.13 2.5 2.5zm0 10.14c0 1.38-1.12 2.5-2.5 2.5s-2.5-1.12-2.5-2.5 1.12-2.5 2.5-2.5 2.5 1.12 2.5 2.5zm0 10.12c0 1.38-1.12 2.5-2.5 2.5s-2.5-1.12-2.5-2.5 1.12-2.5 2.5-2.5 2.5 1.12 2.5 2.5zm0 10.13c0 1.37-1.12 2.5-2.5 2.5s-2.5-1.13-2.5-2.5c0-1.4 1.12-2.5 2.5-2.5s2.5 1.1 2.5 2.5zm0 10.1c0 1.4-1.12 2.5-2.5 2.5s-2.5-1.1-2.5-2.5c0-1.37 1.12-2.5 2.5-2.5s2.5 1.13 2.5 2.5zm0 10.14c0 1.38-1.12 2.5-2.5 2.5s-2.5-1.12-2.5-2.5 1.12-2.5 2.5-2.5 2.5 1.12 2.5 2.5zm0 10.12c0 1.38-1.12 2.5-2.5 2.5s-2.5-1.12-2.5-2.5 1.12-2.5 2.5-2.5 2.5 1.12 2.5 2.5zm0 10.13c0 1.37-1.12 2.5-2.5 2.5s-2.5-1.13-2.5-2.5c0-1.4 1.12-2.5 2.5-2.5s2.5 1.1 2.5 2.5zm0 10.1c0 1.4-1.12 2.5-2.5 2.5s-2.5-1.1-2.5-2.5c0-1.37 1.12-2.5 2.5-2.5s2.5 1.13 2.5 2.5zm0 10.14c0 1.38-1.12 2.5-2.5 2.5s-2.5-1.12-2.5-2.5 1.12-2.5 2.5-2.5 2.5 1.12 2.5 2.5zm0 10.12c0 1.38-1.12 2.5-2.5 2.5s-2.5-1.12-2.5-2.5 1.12-2.5 2.5-2.5 2.5 1.12 2.5 2.5zm0 10.13c0 1.37-1.12 2.5-2.5 2.5s-2.5-1.13-2.5-2.5c0-1.4 1.12-2.5 2.5-2.5s2.5 1.1 2.5 2.5zm0 10.1c0 1.4-1.12 2.5-2.5 2.5s-2.5-1.1-2.5-2.5c0-1.37 1.12-2.5 2.5-2.5s2.5 1.13 2.5 2.5zm0 10.14c0 1.38-1.12 2.5-2.5 2.5s-2.5-1.12-2.5-2.5 1.12-2.5 2.5-2.5 2.5 1.12 2.5 2.5zm0 10.12c0 1.38-1.12 2.5-2.5 2.5s-2.5-1.12-2.5-2.5 1.12-2.5 2.5-2.5 2.5 1.12 2.5 2.5zm0 10.13c0 1.37-1.12 2.5-2.5 2.5s-2.5-1.13-2.5-2.5c0-1.4 1.12-2.5 2.5-2.5s2.5 1.1 2.5 2.5zm0 10.1c0 1.4-1.12 2.5-2.5 2.5s-2.5-1.1-2.5-2.5c0-1.37 1.12-2.5 2.5-2.5s2.5 1.13 2.5 2.5zm-6 6c0 1.4-1.12 2.5-2.5 2.5s-2.5-1.1-2.5-2.5c0-1.37 1.12-2.5 2.5-2.5s2.5 1.13 2.5 2.5zm-9.93 0c0 1.4-1.12 2.5-2.5 2.5s-2.5-1.1-2.5-2.5c0-1.37 1.12-2.5 2.5-2.5s2.5 1.13 2.5 2.5zm-9.94 0c0 1.4-1.12 2.5-2.5 2.5s-2.5-1.1-2.5-2.5c0-1.37 1.12-2.5 2.5-2.5s2.5 1.13 2.5 2.5zm-9.93 0c0 1.4-1.12 2.5-2.5 2.5s-2.5-1.1-2.5-2.5c0-1.37 1.12-2.5 2.5-2.5s2.5 1.13 2.5 2.5zm-9.94 0c0 1.4-1.1 2.5-2.5 2.5-1.37 0-2.5-1.1-2.5-2.5 0-1.37 1.13-2.5 2.5-2.5 1.4 0 2.5 1.13 2.5 2.5zm-9.93 0c0 1.4-1.1 2.5-2.5 2.5-1.38 0-2.5-1.1-2.5-2.5 0-1.37 1.12-2.5 2.5-2.5 1.4 0 2.5 1.13 2.5 2.5zm-9.93 0c0 1.4-1.12 2.5-2.5 2.5s-2.5-1.1-2.5-2.5c0-1.37 1.12-2.5 2.5-2.5s2.5 1.13 2.5 2.5zm-9.94 0c0 1.4-1.12 2.5-2.5 2.5s-2.5-1.1-2.5-2.5c0-1.37 1.12-2.5 2.5-2.5s2.5 1.13 2.5 2.5zm-9.93 0c0 1.4-1.12 2.5-2.5 2.5s-2.5-1.1-2.5-2.5c0-1.37 1.12-2.5 2.5-2.5s2.5 1.13 2.5 2.5zm-9.94 0c0 1.4-1.12 2.5-2.5 2.5s-2.5-1.1-2.5-2.5c0-1.37 1.12-2.5 2.5-2.5s2.5 1.13 2.5 2.5zm-9.93 0c0 1.4-1.12 2.5-2.5 2.5s-2.5-1.1-2.5-2.5c0-1.37 1.12-2.5 2.5-2.5s2.5 1.13 2.5 2.5zm-9.94 0c0 1.4-1.12 2.5-2.5 2.5s-2.5-1.1-2.5-2.5c0-1.37 1.12-2.5 2.5-2.5s2.5 1.13 2.5 2.5zm-9.93 0c0 1.4-1.12 2.5-2.5 2.5s-2.5-1.1-2.5-2.5c0-1.37 1.12-2.5 2.5-2.5s2.5 1.13 2.5 2.5zm-9.94 0c0 1.4-1.13 2.5-2.5 2.5-1.4 0-2.5-1.1-2.5-2.5 0-1.37 1.1-2.5 2.5-2.5 1.37 0 2.5 1.13 2.5 2.5zm-9.94 0c0 1.4-1.12 2.5-2.5 2.5-1.4 0-2.5-1.1-2.5-2.5 0-1.37 1.1-2.5 2.5-2.5 1.38 0 2.5 1.13 2.5 2.5zm-9.94 0c0 1.4-1.12 2.5-2.5 2.5s-2.5-1.1-2.5-2.5c0-1.37 1.12-2.5 2.5-2.5s2.5 1.13 2.5 2.5zm-9.94 0c0 1.4-1.1 2.5-2.5 2.5-1.38 0-2.5-1.1-2.5-2.5 0-1.37 1.12-2.5 2.5-2.5 1.4 0 2.5 1.13 2.5 2.5zm-9.93 0c0 1.4-1.12 2.5-2.5 2.5s-2.5-1.1-2.5-2.5c0-1.37 1.12-2.5 2.5-2.5s2.5 1.13 2.5 2.5zm-9.94 0c0 1.4-1.1 2.5-2.5 2.5-1.37 0-2.5-1.1-2.5-2.5 0-1.37 1.13-2.5 2.5-2.5 1.4 0 2.5 1.13 2.5 2.5zm-9.92 0c0 1.4-1.12 2.5-2.5 2.5s-2.5-1.1-2.5-2.5c0-1.37 1.12-2.5 2.5-2.5s2.5 1.13 2.5 2.5zm-9.94 0c0 1.4-1.12 2.5-2.5 2.5s-2.5-1.1-2.5-2.5c0-1.37 1.12-2.5 2.5-2.5s2.5 1.13 2.5 2.5zm-9.93 0c0 1.4-1.1 2.5-2.5 2.5-1.37 0-2.5-1.1-2.5-2.5 0-1.37 1.13-2.5 2.5-2.5 1.4 0 2.5 1.13 2.5 2.5zm-9.93 0c0 1.4-1.12 2.5-2.5 2.5s-2.5-1.1-2.5-2.5c0-1.37 1.12-2.5 2.5-2.5s2.5 1.13 2.5 2.5zm-9.93 0c0 1.4-1.12 2.5-2.5 2.5s-2.5-1.1-2.5-2.5c0-1.37 1.12-2.5 2.5-2.5s2.5 1.13 2.5 2.5zm-9.94 0c0 1.4-1.12 2.5-2.5 2.5s-2.5-1.1-2.5-2.5c0-1.37 1.12-2.5 2.5-2.5s2.5 1.13 2.5 2.5zm-9.93 0c0 1.4-1.12 2.5-2.5 2.5-1.4 0-2.5-1.1-2.5-2.5 0-1.37 1.1-2.5 2.5-2.5 1.38 0 2.5 1.13 2.5 2.5zm-9.94 0c0 1.4-1.12 2.5-2.5 2.5s-2.5-1.1-2.5-2.5c0-1.37 1.12-2.5 2.5-2.5s2.5 1.13 2.5 2.5zm-9.94 0c0 1.4-1.12 2.5-2.5 2.5-1.4 0-2.5-1.1-2.5-2.5 0-1.37 1.1-2.5 2.5-2.5 1.38 0 2.5 1.13 2.5 2.5zm-9.94 0c0 1.4-1.12 2.5-2.5 2.5s-2.5-1.1-2.5-2.5c0-1.37 1.12-2.5 2.5-2.5s2.5 1.13 2.5 2.5zm-9.94 0c0 1.4-1.12 2.5-2.5 2.5s-2.5-1.1-2.5-2.5c0-1.37 1.12-2.5 2.5-2.5s2.5 1.13 2.5 2.5zm-9.93 0c0 1.4-1.13 2.5-2.5 2.5-1.4 0-2.5-1.1-2.5-2.5 0-1.37 1.1-2.5 2.5-2.5 1.37 0 2.5 1.13 2.5 2.5zm-9.95 0c0 1.4-1.12 2.5-2.5 2.5s-2.5-1.1-2.5-2.5c0-1.37 1.12-2.5 2.5-2.5s2.5 1.13 2.5 2.5zm-6-6c0 1.4-1.12 2.5-2.5 2.5s-2.5-1.1-2.5-2.5c0-1.37 1.12-2.5 2.5-2.5s2.5 1.13 2.5 2.5zm0-10.1c0 1.37-1.12 2.5-2.5 2.5s-2.5-1.13-2.5-2.5c0-1.4 1.12-2.5 2.5-2.5s2.5 1.1 2.5 2.5zm0-10.14c0 1.38-1.12 2.5-2.5 2.5s-2.5-1.12-2.5-2.5 1.12-2.5 2.5-2.5 2.5 1.12 2.5 2.5zm0-10.12c0 1.38-1.12 2.5-2.5 2.5s-2.5-1.12-2.5-2.5 1.12-2.5 2.5-2.5 2.5 1.12 2.5 2.5zm0-10.13c0 1.4-1.12 2.5-2.5 2.5s-2.5-1.1-2.5-2.5c0-1.37 1.12-2.5 2.5-2.5s2.5 1.13 2.5 2.5zm0-10.1c0 1.37-1.12 2.5-2.5 2.5s-2.5-1.13-2.5-2.5c0-1.4 1.12-2.5 2.5-2.5s2.5 1.1 2.5 2.5zm0-10.14c0 1.38-1.12 2.5-2.5 2.5s-2.5-1.12-2.5-2.5 1.12-2.5 2.5-2.5 2.5 1.12 2.5 2.5zm0-10.12c0 1.38-1.12 2.5-2.5 2.5s-2.5-1.12-2.5-2.5 1.12-2.5 2.5-2.5 2.5 1.12 2.5 2.5zm0-10.13c0 1.4-1.12 2.5-2.5 2.5s-2.5-1.1-2.5-2.5c0-1.37 1.12-2.5 2.5-2.5s2.5 1.13 2.5 2.5zm0-10.1c0 1.37-1.12 2.5-2.5 2.5s-2.5-1.13-2.5-2.5c0-1.4 1.12-2.5 2.5-2.5s2.5 1.1 2.5 2.5zm0-10.14c0 1.38-1.12 2.5-2.5 2.5s-2.5-1.12-2.5-2.5 1.12-2.5 2.5-2.5 2.5 1.12 2.5 2.5zm0-10.12c0 1.38-1.12 2.5-2.5 2.5s-2.5-1.12-2.5-2.5 1.12-2.5 2.5-2.5 2.5 1.12 2.5 2.5zm0-10.13c0 1.4-1.12 2.5-2.5 2.5s-2.5-1.1-2.5-2.5c0-1.37 1.12-2.5 2.5-2.5s2.5 1.13 2.5 2.5zm0-10.1c0 1.37-1.12 2.5-2.5 2.5s-2.5-1.13-2.5-2.5c0-1.4 1.12-2.5 2.5-2.5s2.5 1.1 2.5 2.5zm0-10.14c0 1.38-1.12 2.5-2.5 2.5s-2.5-1.12-2.5-2.5 1.12-2.5 2.5-2.5 2.5 1.12 2.5 2.5zm0-10.12c0 1.38-1.12 2.5-2.5 2.5s-2.5-1.12-2.5-2.5 1.12-2.5 2.5-2.5 2.5 1.12 2.5 2.5z" fill="#5e5e5e"/><path d="M13893.55 708.1h320" fill="none"/><path d="M13896.05 708.1c0 1.4-1.12 2.5-2.5 2.5s-2.5-1.1-2.5-2.5c0-1.37 1.12-2.5 2.5-2.5s2.5 1.13 2.5 2.5zm10 0c0 1.4-1.12 2.5-2.5 2.5s-2.5-1.1-2.5-2.5c0-1.37 1.12-2.5 2.5-2.5s2.5 1.13 2.5 2.5zm10 0c0 1.4-1.12 2.5-2.5 2.5s-2.5-1.1-2.5-2.5c0-1.37 1.12-2.5 2.5-2.5s2.5 1.13 2.5 2.5zm10 0c0 1.4-1.12 2.5-2.5 2.5s-2.5-1.1-2.5-2.5c0-1.37 1.12-2.5 2.5-2.5s2.5 1.13 2.5 2.5zm10 0c0 1.4-1.12 2.5-2.5 2.5s-2.5-1.1-2.5-2.5c0-1.37 1.12-2.5 2.5-2.5s2.5 1.13 2.5 2.5zm10 0c0 1.4-1.12 2.5-2.5 2.5s-2.5-1.1-2.5-2.5c0-1.37 1.12-2.5 2.5-2.5s2.5 1.13 2.5 2.5zm10 0c0 1.4-1.12 2.5-2.5 2.5s-2.5-1.1-2.5-2.5c0-1.37 1.12-2.5 2.5-2.5s2.5 1.13 2.5 2.5zm10 0c0 1.4-1.12 2.5-2.5 2.5s-2.5-1.1-2.5-2.5c0-1.37 1.12-2.5 2.5-2.5s2.5 1.13 2.5 2.5zm10 0c0 1.4-1.12 2.5-2.5 2.5s-2.5-1.1-2.5-2.5c0-1.37 1.12-2.5 2.5-2.5s2.5 1.13 2.5 2.5zm10 0c0 1.4-1.12 2.5-2.5 2.5s-2.5-1.1-2.5-2.5c0-1.37 1.12-2.5 2.5-2.5s2.5 1.13 2.5 2.5zm10 0c0 1.4-1.12 2.5-2.5 2.5s-2.5-1.1-2.5-2.5c0-1.37 1.12-2.5 2.5-2.5s2.5 1.13 2.5 2.5zm10 0c0 1.4-1.12 2.5-2.5 2.5s-2.5-1.1-2.5-2.5c0-1.37 1.12-2.5 2.5-2.5s2.5 1.13 2.5 2.5zm10 0c0 1.4-1.12 2.5-2.5 2.5s-2.5-1.1-2.5-2.5c0-1.37 1.12-2.5 2.5-2.5s2.5 1.13 2.5 2.5zm10 0c0 1.4-1.12 2.5-2.5 2.5s-2.5-1.1-2.5-2.5c0-1.37 1.12-2.5 2.5-2.5s2.5 1.13 2.5 2.5zm10 0c0 1.4-1.12 2.5-2.5 2.5s-2.5-1.1-2.5-2.5c0-1.37 1.12-2.5 2.5-2.5s2.5 1.13 2.5 2.5zm10 0c0 1.4-1.12 2.5-2.5 2.5s-2.5-1.1-2.5-2.5c0-1.37 1.12-2.5 2.5-2.5s2.5 1.13 2.5 2.5zm10 0c0 1.4-1.12 2.5-2.5 2.5s-2.5-1.1-2.5-2.5c0-1.37 1.12-2.5 2.5-2.5s2.5 1.13 2.5 2.5zm10 0c0 1.4-1.12 2.5-2.5 2.5s-2.5-1.1-2.5-2.5c0-1.37 1.12-2.5 2.5-2.5s2.5 1.13 2.5 2.5zm10 0c0 1.4-1.12 2.5-2.5 2.5s-2.5-1.1-2.5-2.5c0-1.37 1.12-2.5 2.5-2.5s2.5 1.13 2.5 2.5zm10 0c0 1.4-1.12 2.5-2.5 2.5s-2.5-1.1-2.5-2.5c0-1.37 1.12-2.5 2.5-2.5s2.5 1.13 2.5 2.5zm10 0c0 1.4-1.12 2.5-2.5 2.5s-2.5-1.1-2.5-2.5c0-1.37 1.12-2.5 2.5-2.5s2.5 1.13 2.5 2.5zm10 0c0 1.4-1.12 2.5-2.5 2.5s-2.5-1.1-2.5-2.5c0-1.37 1.12-2.5 2.5-2.5s2.5 1.13 2.5 2.5zm10 0c0 1.4-1.12 2.5-2.5 2.5s-2.5-1.1-2.5-2.5c0-1.37 1.12-2.5 2.5-2.5s2.5 1.13 2.5 2.5zm10 0c0 1.4-1.12 2.5-2.5 2.5s-2.5-1.1-2.5-2.5c0-1.37 1.12-2.5 2.5-2.5s2.5 1.13 2.5 2.5zm10 0c0 1.4-1.12 2.5-2.5 2.5s-2.5-1.1-2.5-2.5c0-1.37 1.12-2.5 2.5-2.5s2.5 1.13 2.5 2.5zm10 0c0 1.4-1.12 2.5-2.5 2.5s-2.5-1.1-2.5-2.5c0-1.37 1.12-2.5 2.5-2.5s2.5 1.13 2.5 2.5zm10 0c0 1.4-1.12 2.5-2.5 2.5s-2.5-1.1-2.5-2.5c0-1.37 1.12-2.5 2.5-2.5s2.5 1.13 2.5 2.5zm10 0c0 1.4-1.12 2.5-2.5 2.5s-2.5-1.1-2.5-2.5c0-1.37 1.12-2.5 2.5-2.5s2.5 1.13 2.5 2.5zm10 0c0 1.4-1.12 2.5-2.5 2.5s-2.5-1.1-2.5-2.5c0-1.37 1.12-2.5 2.5-2.5s2.5 1.13 2.5 2.5zm10 0c0 1.4-1.12 2.5-2.5 2.5s-2.5-1.1-2.5-2.5c0-1.37 1.12-2.5 2.5-2.5s2.5 1.13 2.5 2.5zm10 0c0 1.4-1.12 2.5-2.5 2.5s-2.5-1.1-2.5-2.5c0-1.37 1.12-2.5 2.5-2.5s2.5 1.13 2.5 2.5zm10 0c0 1.4-1.12 2.5-2.5 2.5s-2.5-1.1-2.5-2.5c0-1.37 1.12-2.5 2.5-2.5s2.5 1.13 2.5 2.5z" fill="#5e5e5e"/><use xlink:href="#a" transform="matrix(1,0,0,1,13903.552381355847,645.1139269265489) translate(75.40123456790124 22.611111111111114)"/><use xlink:href="#b" transform="matrix(1,0,0,1,13903.552381355847,645.1139269265489) translate(153.179012345679 22.611111111111114)"/><use xlink:href="#c" transform="matrix(1,0,0,1,13903.552381355847,645.1139269265489) translate(102.53086419753086 49.277777777777786)"/><path d="M13871.05 726.66h-78.68s-.02 0-.02-.02l-.03-.03h-59.68" stroke="#5e5e5e" stroke-width="2" fill="none"/><path d="M13871.05 716.66v20M13891.05 726.66h-20M13694.1 716.6l20 10-20 10M13694.1 726.6h20M13734.1 726.6c0 5.54-4.5 10-10 10-5.54 0-10-4.46-10-10 0-5.5 4.46-10 10-10 5.5 0 10 4.5 10 10" stroke="#5e5e5e" stroke-width="2" fill="#fff"/><use xlink:href="#d" transform="matrix(1,0,0,1,13813.174829033813,730.6642318045978) translate(0 14.222222222222223)"/><use xlink:href="#e" transform="matrix(1,0,0,1,13708.564558730863,701.2805935932155) translate(0 14.222222222222223)"/><use xlink:href="#f" transform="matrix(1,0,0,1,13708.564558730863,701.2805935932155) translate(77.82716049382717 14.222222222222223)"/><path d="M13452.64 721.1h-497.6" stroke="#5e5e5e" stroke-width="2" fill="none"/><path d="M13491.2 731.1l-20-10 20-10M13491.2 721.1h-20M13471.2 721.1c0 5.54-4.5 10-10 10-5.53 0-10-4.46-10-10 0-5.5 4.47-10 10-10 5.5 0 10 4.5 10 10M12916.48 711.1l20 10-20 10M12916.48 721.1h20M12956.48 721.1c0 5.54-4.47 10-10 10-5.52 0-10-4.46-10-10 0-5.5 4.48-10 10-10 5.53 0 10 4.5 10 10" stroke="#5e5e5e" stroke-width="2" fill="#fff"/><use xlink:href="#g" transform="matrix(1,0,0,1,13419.869469136123,695.7805935932155) translate(0 14.222222222222223)"/><use xlink:href="#h" transform="matrix(1,0,0,1,12978.647987531465,695.7805935932156) translate(0 14.222222222222223)"/><use xlink:href="#i" transform="matrix(1,0,0,1,12978.647987531465,695.7805935932156) translate(69.92592592592592 14.222222222222223)"/><path d="M12420.8 679.16h-193.02s-.02 0-.02-.02l-.03-.03h-193" stroke="#5e5e5e" stroke-width="2" fill="none"/><path d="M12459.35 689.16l-20-10 20-10M12459.35 679.16h-20M12439.35 679.16c0 5.53-4.48 10-10 10s-10-4.47-10-10c0-5.52 4.48-10 10-10s10 4.48 10 10M11996.16 669.1l20 10-20 10M11996.16 679.1h20M12036.16 679.1c0 5.54-4.47 10-10 10-5.52 0-10-4.46-10-10 0-5.5 4.48-10 10-10 5.53 0 10 4.5 10 10" stroke="#5e5e5e" stroke-width="2" fill="#fff"/><use xlink:href="#j" transform="matrix(1,0,0,1,12265.833544034009,653.8301599978478) translate(0 14.222222222222223)"/><use xlink:href="#k" transform="matrix(1,0,0,1,12265.833544034009,653.8301599978478) translate(27.604938271604944 14.222222222222223)"/><use xlink:href="#l" transform="matrix(1,0,0,1,12265.833544034009,653.8301599978478) translate(74.9135802469136 14.222222222222223)"/><use xlink:href="#m" transform="matrix(1,0,0,1,12265.833544034009,653.8301599978478) translate(100.54320987654323 14.222222222222223)"/><use xlink:href="#n" transform="matrix(1,0,0,1,12023.053569736268,653.7805935932159) translate(0 14.222222222222223)"/><use xlink:href="#i" transform="matrix(1,0,0,1,12023.053569736268,653.7805935932159) translate(78.8641975308642 14.222222222222223)"/><path d="M12415.03 740.55h-188.2c-.05 0-.08-.04-.08-.08s-.03-.07-.07-.07h-188.22" stroke="#5e5e5e" stroke-width="2" fill="none"/><path d="M12453.6 750.55l-20-10 20-10M12453.6 740.55h-20M12433.6 740.55c0 5.52-4.5 10-10 10-5.54 0-10-4.48-10-10 0-5.53 4.46-10 10-10 5.5 0 10 4.47 10 10M11999.9 730.4l20 10-20 10M11999.9 740.4h20M12039.9 740.4c0 5.52-4.47 10-10 10-5.5 0-10-4.48-10-10s4.5-10 10-10c5.53 0 10 4.48 10 10" stroke="#5e5e5e" stroke-width="2" fill="#fff"/><use xlink:href="#o" transform="matrix(1,0,0,1,12252.67968607432,715.2130237472416) translate(0 14.222222222222223)"/><use xlink:href="#k" transform="matrix(1,0,0,1,12252.67968607432,715.2130237472416) translate(38.41975308641975 14.222222222222223)"/><use xlink:href="#l" transform="matrix(1,0,0,1,12252.67968607432,715.2130237472416) translate(85.7283950617284 14.222222222222223)"/><use xlink:href="#m" transform="matrix(1,0,0,1,12252.67968607432,715.2130237472416) translate(111.35802469135804 14.222222222222223)"/><use xlink:href="#n" transform="matrix(1,0,0,1,12025.221738999044,715.066323137719) translate(0 14.222222222222223)"/><use xlink:href="#i" transform="matrix(1,0,0,1,12025.221738999044,715.066323137719) translate(78.8641975308642 14.222222222222223)"/><path d="M12415.03 801.47h-189.38c-.05 0-.1.05-.1.1 0 .06-.04.1-.1.1h-189.37" stroke="#5e5e5e" stroke-width="2" fill="none"/><path d="M12453.6 811.47l-20-10 20-10M12453.6 801.47h-20M12433.6 801.47c0 5.53-4.5 10-10 10-5.54 0-10-4.47-10-10 0-5.52 4.46-10 10-10 5.5 0 10 4.48 10 10M11997.52 791.67l20 10-20 10M11997.52 801.67h20M12037.52 801.67c0 5.52-4.47 10-10 10-5.52 0-10-4.48-10-10s4.48-10 10-10c5.53 0 10 4.48 10 10" stroke="#5e5e5e" stroke-width="2" fill="#fff"/><use xlink:href="#p" transform="matrix(1,0,0,1,12248.021199893701,776.1399932368497) translate(0 14.222222222222223)"/><use xlink:href="#q" transform="matrix(1,0,0,1,12248.021199893701,776.1399932368497) translate(49.23456790123457 14.222222222222223)"/><use xlink:href="#l" transform="matrix(1,0,0,1,12248.021199893701,776.1399932368497) translate(84.74074074074075 14.222222222222223)"/><use xlink:href="#r" transform="matrix(1,0,0,1,12248.021199893701,776.1399932368497) translate(110.37037037037038 14.222222222222223)"/><use xlink:href="#n" transform="matrix(1,0,0,1,12022.179104849985,776.3361716764032) translate(0 14.222222222222223)"/><use xlink:href="#i" transform="matrix(1,0,0,1,12022.179104849985,776.3361716764032) translate(78.8641975308642 14.222222222222223)"/><path d="M12481.36 903.3v39.8c0 3.33-2.7 6-6 6h-268.17c-3.33 0-6 2.7-6 6v35.16" stroke="#5e5e5e" stroke-width="2" fill="none"/><path d="M12491.36 864.76l-10 20-10-20M12481.36 864.76v20M12491.36 894.76c0 5.52-4.48 10-10 10s-10-4.48-10-10c0-5.53 4.48-10 10-10s10 4.47 10 10M12191.2 1028.8l10-20 10 20M12201.2 1028.8v-20M12211.2 998.8c0 5.53-4.5 10-10 10-5.54 0-10-4.47-10-10 0-5.5 4.46-10 10-10 5.5 0 10 4.5 10 10" stroke="#5e5e5e" stroke-width="2" fill="#fff"/><use xlink:href="#s" transform="matrix(1,0,0,1,12415.185244381835,908.886801264386) translate(0 14.222222222222223)"/><use xlink:href="#t" transform="matrix(1,0,0,1,12237.07773365639,953.113926926549) translate(0 14.222222222222223)"/><use xlink:href="#i" transform="matrix(1,0,0,1,12237.07773365639,953.113926926549) translate(64.0493827160494 14.222222222222223)"/><path d="M12220.8 1003.78c0-3.3 2.7-6 6-6h41.34c3.3 0 6 2.7 6 6v21.33c0 3.33-2.7 6-6 6h-41.33c-3.3 0-6-2.67-6-6z" stroke="#000" stroke-opacity="0" stroke-width="3" fill="#fff" fill-opacity="0"/><use xlink:href="#u" transform="matrix(1,0,0,1,12225.806258491912,1002.7805935932543) translate(3.481481481481481 19.27777777777778)"/><path d="M12521.63 909.16v243.95c0 3.33-2.7 6-6 6h-308.44c-3.33 0-6-2.67-6-6v-30.84" stroke="#5e5e5e" stroke-width="2" fill="none"/><path d="M12531.63 870.6l-10 20-10-20M12521.63 870.6v20M12531.63 900.6c0 5.53-4.48 10-10 10s-10-4.47-10-10c0-5.5 4.48-10 10-10s10 4.5 10 10M12211.2 1083.7l-10 20-10-20M12201.2 1083.7v20M12211.2 1113.7c0 5.53-4.5 10-10 10-5.54 0-10-4.47-10-10 0-5.52 4.46-10 10-10 5.5 0 10 4.48 10 10" stroke="#5e5e5e" stroke-width="2" fill="#fff"/><use xlink:href="#v" transform="matrix(1,0,0,1,12456.443965942002,970.1254801804092) translate(0 14.222222222222223)"/><use xlink:href="#w" transform="matrix(1,0,0,1,12186.346724648307,1163.1139269265489) translate(0 14.222222222222223)"/><use xlink:href="#i" transform="matrix(1,0,0,1,12186.346724648307,1163.1139269265489) translate(72.93827160493828 14.222222222222223)"/><path d="M12888.8 1451.74c0-3.32 2.7-6 6-6h188c3.32 0 6 2.68 6 6v139c0 3.3-2.68 6-6 6h-188c-3.3 0-6-2.7-6-6z" fill="#ffdf71"/><path d="M12888.8 1451.74c0-3.32 2.7-6 6-6h188c3.32 0 6 2.68 6 6v139c0 3.3-2.68 6-6 6h-188c-3.3 0-6-2.7-6-6zM12888.8 1485.74h200" stroke="#5e5e5e" stroke-width="3" fill="none"/><use xlink:href="#x" transform="matrix(1,0,0,1,12898.806258491873,1445.7380952380954) translate(42.53086419753086 24.444444444444443)"/><path d="M12314.42 1521.5h-275.7" stroke="#5e5e5e" stroke-width="2" fill="none"/><path d="M12352.97 1531.5l-20-10 20-10M12352.97 1521.5h-20M12332.97 1521.5c0 5.52-4.48 10-10 10s-10-4.48-10-10 4.48-10 10-10 10 4.48 10 10M12000.16 1511.5l20 10-20 10M12000.16 1521.5h20M12040.16 1521.5c0 5.52-4.48 10-10 10s-10-4.48-10-10 4.48-10 10-10 10 4.48 10 10" stroke="#5e5e5e" stroke-width="2" fill="#fff"/><use xlink:href="#y" transform="matrix(1,0,0,1,12008.55897176635,1496.1666666666667) translate(0 14.222222222222223)"/><use xlink:href="#z" transform="matrix(1,0,0,1,12008.55897176635,1496.1666666666667) translate(72.98765432098767 14.222222222222223)"/><use xlink:href="#A" transform="matrix(1,0,0,1,12235.37417273274,1496.1666666666667) translate(0 14.222222222222223)"/><use xlink:href="#B" transform="matrix(1,0,0,1,12235.37417273274,1496.1666666666667) translate(37.48148148148149 14.222222222222223)"/><path d="M12494.42 1655.5v15.36c0 3.3 2.7 6 6 6h138c3.3 0 6-2.7 6-6v-76.44c0-3.32-2.7-6-6-6h-49.5" stroke="#5e5e5e" stroke-width="2" fill="none"/><path d="M12504.42 1616.95l-10 20-10-20M12494.42 1616.95v20M12504.42 1646.95c0 5.52-4.48 10-10 10s-10-4.48-10-10c0-5.53 4.48-10 10-10s10 4.47 10 10M12550.38 1578.42l20 10-20 10M12550.38 1588.42h20M12590.38 1588.42c0 5.52-4.48 10-10 10-5.53 0-10-4.48-10-10s4.47-10 10-10c5.52 0 10 4.48 10 10" stroke="#5e5e5e" stroke-width="2" fill="#fff"/><use xlink:href="#A" transform="matrix(1,0,0,1,12560.651098093904,1563.085090845784) translate(0 14.222222222222223)"/><use xlink:href="#B" transform="matrix(1,0,0,1,12560.651098093904,1563.085090845784) translate(37.48148148148149 14.222222222222223)"/><use xlink:href="#y" transform="matrix(1,0,0,1,12504.684264624284,1651.5238095238096) translate(0 14.222222222222223)"/><use xlink:href="#z" transform="matrix(1,0,0,1,12504.684264624284,1651.5238095238096) translate(72.98765432098767 14.222222222222223)"/><path d="M12220.8 1087.95c0-3.32 2.7-6 6-6h41.34c3.3 0 6 2.68 6 6v21.33c0 3.3-2.7 6-6 6h-41.33c-3.3 0-6-2.7-6-6z" stroke="#000" stroke-opacity="0" stroke-width="3" fill="#fff" fill-opacity="0"/><use xlink:href="#u" transform="matrix(1,0,0,1,12225.806258491912,1086.9472602599212) translate(3.481481481481481 19.27777777777778)"/><path d="M11900.12 876.26v573.3" stroke="#5e5e5e" stroke-width="2" fill="none"/><path d="M11910.12 837.7l-10 20-10-20M11900.12 837.7v20M11910.12 867.7c0 5.53-4.48 10-10 10s-10-4.47-10-10c0-5.52 4.48-10 10-10s10 4.48 10 10M11890.12 1488.12l10-20 10 20M11900.12 1488.12v-20M11910.12 1458.12c0 5.53-4.48 10-10 10s-10-4.47-10-10c0-5.52 4.48-10 10-10s10 4.48 10 10" stroke="#5e5e5e" stroke-width="2" fill="#fff"/><use xlink:href="#C" transform="matrix(1,0,0,1,11814.194618280231,950.8364888657836) translate(0 14.222222222222223)"/><use xlink:href="#D" transform="matrix(1,0,0,1,11908.120544206156,1399.5886943861894) translate(0 14.222222222222223)"/><use xlink:href="#i" transform="matrix(1,0,0,1,11908.120544206156,1399.5886943861894) translate(83.80246913580248 14.222222222222223)"/><path d="M11758.46 742.26h-263.65c-3.3 0-6 2.68-6 6v928.17c0 3.3 2.7 6 6 6h911.62c3.3 0 6-2.7 6-6v-20.93" stroke="#5e5e5e" stroke-width="2" fill="none"/><path d="M11797.02 752.26l-20-10 20-10M11797.02 742.26h-20M11777.02 742.26c0 5.52-4.48 10-10 10-5.53 0-10-4.48-10-10 0-5.53 4.47-10 10-10 5.52 0 10 4.47 10 10M12422.42 1616.95l-10 20-10-20M12412.42 1616.95v20M12422.42 1646.95c0 5.52-4.48 10-10 10s-10-4.48-10-10c0-5.53 4.48-10 10-10s10 4.47 10 10" stroke="#5e5e5e" stroke-width="2" fill="#fff"/><use xlink:href="#C" transform="matrix(1,0,0,1,11664.273163593101,716.9234507360726) translate(0 14.222222222222223)"/><use xlink:href="#D" transform="matrix(1,0,0,1,12239.331789416694,1657.0952380952383) translate(0 14.222222222222223)"/><use xlink:href="#i" transform="matrix(1,0,0,1,12239.331789416694,1657.0952380952383) translate(83.80246913580248 14.222222222222223)"/><path d="M12585.03 191.7c0-3.33 2.7-6 6-6h188c3.32 0 6 2.67 6 6v139c0 3.3-2.68 6-6 6h-188c-3.3 0-6-2.7-6-6z" fill="#ffdf71"/><path d="M12585.03 191.7c0-3.33 2.7-6 6-6h188c3.32 0 6 2.67 6 6v139c0 3.3-2.68 6-6 6h-188c-3.3 0-6-2.7-6-6zM12585.03 225.7h200" stroke="#5e5e5e" stroke-width="3" fill="none"/><use xlink:href="#x" transform="matrix(1,0,0,1,12595.034829920445,185.68535549797735) translate(42.53086419753086 24.444444444444443)"/><path d="M12563.53 244.2h-659.07c-3.3 0-6 2.67-6 6v358.06" stroke="#5e5e5e" stroke-width="2" fill="none"/><path d="M12563.53 234.2v20M12583.53 244.2h-20M11888.46 646.8l10-20 10 20M11898.46 646.8v-20M11908.46 616.8c0 5.53-4.47 10-10 10-5.52 0-10-4.47-10-10 0-5.5 4.48-10 10-10 5.53 0 10 4.5 10 10" stroke="#5e5e5e" stroke-width="2" fill="#fff"/><use xlink:href="#E" transform="matrix(1,0,0,1,12473.114860489974,248.18535549797738) translate(0 14.222222222222223)"/><use xlink:href="#e" transform="matrix(1,0,0,1,11906.463401348963,554.1548902326616) translate(0 14.222222222222223)"/><use xlink:href="#f" transform="matrix(1,0,0,1,11906.463401348963,554.1548902326616) translate(77.82716049382717 14.222222222222223)"/><path d="M12685.03 358.2v248.25" stroke="#5e5e5e" stroke-width="2" fill="none"/><path d="M12675.03 358.2h20M12685.03 338.2v20M12675.03 645l10-20 10 20M12685.03 645v-20M12695.03 615c0 5.52-4.47 10-10 10-5.52 0-10-4.48-10-10s4.48-10 10-10c5.53 0 10 4.48 10 10" stroke="#5e5e5e" stroke-width="2" fill="#fff"/><use xlink:href="#F" transform="matrix(1,0,0,1,12605.084212636495,369.4297274185216) translate(0 14.222222222222223)"/><use xlink:href="#e" transform="matrix(1,0,0,1,12583.454583006866,580.2940687408942) translate(0 14.222222222222223)"/><use xlink:href="#f" transform="matrix(1,0,0,1,12583.454583006866,580.2940687408942) translate(77.82716049382717 14.222222222222223)"/><path d="M12806.53 244.2h1241.02c3.32 0 6 2.67 6 6v372.4" stroke="#5e5e5e" stroke-width="2" fill="none"/><path d="M12806.53 254.2v-20M12786.53 244.2h20M14063.55 622.6h-20M14053.55 642.6v-20" stroke="#5e5e5e" stroke-width="2" fill="#fff"/><use xlink:href="#G" transform="matrix(1,0,0,1,12827.316798937614,197.5186888313107) translate(0 14.222222222222223)"/><use xlink:href="#H" transform="matrix(1,0,0,1,12827.316798937614,197.5186888313107) translate(0 35.55555555555556)"/><use xlink:href="#I" transform="matrix(1,0,0,1,12827.316798937614,197.5186888313107) translate(93.53086419753086 35.55555555555556)"/><use xlink:href="#J" transform="matrix(1,0,0,1,13964.663492466956,561.1818700703731) translate(0 14.222222222222223)"/><use xlink:href="#K" transform="matrix(1,0,0,1,13964.663492466956,561.1818700703731) translate(0 35.55555555555556)"/><use xlink:href="#L" transform="matrix(1,0,0,1,13964.663492466956,561.1818700703731) translate(64.19753086419755 35.55555555555556)"/><path d="M14054.55 1518.32l-.92 3.42-2.53 2.53-3.4.92h-937.4v-2h937.12l2.64-.72 1.78-1.78.7-2.64v-346.8h2zm0-389.72h-2v-287h2z" fill="#5e5e5e"/><path fill="#fff"/><path d="M13111.3 1534.2h-2v-20h2z" fill="#5e5e5e"/><path fill="#fff"/><path d="M13110.3 1525.2h-20v-2h20z" fill="#5e5e5e"/><path fill="#fff"/><path d="M14063.55 842.6h-20v-2h20z" fill="#5e5e5e"/><path fill="#fff"/><path d="M14054.55 841.6h-2v-20h2z" fill="#5e5e5e"/><g><use xlink:href="#M" transform="matrix(1,0,0,1,13103.600673321815,1477.5238095238096) translate(0 14.222222222222223)"/><use xlink:href="#N" transform="matrix(1,0,0,1,13103.600673321815,1477.5238095238096) translate(0 35.55555555555556)"/><use xlink:href="#I" transform="matrix(1,0,0,1,13103.600673321815,1477.5238095238096) translate(90.61728395061729 35.55555555555556)"/></g><g><use xlink:href="#O" transform="matrix(1,0,0,1,14013.107936911401,1128.598084601168) translate(0 14.222222222222223)"/><use xlink:href="#K" transform="matrix(1,0,0,1,14013.107936911401,1128.598084601168) translate(0 35.55555555555556)"/><use xlink:href="#L" transform="matrix(1,0,0,1,14013.107936911401,1128.598084601168) translate(64.19753086419755 35.55555555555556)"/></g><path d="M12101.2 1036.26c0-3.32 2.67-6 6-6h188c3.3 0 6 2.68 6 6v40c0 3.3-2.7 6-6 6h-188c-3.33 0-6-2.7-6-6z" stroke="#5e5e5e" stroke-width="2" fill="#fff"/><g><use xlink:href="#a" transform="matrix(1,0,0,1,12106.187210872826,1035.2567942419319) translate(22.808641975308646 25.65277777777778)"/><use xlink:href="#P" transform="matrix(1,0,0,1,12106.187210872826,1035.2567942419319) translate(100.58641975308642 25.65277777777778)"/></g><path d="M11798.46 698.26c0-27.62 22.4-50 50-50h100c27.62 0 50 22.38 50 50v88c0 27.6-22.38 50-50 50h-100c-27.6 0-50-22.4-50-50z" stroke="#5e5e5e" stroke-width="2" fill="#fff"/><g><use xlink:href="#a" transform="matrix(1,0,0,1,11803.463401348963,653.2567840694059) translate(33.33333333333334 78.96527777777777)"/><use xlink:href="#Q" transform="matrix(1,0,0,1,11803.463401348963,653.2567840694059) translate(111.11111111111111 78.96527777777777)"/><use xlink:href="#R" transform="matrix(1,0,0,1,11803.463401348963,653.2567840694059) translate(31.51234567901234 105.63194444444446)"/></g><path d="M13492.64 695.7c0-27.63 22.38-50 50-50h100c27.6 0 50 22.37 50 50v123.4c0 27.63-22.4 50-50 50h-100c-27.62 0-50-22.37-50-50z" stroke="#5e5e5e" stroke-width="2" fill="#fff"/><g><use xlink:href="#a" transform="matrix(1,0,0,1,13497.638095641561,650.6853554979774) translate(20.40123456790124 98.02777777777777)"/><use xlink:href="#S" transform="matrix(1,0,0,1,13497.638095641561,650.6853554979774) translate(98.17901234567901 98.02777777777777)"/><use xlink:href="#R" transform="matrix(1,0,0,1,13497.638095641561,650.6853554979774) translate(31.51234567901234 124.69444444444446)"/></g><path d="M12455.03 696.45c0-27.62 22.4-50 50-50h360c27.62 0 50 22.38 50 50v122.7c0 27.63-22.38 50-50 50h-360c-27.6 0-50-22.37-50-50z" stroke="#5e5e5e" stroke-width="2" fill="#fff"/><g><use xlink:href="#a" transform="matrix(1,0,0,1,12460.034829920445,651.4492228756844) translate(89.96913580246911 110.96527777777777)"/><use xlink:href="#T" transform="matrix(1,0,0,1,12460.034829920445,651.4492228756844) translate(167.74691358024688 110.96527777777777)"/><use xlink:href="#R" transform="matrix(1,0,0,1,12460.034829920445,651.4492228756844) translate(233.05555555555554 110.96527777777777)"/></g><path d="M11798.7 1495.57c0-3.3 2.7-6 6-6h188c3.32 0 6 2.7 6 6v51.33c0 3.32-2.68 6-6 6h-188c-3.3 0-6-2.68-6-6z" stroke="#5e5e5e" stroke-width="2" fill="#fff"/><g><use xlink:href="#U" transform="matrix(1,0,0,1,11803.711020396684,1494.5714285714287) translate(65.98765432098766 31.27777777777778)"/></g><path d="M12354.42 1477.5c0-27.6 22.38-50 50-50h100c27.6 0 50 22.4 50 50v88c0 27.6-22.4 50-50 50h-100c-27.62 0-50-22.4-50-50z" stroke="#5e5e5e" stroke-width="2" fill="#fff"/><g><use xlink:href="#V" transform="matrix(1,0,0,1,12359.419157608721,1432.5) translate(58.611111111111114 95.65277777777777)"/></g><path d="M12867.3 1521.5h-272.88" stroke="#5e5e5e" stroke-width="2" fill="none"/><path d="M12867.3 1511.5v20M12887.3 1521.5h-20M12555.87 1511.5l20 10-20 10M12555.87 1521.5h20M12595.87 1521.5c0 5.52-4.48 10-10 10-5.53 0-10-4.48-10-10s4.47-10 10-10c5.52 0 10 4.48 10 10" stroke="#5e5e5e" stroke-width="2" fill="#fff"/><g><use xlink:href="#d" transform="matrix(1,0,0,1,12782.569131002905,1525.5) translate(0 14.222222222222223)"/></g><g><use xlink:href="#e" transform="matrix(1,0,0,1,12612.38368611782,1496.1666666666667) translate(0 14.222222222222223)"/><use xlink:href="#f" transform="matrix(1,0,0,1,12612.38368611782,1496.1666666666667) translate(77.82716049382717 14.222222222222223)"/></g><defs><path fill="#333" d="M205 0l-28-72H64L36 0H1l101-248h38L239 0h-34zm-38-99l-47-123c-12 45-31 82-46 123h93" id="W"/><path fill="#333" d="M96-169c-40 0-48 33-48 73s9 75 48 75c24 0 41-14 43-38l32 2c-6 37-31 61-74 61-59 0-76-41-82-99-10-93 101-131 147-64 4 7 5 14 7 22l-32 3c-4-21-16-35-41-35" id="X"/><path fill="#333" d="M100-194c63 0 86 42 84 106H49c0 40 14 67 53 68 26 1 43-12 49-29l28 8c-11 28-37 45-77 45C44 4 14-33 15-96c1-61 26-98 85-98zm52 81c6-60-76-77-97-28-3 7-6 17-6 28h103" id="Y"/><path fill="#333" d="M135-143c-3-34-86-38-87 0 15 53 115 12 119 90S17 21 10-45l28-5c4 36 97 45 98 0-10-56-113-15-118-90-4-57 82-63 122-42 12 7 21 19 24 35" id="Z"/><g id="a"><use transform="matrix(0.06172839506172839,0,0,0.06172839506172839,0,0)" xlink:href="#W"/><use transform="matrix(0.06172839506172839,0,0,0.06172839506172839,14.814814814814813,0)" xlink:href="#X"/><use transform="matrix(0.06172839506172839,0,0,0.06172839506172839,25.925925925925924,0)" xlink:href="#X"/><use transform="matrix(0.06172839506172839,0,0,0.06172839506172839,37.03703703703704,0)" xlink:href="#Y"/><use transform="matrix(0.06172839506172839,0,0,0.06172839506172839,49.382716049382715,0)" xlink:href="#Z"/><use transform="matrix(0.06172839506172839,0,0,0.06172839506172839,60.49382716049382,0)" xlink:href="#Z"/></g><path fill="#333" d="M212-179c-10-28-35-45-73-45-59 0-87 40-87 99 0 60 29 101 89 101 43 0 62-24 78-52l27 14C228-24 195 4 139 4 59 4 22-46 18-125c-6-104 99-153 187-111 19 9 31 26 39 46" id="aa"/><path fill="#333" d="M100-194c62-1 85 37 85 99 1 63-27 99-86 99S16-35 15-95c0-66 28-99 85-99zM99-20c44 1 53-31 53-75 0-43-8-75-51-75s-53 32-53 75 10 74 51 75" id="ab"/><path fill="#333" d="M117-194c89-4 53 116 60 194h-32v-121c0-31-8-49-39-48C34-167 62-67 57 0H25l-1-190h30c1 10-1 24 2 32 11-22 29-35 61-36" id="ac"/><path fill="#333" d="M59-47c-2 24 18 29 38 22v24C64 9 27 4 27-40v-127H5v-23h24l9-43h21v43h35v23H59v120" id="ad"/><path fill="#333" d="M114-163C36-179 61-72 57 0H25l-1-190h30c1 12-1 29 2 39 6-27 23-49 58-41v29" id="ae"/><path fill="#333" d="M24 0v-261h32V0H24" id="af"/><g id="b"><use transform="matrix(0.06172839506172839,0,0,0.06172839506172839,0,0)" xlink:href="#aa"/><use transform="matrix(0.06172839506172839,0,0,0.06172839506172839,15.987654320987653,0)" xlink:href="#ab"/><use transform="matrix(0.06172839506172839,0,0,0.06172839506172839,28.333333333333332,0)" xlink:href="#ac"/><use transform="matrix(0.06172839506172839,0,0,0.06172839506172839,40.67901234567901,0)" xlink:href="#ad"/><use transform="matrix(0.06172839506172839,0,0,0.06172839506172839,46.851851851851855,0)" xlink:href="#ae"/><use transform="matrix(0.06172839506172839,0,0,0.06172839506172839,54.19753086419753,0)" xlink:href="#ab"/><use transform="matrix(0.06172839506172839,0,0,0.06172839506172839,66.54320987654322,0)" xlink:href="#af"/></g><path fill="#333" d="M233-177c-1 41-23 64-60 70L243 0h-38l-65-103H63V0H30v-248c88 3 205-21 203 71zM63-129c60-2 137 13 137-47 0-61-80-42-137-45v92" id="ag"/><path fill="#333" d="M84 4C-5 8 30-112 23-190h32v120c0 31 7 50 39 49 72-2 45-101 50-169h31l1 190h-30c-1-10 1-25-2-33-11 22-28 36-60 37" id="ah"/><g id="c"><use transform="matrix(0.06172839506172839,0,0,0.06172839506172839,0,0)" xlink:href="#ag"/><use transform="matrix(0.06172839506172839,0,0,0.06172839506172839,15.987654320987653,0)" xlink:href="#Y"/><use transform="matrix(0.06172839506172839,0,0,0.06172839506172839,28.333333333333332,0)" xlink:href="#Z"/><use transform="matrix(0.06172839506172839,0,0,0.06172839506172839,39.44444444444444,0)" xlink:href="#ab"/><use transform="matrix(0.06172839506172839,0,0,0.06172839506172839,51.79012345679012,0)" xlink:href="#ah"/><use transform="matrix(0.06172839506172839,0,0,0.06172839506172839,64.1358024691358,0)" xlink:href="#ae"/><use transform="matrix(0.06172839506172839,0,0,0.06172839506172839,71.48148148148148,0)" xlink:href="#X"/><use transform="matrix(0.06172839506172839,0,0,0.06172839506172839,82.5925925925926,0)" xlink:href="#Y"/></g><path fill="#333" d="M24 0v-248h52V0H24" id="ai"/><path fill="#333" d="M135-194c87-1 58 113 63 194h-50c-7-57 23-157-34-157-59 0-34 97-39 157H25l-1-190h47c2 12-1 28 3 38 12-26 28-41 61-42" id="aj"/><path fill="#333" d="M25-224v-37h50v37H25zM25 0v-190h50V0H25" id="ak"/><path fill="#333" d="M190-63c-7 42-38 67-86 67-59 0-84-38-90-98-12-110 154-137 174-36l-49 2c-2-19-15-32-35-32-30 0-35 28-38 64-6 74 65 87 74 30" id="al"/><path fill="#333" d="M25 0v-261h50V0H25" id="am"/><path fill="#333" d="M85 4C-2 5 27-109 22-190h50c7 57-23 150 33 157 60-5 35-97 40-157h50l1 190h-47c-2-12 1-28-3-38-12 25-28 42-61 42" id="an"/><path fill="#333" d="M88-194c31-1 46 15 58 34l-1-101h50l1 261h-48c-2-10 0-23-3-31C134-8 116 4 84 4 32 4 16-41 15-95c0-56 19-97 73-99zm17 164c33 0 40-30 41-66 1-37-9-64-41-64s-38 30-39 65c0 43 13 65 39 65" id="ao"/><path fill="#333" d="M185-48c-13 30-37 53-82 52C43 2 14-33 14-96s30-98 90-98c62 0 83 45 84 108H66c0 31 8 55 39 56 18 0 30-7 34-22zm-45-69c5-46-57-63-70-21-2 6-4 13-4 21h74" id="ap"/><path fill="#333" d="M137-138c1-29-70-34-71-4 15 46 118 7 119 86 1 83-164 76-172 9l43-7c4 19 20 25 44 25 33 8 57-30 24-41C81-84 22-81 20-136c-2-80 154-74 161-7" id="aq"/><g id="d"><use transform="matrix(0.04938271604938272,0,0,0.04938271604938272,0,0)" xlink:href="#ai"/><use transform="matrix(0.04938271604938272,0,0,0.04938271604938272,4.938271604938272,0)" xlink:href="#aj"/><use transform="matrix(0.04938271604938272,0,0,0.04938271604938272,15.753086419753087,0)" xlink:href="#ak"/><use transform="matrix(0.04938271604938272,0,0,0.04938271604938272,20.69135802469136,0)" xlink:href="#al"/><use transform="matrix(0.04938271604938272,0,0,0.04938271604938272,30.567901234567906,0)" xlink:href="#am"/><use transform="matrix(0.04938271604938272,0,0,0.04938271604938272,35.50617283950618,0)" xlink:href="#an"/><use transform="matrix(0.04938271604938272,0,0,0.04938271604938272,46.320987654320994,0)" xlink:href="#ao"/><use transform="matrix(0.04938271604938272,0,0,0.04938271604938272,57.135802469135804,0)" xlink:href="#ap"/><use transform="matrix(0.04938271604938272,0,0,0.04938271604938272,67.01234567901236,0)" xlink:href="#aq"/></g><g id="e"><use transform="matrix(0.04938271604938272,0,0,0.04938271604938272,0,0)" xlink:href="#ai"/><use transform="matrix(0.04938271604938272,0,0,0.04938271604938272,4.938271604938272,0)" xlink:href="#aj"/><use transform="matrix(0.04938271604938272,0,0,0.04938271604938272,15.753086419753087,0)" xlink:href="#al"/><use transform="matrix(0.04938271604938272,0,0,0.04938271604938272,25.629629629629633,0)" xlink:href="#am"/><use transform="matrix(0.04938271604938272,0,0,0.04938271604938272,30.567901234567906,0)" xlink:href="#an"/><use transform="matrix(0.04938271604938272,0,0,0.04938271604938272,41.38271604938272,0)" xlink:href="#ao"/><use transform="matrix(0.04938271604938272,0,0,0.04938271604938272,52.19753086419754,0)" xlink:href="#ap"/><use transform="matrix(0.04938271604938272,0,0,0.04938271604938272,62.074074074074076,0)" xlink:href="#ao"/></g><g id="f"><use transform="matrix(0.04938271604938272,0,0,0.04938271604938272,0,0)" xlink:href="#ak"/><use transform="matrix(0.04938271604938272,0,0,0.04938271604938272,4.938271604938272,0)" xlink:href="#aj"/></g><path fill="#333" d="M199 0l-22-63H83L61 0H9l90-248h61L250 0h-51zm-33-102l-36-108c-10 38-24 72-36 108h72" id="ar"/><path fill="#333" d="M135-194c53 0 70 44 70 98 0 56-19 98-73 100-31 1-45-17-59-34 3 33 2 69 2 105H25l-1-265h48c2 10 0 23 3 31 11-24 29-35 60-35zM114-30c33 0 39-31 40-66 0-38-9-64-40-64-56 0-55 130 0 130" id="as"/><path fill="#333" d="M123 10C108 53 80 86 19 72V37c35 8 53-11 59-39L3-190h52l48 148c12-52 28-100 44-148h51" id="at"/><g id="g"><use transform="matrix(0.04938271604938272,0,0,0.04938271604938272,0,0)" xlink:href="#ar"/><use transform="matrix(0.04938271604938272,0,0,0.04938271604938272,12.790123456790125,0)" xlink:href="#as"/><use transform="matrix(0.04938271604938272,0,0,0.04938271604938272,23.60493827160494,0)" xlink:href="#as"/><use transform="matrix(0.04938271604938272,0,0,0.04938271604938272,34.41975308641975,0)" xlink:href="#am"/><use transform="matrix(0.04938271604938272,0,0,0.04938271604938272,39.358024691358025,0)" xlink:href="#at"/></g><g id="h"><use transform="matrix(0.04938271604938272,0,0,0.04938271604938272,0,0)" xlink:href="#ar"/><use transform="matrix(0.04938271604938272,0,0,0.04938271604938272,12.790123456790125,0)" xlink:href="#as"/><use transform="matrix(0.04938271604938272,0,0,0.04938271604938272,23.60493827160494,0)" xlink:href="#as"/><use transform="matrix(0.04938271604938272,0,0,0.04938271604938272,34.41975308641975,0)" xlink:href="#am"/><use transform="matrix(0.04938271604938272,0,0,0.04938271604938272,39.358024691358025,0)" xlink:href="#ak"/><use transform="matrix(0.04938271604938272,0,0,0.04938271604938272,44.2962962962963,0)" xlink:href="#ap"/><use transform="matrix(0.04938271604938272,0,0,0.04938271604938272,54.17283950617284,0)" xlink:href="#ao"/></g><path fill="#333" d="M135-194c52 0 70 43 70 98 0 56-19 99-73 100-30 1-46-15-58-35L72 0H24l1-261h50v104c11-23 29-37 60-37zM114-30c31 0 40-27 40-66 0-37-7-63-39-63s-41 28-41 65c0 36 8 64 40 64" id="au"/><g id="i"><use transform="matrix(0.04938271604938272,0,0,0.04938271604938272,0,0)" xlink:href="#au"/><use transform="matrix(0.04938271604938272,0,0,0.04938271604938272,10.814814814814815,0)" xlink:href="#at"/></g><g id="j"><use transform="matrix(0.04938271604938272,0,0,0.04938271604938272,0,0)" xlink:href="#ar"/><use transform="matrix(0.04938271604938272,0,0,0.04938271604938272,12.790123456790125,0)" xlink:href="#am"/><use transform="matrix(0.04938271604938272,0,0,0.04938271604938272,17.7283950617284,0)" xlink:href="#am"/></g><path fill="#333" d="M220-157c-53 9-28 100-34 157h-49v-107c1-27-5-49-29-50C55-147 81-57 75 0H25l-1-190h47c2 12-1 28 3 38 10-53 101-56 108 0 13-22 24-43 59-42 82 1 51 116 57 194h-49v-107c-1-25-5-48-29-50" id="av"/><path fill="#333" d="M115-3C79 11 28 4 28-45v-112H4v-33h27l15-45h31v45h36v33H77v99c-1 23 16 31 38 25v30" id="aw"/><g id="k"><use transform="matrix(0.04938271604938272,0,0,0.04938271604938272,0,0)" xlink:href="#av"/><use transform="matrix(0.04938271604938272,0,0,0.04938271604938272,15.80246913580247,0)" xlink:href="#an"/><use transform="matrix(0.04938271604938272,0,0,0.04938271604938272,26.617283950617285,0)" xlink:href="#aq"/><use transform="matrix(0.04938271604938272,0,0,0.04938271604938272,36.49382716049383,0)" xlink:href="#aw"/></g><g id="l"><use transform="matrix(0.04938271604938272,0,0,0.04938271604938272,0,0)" xlink:href="#au"/><use transform="matrix(0.04938271604938272,0,0,0.04938271604938272,10.814814814814815,0)" xlink:href="#ap"/></g><path fill="#333" d="M133-34C117-15 103 5 69 4 32 3 11-16 11-54c-1-60 55-63 116-61 1-26-3-47-28-47-18 1-26 9-28 27l-52-2c7-38 36-58 82-57s74 22 75 68l1 82c-1 14 12 18 25 15v27c-30 8-71 5-69-32zm-48 3c29 0 43-24 42-57-32 0-66-3-65 30 0 17 8 27 23 27" id="ax"/><path fill="#333" d="M121-226c-27-7-43 5-38 36h38v33H83V0H34v-157H6v-33h28c-9-59 32-81 87-68v32" id="ay"/><g id="m"><use transform="matrix(0.04938271604938272,0,0,0.04938271604938272,0,0)" xlink:href="#aq"/><use transform="matrix(0.04938271604938272,0,0,0.04938271604938272,9.876543209876544,0)" xlink:href="#ax"/><use transform="matrix(0.04938271604938272,0,0,0.04938271604938272,19.75308641975309,0)" xlink:href="#aw"/><use transform="matrix(0.04938271604938272,0,0,0.04938271604938272,25.629629629629633,0)" xlink:href="#ak"/><use transform="matrix(0.04938271604938272,0,0,0.04938271604938272,30.567901234567906,0)" xlink:href="#aq"/><use transform="matrix(0.04938271604938272,0,0,0.04938271604938272,40.44444444444445,0)" xlink:href="#ay"/><use transform="matrix(0.04938271604938272,0,0,0.04938271604938272,46.320987654320994,0)" xlink:href="#ak"/><use transform="matrix(0.04938271604938272,0,0,0.04938271604938272,51.25925925925927,0)" xlink:href="#ap"/><use transform="matrix(0.04938271604938272,0,0,0.04938271604938272,61.13580246913581,0)" xlink:href="#ao"/></g><path fill="#333" d="M67-125c0 53 21 87 73 88 37 1 54-22 65-47l45 17C233-25 199 4 140 4 58 4 20-42 15-125 8-235 124-281 211-232c18 10 29 29 36 50l-46 12c-8-25-30-41-62-41-52 0-71 34-72 86" id="az"/><path fill="#333" d="M114-157C55-157 80-60 75 0H25v-261h50l-1 109c12-26 28-41 61-42 86-1 58 113 63 194h-50c-7-57 23-157-34-157" id="aA"/><path fill="#333" d="M147 0L96-86 75-71V0H25v-261h50v150l67-79h53l-66 74L201 0h-54" id="aB"/><g id="n"><use transform="matrix(0.04938271604938272,0,0,0.04938271604938272,0,0)" xlink:href="#az"/><use transform="matrix(0.04938271604938272,0,0,0.04938271604938272,12.790123456790125,0)" xlink:href="#aA"/><use transform="matrix(0.04938271604938272,0,0,0.04938271604938272,23.60493827160494,0)" xlink:href="#ap"/><use transform="matrix(0.04938271604938272,0,0,0.04938271604938272,33.48148148148148,0)" xlink:href="#al"/><use transform="matrix(0.04938271604938272,0,0,0.04938271604938272,43.358024691358025,0)" xlink:href="#aB"/><use transform="matrix(0.04938271604938272,0,0,0.04938271604938272,53.23456790123457,0)" xlink:href="#ap"/><use transform="matrix(0.04938271604938272,0,0,0.04938271604938272,63.111111111111114,0)" xlink:href="#ao"/></g><g id="o"><use transform="matrix(0.04938271604938272,0,0,0.04938271604938272,0,0)" xlink:href="#ar"/><use transform="matrix(0.04938271604938272,0,0,0.04938271604938272,12.790123456790125,0)" xlink:href="#aj"/><use transform="matrix(0.04938271604938272,0,0,0.04938271604938272,23.60493827160494,0)" xlink:href="#at"/></g><path fill="#333" d="M175 0L67-191c6 58 2 128 3 191H24v-248h59L193-55c-6-58-2-129-3-193h46V0h-61" id="aC"/><path fill="#333" d="M110-194c64 0 96 36 96 99 0 64-35 99-97 99-61 0-95-36-95-99 0-62 34-99 96-99zm-1 164c35 0 45-28 45-65 0-40-10-65-43-65-34 0-45 26-45 65 0 36 10 65 43 65" id="aD"/><g id="p"><use transform="matrix(0.04938271604938272,0,0,0.04938271604938272,0,0)" xlink:href="#aC"/><use transform="matrix(0.04938271604938272,0,0,0.04938271604938272,12.790123456790125,0)" xlink:href="#aD"/><use transform="matrix(0.04938271604938272,0,0,0.04938271604938272,23.60493827160494,0)" xlink:href="#aj"/><use transform="matrix(0.04938271604938272,0,0,0.04938271604938272,34.41975308641975,0)" xlink:href="#ap"/></g><g id="q"><use transform="matrix(0.04938271604938272,0,0,0.04938271604938272,0,0)" xlink:href="#al"/><use transform="matrix(0.04938271604938272,0,0,0.04938271604938272,9.876543209876544,0)" xlink:href="#ax"/><use transform="matrix(0.04938271604938272,0,0,0.04938271604938272,19.75308641975309,0)" xlink:href="#aj"/></g><g id="r"><use transform="matrix(0.04938271604938272,0,0,0.04938271604938272,0,0)" xlink:href="#aq"/><use transform="matrix(0.04938271604938272,0,0,0.04938271604938272,9.876543209876544,0)" xlink:href="#ax"/><use transform="matrix(0.04938271604938272,0,0,0.04938271604938272,19.75308641975309,0)" xlink:href="#aw"/><use transform="matrix(0.04938271604938272,0,0,0.04938271604938272,25.629629629629633,0)" xlink:href="#ak"/><use transform="matrix(0.04938271604938272,0,0,0.04938271604938272,30.567901234567906,0)" xlink:href="#aq"/><use transform="matrix(0.04938271604938272,0,0,0.04938271604938272,40.44444444444445,0)" xlink:href="#ak"/><use transform="matrix(0.04938271604938272,0,0,0.04938271604938272,45.38271604938272,0)" xlink:href="#ay"/><use transform="matrix(0.04938271604938272,0,0,0.04938271604938272,51.25925925925927,0)" xlink:href="#ak"/><use transform="matrix(0.04938271604938272,0,0,0.04938271604938272,56.19753086419754,0)" xlink:href="#ap"/><use transform="matrix(0.04938271604938272,0,0,0.04938271604938272,66.07407407407408,0)" xlink:href="#ao"/></g><path fill="#333" d="M24-248c120-7 223 5 221 122C244-46 201 0 124 0H24v-248zM76-40c74 7 117-18 117-86 0-67-45-88-117-82v168" id="aE"/><g id="s"><use transform="matrix(0.04938271604938272,0,0,0.04938271604938272,0,0)" xlink:href="#aE"/><use transform="matrix(0.04938271604938272,0,0,0.04938271604938272,12.790123456790125,0)" xlink:href="#ap"/><use transform="matrix(0.04938271604938272,0,0,0.04938271604938272,22.66666666666667,0)" xlink:href="#aj"/><use transform="matrix(0.04938271604938272,0,0,0.04938271604938272,33.48148148148149,0)" xlink:href="#ak"/><use transform="matrix(0.04938271604938272,0,0,0.04938271604938272,38.41975308641976,0)" xlink:href="#ap"/><use transform="matrix(0.04938271604938272,0,0,0.04938271604938272,48.296296296296305,0)" xlink:href="#aq"/></g><g id="t"><use transform="matrix(0.04938271604938272,0,0,0.04938271604938272,0,0)" xlink:href="#aE"/><use transform="matrix(0.04938271604938272,0,0,0.04938271604938272,12.790123456790125,0)" xlink:href="#ap"/><use transform="matrix(0.04938271604938272,0,0,0.04938271604938272,22.66666666666667,0)" xlink:href="#aj"/><use transform="matrix(0.04938271604938272,0,0,0.04938271604938272,33.48148148148149,0)" xlink:href="#ak"/><use transform="matrix(0.04938271604938272,0,0,0.04938271604938272,38.41975308641976,0)" xlink:href="#ap"/><use transform="matrix(0.04938271604938272,0,0,0.04938271604938272,48.296296296296305,0)" xlink:href="#ao"/></g><path fill="#333" d="M101-251c68 0 85 55 85 127S166 4 100 4C33 4 14-52 14-124c0-73 17-127 87-127zm-1 229c47 0 54-49 54-102s-4-102-53-102c-51 0-55 48-55 102 0 53 5 102 54 102" id="aF"/><path fill="#333" d="M33 0v-38h34V0H33" id="aG"/><path fill="#333" d="M126-127c33 6 58 20 58 59 0 88-139 92-164 29-3-8-5-16-6-25l32-3c6 27 21 44 54 44 32 0 52-15 52-46 0-38-36-46-79-43v-28c39 1 72-4 72-42 0-27-17-43-46-43-28 0-47 15-49 41l-32-3c6-42 35-63 81-64 48-1 79 21 79 65 0 36-21 52-52 59" id="aH"/><g id="u"><use transform="matrix(0.06172839506172839,0,0,0.06172839506172839,0,0)" xlink:href="#aF"/><use transform="matrix(0.06172839506172839,0,0,0.06172839506172839,12.345679012345679,0)" xlink:href="#aG"/><use transform="matrix(0.06172839506172839,0,0,0.06172839506172839,18.51851851851852,0)" xlink:href="#aG"/><use transform="matrix(0.06172839506172839,0,0,0.06172839506172839,24.691358024691358,0)" xlink:href="#aH"/></g><path fill="#333" d="M231 0h-52l-39-155L100 0H48L-1-190h46L77-45c9-52 24-97 36-145h53l37 145 32-145h46" id="aI"/><g id="v"><use transform="matrix(0.04938271604938272,0,0,0.04938271604938272,0,0)" xlink:href="#ar"/><use transform="matrix(0.04938271604938272,0,0,0.04938271604938272,12.790123456790125,0)" xlink:href="#am"/><use transform="matrix(0.04938271604938272,0,0,0.04938271604938272,17.7283950617284,0)" xlink:href="#am"/><use transform="matrix(0.04938271604938272,0,0,0.04938271604938272,22.66666666666667,0)" xlink:href="#aD"/><use transform="matrix(0.04938271604938272,0,0,0.04938271604938272,33.48148148148149,0)" xlink:href="#aI"/><use transform="matrix(0.04938271604938272,0,0,0.04938271604938272,47.308641975308646,0)" xlink:href="#aq"/></g><g id="w"><use transform="matrix(0.04938271604938272,0,0,0.04938271604938272,0,0)" xlink:href="#ar"/><use transform="matrix(0.04938271604938272,0,0,0.04938271604938272,12.790123456790125,0)" xlink:href="#am"/><use transform="matrix(0.04938271604938272,0,0,0.04938271604938272,17.7283950617284,0)" xlink:href="#am"/><use transform="matrix(0.04938271604938272,0,0,0.04938271604938272,22.66666666666667,0)" xlink:href="#aD"/><use transform="matrix(0.04938271604938272,0,0,0.04938271604938272,33.48148148148149,0)" xlink:href="#aI"/><use transform="matrix(0.04938271604938272,0,0,0.04938271604938272,47.308641975308646,0)" xlink:href="#ap"/><use transform="matrix(0.04938271604938272,0,0,0.04938271604938272,57.18518518518519,0)" xlink:href="#ao"/></g><g id="x"><use transform="matrix(0.06172839506172839,0,0,0.06172839506172839,0,0)" xlink:href="#ag"/><use transform="matrix(0.06172839506172839,0,0,0.06172839506172839,15.987654320987653,0)" xlink:href="#Y"/><use transform="matrix(0.06172839506172839,0,0,0.06172839506172839,28.333333333333332,0)" xlink:href="#Z"/><use transform="matrix(0.06172839506172839,0,0,0.06172839506172839,39.44444444444444,0)" xlink:href="#ab"/><use transform="matrix(0.06172839506172839,0,0,0.06172839506172839,51.79012345679012,0)" xlink:href="#ah"/><use transform="matrix(0.06172839506172839,0,0,0.06172839506172839,64.1358024691358,0)" xlink:href="#ae"/><use transform="matrix(0.06172839506172839,0,0,0.06172839506172839,71.48148148148148,0)" xlink:href="#X"/><use transform="matrix(0.06172839506172839,0,0,0.06172839506172839,82.5925925925926,0)" xlink:href="#Y"/></g><path fill="#333" d="M230 0l2-204L168 0h-37L68-204 70 0H24v-248h70l56 185 57-185h69V0h-46" id="aJ"/><path fill="#333" d="M135-150c-39-12-60 13-60 57V0H25l-1-190h47c2 13-1 29 3 40 6-28 27-53 61-41v41" id="aK"/><g id="y"><use transform="matrix(0.04938271604938272,0,0,0.04938271604938272,0,0)" xlink:href="#aJ"/><use transform="matrix(0.04938271604938272,0,0,0.04938271604938272,14.765432098765434,0)" xlink:href="#ap"/><use transform="matrix(0.04938271604938272,0,0,0.04938271604938272,24.641975308641978,0)" xlink:href="#av"/><use transform="matrix(0.04938271604938272,0,0,0.04938271604938272,40.44444444444445,0)" xlink:href="#au"/><use transform="matrix(0.04938271604938272,0,0,0.04938271604938272,51.25925925925927,0)" xlink:href="#ap"/><use transform="matrix(0.04938271604938272,0,0,0.04938271604938272,61.13580246913581,0)" xlink:href="#aK"/></g><g id="z"><use transform="matrix(0.04938271604938272,0,0,0.04938271604938272,0,0)" xlink:href="#aD"/><use transform="matrix(0.04938271604938272,0,0,0.04938271604938272,10.814814814814815,0)" xlink:href="#ay"/></g><path fill="#333" d="M186 0v-106H76V0H24v-248h52v99h110v-99h50V0h-50" id="aL"/><g id="A"><use transform="matrix(0.04938271604938272,0,0,0.04938271604938272,0,0)" xlink:href="#aL"/><use transform="matrix(0.04938271604938272,0,0,0.04938271604938272,12.790123456790125,0)" xlink:href="#ax"/><use transform="matrix(0.04938271604938272,0,0,0.04938271604938272,22.66666666666667,0)" xlink:href="#aq"/></g><g id="B"><use transform="matrix(0.04938271604938272,0,0,0.04938271604938272,0,0)" xlink:href="#av"/><use transform="matrix(0.04938271604938272,0,0,0.04938271604938272,15.80246913580247,0)" xlink:href="#ap"/><use transform="matrix(0.04938271604938272,0,0,0.04938271604938272,25.679012345679016,0)" xlink:href="#av"/><use transform="matrix(0.04938271604938272,0,0,0.04938271604938272,41.48148148148148,0)" xlink:href="#au"/><use transform="matrix(0.04938271604938272,0,0,0.04938271604938272,52.2962962962963,0)" xlink:href="#ap"/><use transform="matrix(0.04938271604938272,0,0,0.04938271604938272,62.17283950617284,0)" xlink:href="#aK"/></g><path fill="#333" d="M169-182c-1-43-94-46-97-3 18 66 151 10 154 114 3 95-165 93-204 36-6-8-10-19-12-30l50-8c3 46 112 56 116 5-17-69-150-10-154-114-4-87 153-88 188-35 5 8 8 18 10 28" id="aM"/><g id="C"><use transform="matrix(0.04938271604938272,0,0,0.04938271604938272,0,0)" xlink:href="#aM"/><use transform="matrix(0.04938271604938272,0,0,0.04938271604938272,11.851851851851853,0)" xlink:href="#as"/><use transform="matrix(0.04938271604938272,0,0,0.04938271604938272,22.666666666666668,0)" xlink:href="#ap"/><use transform="matrix(0.04938271604938272,0,0,0.04938271604938272,32.543209876543216,0)" xlink:href="#al"/><use transform="matrix(0.04938271604938272,0,0,0.04938271604938272,42.41975308641976,0)" xlink:href="#ak"/><use transform="matrix(0.04938271604938272,0,0,0.04938271604938272,47.35802469135803,0)" xlink:href="#ay"/><use transform="matrix(0.04938271604938272,0,0,0.04938271604938272,53.23456790123457,0)" xlink:href="#ak"/><use transform="matrix(0.04938271604938272,0,0,0.04938271604938272,58.17283950617284,0)" xlink:href="#ap"/><use transform="matrix(0.04938271604938272,0,0,0.04938271604938272,68.0493827160494,0)" xlink:href="#aq"/></g><g id="D"><use transform="matrix(0.04938271604938272,0,0,0.04938271604938272,0,0)" xlink:href="#aM"/><use transform="matrix(0.04938271604938272,0,0,0.04938271604938272,11.851851851851853,0)" xlink:href="#as"/><use transform="matrix(0.04938271604938272,0,0,0.04938271604938272,22.666666666666668,0)" xlink:href="#ap"/><use transform="matrix(0.04938271604938272,0,0,0.04938271604938272,32.543209876543216,0)" xlink:href="#al"/><use transform="matrix(0.04938271604938272,0,0,0.04938271604938272,42.41975308641976,0)" xlink:href="#ak"/><use transform="matrix(0.04938271604938272,0,0,0.04938271604938272,47.35802469135803,0)" xlink:href="#ay"/><use transform="matrix(0.04938271604938272,0,0,0.04938271604938272,53.23456790123457,0)" xlink:href="#ak"/><use transform="matrix(0.04938271604938272,0,0,0.04938271604938272,58.17283950617284,0)" xlink:href="#ap"/><use transform="matrix(0.04938271604938272,0,0,0.04938271604938272,68.0493827160494,0)" xlink:href="#ao"/></g><g id="E"><use transform="matrix(0.04938271604938272,0,0,0.04938271604938272,0,0)" xlink:href="#ak"/><use transform="matrix(0.04938271604938272,0,0,0.04938271604938272,4.938271604938272,0)" xlink:href="#aj"/><use transform="matrix(0.04938271604938272,0,0,0.04938271604938272,15.753086419753087,0)" xlink:href="#al"/><use transform="matrix(0.04938271604938272,0,0,0.04938271604938272,25.629629629629633,0)" xlink:href="#am"/><use transform="matrix(0.04938271604938272,0,0,0.04938271604938272,30.567901234567906,0)" xlink:href="#an"/><use transform="matrix(0.04938271604938272,0,0,0.04938271604938272,41.38271604938272,0)" xlink:href="#ao"/><use transform="matrix(0.04938271604938272,0,0,0.04938271604938272,52.19753086419754,0)" xlink:href="#ap"/><use transform="matrix(0.04938271604938272,0,0,0.04938271604938272,62.074074074074076,0)" xlink:href="#aq"/></g><g id="F"><use transform="matrix(0.04938271604938272,0,0,0.04938271604938272,0,0)" xlink:href="#ai"/><use transform="matrix(0.04938271604938272,0,0,0.04938271604938272,4.938271604938272,0)" xlink:href="#aj"/><use transform="matrix(0.04938271604938272,0,0,0.04938271604938272,15.753086419753087,0)" xlink:href="#al"/><use transform="matrix(0.04938271604938272,0,0,0.04938271604938272,25.629629629629633,0)" xlink:href="#am"/><use transform="matrix(0.04938271604938272,0,0,0.04938271604938272,30.567901234567906,0)" xlink:href="#an"/><use transform="matrix(0.04938271604938272,0,0,0.04938271604938272,41.38271604938272,0)" xlink:href="#ao"/><use transform="matrix(0.04938271604938272,0,0,0.04938271604938272,52.19753086419754,0)" xlink:href="#ap"/><use transform="matrix(0.04938271604938272,0,0,0.04938271604938272,62.074074074074076,0)" xlink:href="#aq"/></g><g id="G"><use transform="matrix(0.04938271604938272,0,0,0.04938271604938272,0,0)" xlink:href="#ar"/><use transform="matrix(0.04938271604938272,0,0,0.04938271604938272,12.790123456790125,0)" xlink:href="#al"/><use transform="matrix(0.04938271604938272,0,0,0.04938271604938272,22.66666666666667,0)" xlink:href="#al"/><use transform="matrix(0.04938271604938272,0,0,0.04938271604938272,32.543209876543216,0)" xlink:href="#ap"/><use transform="matrix(0.04938271604938272,0,0,0.04938271604938272,42.41975308641976,0)" xlink:href="#aq"/><use transform="matrix(0.04938271604938272,0,0,0.04938271604938272,52.2962962962963,0)" xlink:href="#aq"/></g><g id="H"><use transform="matrix(0.04938271604938272,0,0,0.04938271604938272,0,0)" xlink:href="#az"/><use transform="matrix(0.04938271604938272,0,0,0.04938271604938272,12.790123456790125,0)" xlink:href="#aD"/><use transform="matrix(0.04938271604938272,0,0,0.04938271604938272,23.60493827160494,0)" xlink:href="#aj"/><use transform="matrix(0.04938271604938272,0,0,0.04938271604938272,34.41975308641975,0)" xlink:href="#aw"/><use transform="matrix(0.04938271604938272,0,0,0.04938271604938272,40.2962962962963,0)" xlink:href="#aK"/><use transform="matrix(0.04938271604938272,0,0,0.04938271604938272,47.20987654320988,0)" xlink:href="#aD"/><use transform="matrix(0.04938271604938272,0,0,0.04938271604938272,58.0246913580247,0)" xlink:href="#am"/><use transform="matrix(0.04938271604938272,0,0,0.04938271604938272,62.96296296296297,0)" xlink:href="#am"/><use transform="matrix(0.04938271604938272,0,0,0.04938271604938272,67.90123456790124,0)" xlink:href="#ap"/><use transform="matrix(0.04938271604938272,0,0,0.04938271604938272,77.77777777777779,0)" xlink:href="#ao"/></g><g id="I"><use transform="matrix(0.04938271604938272,0,0,0.04938271604938272,0,0)" xlink:href="#au"/><use transform="matrix(0.04938271604938272,0,0,0.04938271604938272,10.814814814814815,0)" xlink:href="#at"/></g><g id="J"><use transform="matrix(0.04938271604938272,0,0,0.04938271604938272,0,0)" xlink:href="#az"/><use transform="matrix(0.04938271604938272,0,0,0.04938271604938272,12.790123456790125,0)" xlink:href="#aD"/><use transform="matrix(0.04938271604938272,0,0,0.04938271604938272,23.60493827160494,0)" xlink:href="#aj"/><use transform="matrix(0.04938271604938272,0,0,0.04938271604938272,34.41975308641975,0)" xlink:href="#aw"/><use transform="matrix(0.04938271604938272,0,0,0.04938271604938272,40.2962962962963,0)" xlink:href="#aK"/><use transform="matrix(0.04938271604938272,0,0,0.04938271604938272,47.20987654320988,0)" xlink:href="#aD"/><use transform="matrix(0.04938271604938272,0,0,0.04938271604938272,58.0246913580247,0)" xlink:href="#am"/><use transform="matrix(0.04938271604938272,0,0,0.04938271604938272,62.96296296296297,0)" xlink:href="#aq"/></g><g id="K"><use transform="matrix(0.04938271604938272,0,0,0.04938271604938272,0,0)" xlink:href="#ax"/><use transform="matrix(0.04938271604938272,0,0,0.04938271604938272,9.876543209876544,0)" xlink:href="#al"/><use transform="matrix(0.04938271604938272,0,0,0.04938271604938272,19.75308641975309,0)" xlink:href="#al"/><use transform="matrix(0.04938271604938272,0,0,0.04938271604938272,29.629629629629633,0)" xlink:href="#ap"/><use transform="matrix(0.04938271604938272,0,0,0.04938271604938272,39.50617283950618,0)" xlink:href="#aq"/><use transform="matrix(0.04938271604938272,0,0,0.04938271604938272,49.38271604938272,0)" xlink:href="#aq"/></g><g id="L"><use transform="matrix(0.04938271604938272,0,0,0.04938271604938272,0,0)" xlink:href="#aw"/><use transform="matrix(0.04938271604938272,0,0,0.04938271604938272,5.8765432098765435,0)" xlink:href="#aD"/></g><g id="M"><use transform="matrix(0.04938271604938272,0,0,0.04938271604938272,0,0)" xlink:href="#ar"/><use transform="matrix(0.04938271604938272,0,0,0.04938271604938272,12.790123456790125,0)" xlink:href="#al"/><use transform="matrix(0.04938271604938272,0,0,0.04938271604938272,22.66666666666667,0)" xlink:href="#al"/><use transform="matrix(0.04938271604938272,0,0,0.04938271604938272,32.543209876543216,0)" xlink:href="#ap"/><use transform="matrix(0.04938271604938272,0,0,0.04938271604938272,42.41975308641976,0)" xlink:href="#aq"/><use transform="matrix(0.04938271604938272,0,0,0.04938271604938272,52.2962962962963,0)" xlink:href="#aq"/></g><g id="N"><use transform="matrix(0.04938271604938272,0,0,0.04938271604938272,0,0)" xlink:href="#al"/><use transform="matrix(0.04938271604938272,0,0,0.04938271604938272,9.876543209876544,0)" xlink:href="#aD"/><use transform="matrix(0.04938271604938272,0,0,0.04938271604938272,20.69135802469136,0)" xlink:href="#aj"/><use transform="matrix(0.04938271604938272,0,0,0.04938271604938272,31.506172839506174,0)" xlink:href="#aw"/><use transform="matrix(0.04938271604938272,0,0,0.04938271604938272,37.38271604938272,0)" xlink:href="#aK"/><use transform="matrix(0.04938271604938272,0,0,0.04938271604938272,44.296296296296305,0)" xlink:href="#aD"/><use transform="matrix(0.04938271604938272,0,0,0.04938271604938272,55.111111111111114,0)" xlink:href="#am"/><use transform="matrix(0.04938271604938272,0,0,0.04938271604938272,60.0493827160494,0)" xlink:href="#am"/><use transform="matrix(0.04938271604938272,0,0,0.04938271604938272,64.98765432098767,0)" xlink:href="#ap"/><use transform="matrix(0.04938271604938272,0,0,0.04938271604938272,74.86419753086422,0)" xlink:href="#ao"/></g><g id="O"><use transform="matrix(0.04938271604938272,0,0,0.04938271604938272,0,0)" xlink:href="#az"/><use transform="matrix(0.04938271604938272,0,0,0.04938271604938272,12.790123456790125,0)" xlink:href="#aD"/><use transform="matrix(0.04938271604938272,0,0,0.04938271604938272,23.60493827160494,0)" xlink:href="#aj"/><use transform="matrix(0.04938271604938272,0,0,0.04938271604938272,34.41975308641975,0)" xlink:href="#aw"/><use transform="matrix(0.04938271604938272,0,0,0.04938271604938272,40.2962962962963,0)" xlink:href="#aK"/><use transform="matrix(0.04938271604938272,0,0,0.04938271604938272,47.20987654320988,0)" xlink:href="#aD"/><use transform="matrix(0.04938271604938272,0,0,0.04938271604938272,58.0246913580247,0)" xlink:href="#am"/><use transform="matrix(0.04938271604938272,0,0,0.04938271604938272,62.96296296296297,0)" xlink:href="#aq"/></g><path fill="#333" d="M240 0l2-218c-23 76-54 145-80 218h-23L58-218 59 0H30v-248h44l77 211c21-75 51-140 76-211h43V0h-30" id="aN"/><path fill="#333" d="M85-194c31 0 48 13 60 33l-1-100h32l1 261h-30c-2-10 0-23-3-31C134-8 116 4 85 4 32 4 16-35 15-94c0-66 23-100 70-100zm9 24c-40 0-46 34-46 75 0 40 6 74 45 74 42 0 51-32 51-76 0-42-9-74-50-73" id="aO"/><g id="P"><use transform="matrix(0.06172839506172839,0,0,0.06172839506172839,0,0)" xlink:href="#aN"/><use transform="matrix(0.06172839506172839,0,0,0.06172839506172839,18.456790123456788,0)" xlink:href="#ab"/><use transform="matrix(0.06172839506172839,0,0,0.06172839506172839,30.80246913580247,0)" xlink:href="#aO"/><use transform="matrix(0.06172839506172839,0,0,0.06172839506172839,43.148148148148145,0)" xlink:href="#Y"/><use transform="matrix(0.06172839506172839,0,0,0.06172839506172839,55.49382716049382,0)" xlink:href="#Z"/></g><g id="Q"><use transform="matrix(0.06172839506172839,0,0,0.06172839506172839,0,0)" xlink:href="#ag"/><use transform="matrix(0.06172839506172839,0,0,0.06172839506172839,15.987654320987653,0)" xlink:href="#ah"/><use transform="matrix(0.06172839506172839,0,0,0.06172839506172839,28.333333333333332,0)" xlink:href="#af"/><use transform="matrix(0.06172839506172839,0,0,0.06172839506172839,33.20987654320987,0)" xlink:href="#Y"/></g><path fill="#333" d="M185-189c-5-48-123-54-124 2 14 75 158 14 163 119 3 78-121 87-175 55-17-10-28-26-33-46l33-7c5 56 141 63 141-1 0-78-155-14-162-118-5-82 145-84 179-34 5 7 8 16 11 25" id="aP"/><path fill="#333" d="M141-36C126-15 110 5 73 4 37 3 15-17 15-53c-1-64 63-63 125-63 3-35-9-54-41-54-24 1-41 7-42 31l-33-3c5-37 33-52 76-52 45 0 72 20 72 64v82c-1 20 7 32 28 27v20c-31 9-61-2-59-35zM48-53c0 20 12 33 32 33 41-3 63-29 60-74-43 2-92-5-92 41" id="aQ"/><path fill="#333" d="M210-169c-67 3-38 105-44 169h-31v-121c0-29-5-50-35-48C34-165 62-65 56 0H25l-1-190h30c1 10-1 24 2 32 10-44 99-50 107 0 11-21 27-35 58-36 85-2 47 119 55 194h-31v-121c0-29-5-49-35-48" id="aR"/><path fill="#333" d="M87 75C49 33 22-17 22-94c0-76 28-126 65-167h31c-38 41-64 92-64 168S80 34 118 75H87" id="aS"/><path fill="#333" d="M33-261c38 41 65 92 65 168S71 34 33 75H2C39 34 66-17 66-93S39-220 2-261h31" id="aT"/><g id="R"><use transform="matrix(0.06172839506172839,0,0,0.06172839506172839,0,0)" xlink:href="#aP"/><use transform="matrix(0.06172839506172839,0,0,0.06172839506172839,14.814814814814813,0)" xlink:href="#ad"/><use transform="matrix(0.06172839506172839,0,0,0.06172839506172839,20.98765432098765,0)" xlink:href="#aQ"/><use transform="matrix(0.06172839506172839,0,0,0.06172839506172839,33.33333333333333,0)" xlink:href="#ad"/><use transform="matrix(0.06172839506172839,0,0,0.06172839506172839,39.50617283950617,0)" xlink:href="#Y"/><use transform="matrix(0.06172839506172839,0,0,0.06172839506172839,51.85185185185185,0)" xlink:href="#aR"/><use transform="matrix(0.06172839506172839,0,0,0.06172839506172839,70.30864197530863,0)" xlink:href="#Y"/><use transform="matrix(0.06172839506172839,0,0,0.06172839506172839,82.65432098765432,0)" xlink:href="#ac"/><use transform="matrix(0.06172839506172839,0,0,0.06172839506172839,95,0)" xlink:href="#ad"/><use transform="matrix(0.06172839506172839,0,0,0.06172839506172839,101.17283950617283,0)" xlink:href="#aS"/><use transform="matrix(0.06172839506172839,0,0,0.06172839506172839,108.51851851851852,0)" xlink:href="#Z"/><use transform="matrix(0.06172839506172839,0,0,0.06172839506172839,119.62962962962963,0)" xlink:href="#aT"/></g><g id="S"><use transform="matrix(0.06172839506172839,0,0,0.06172839506172839,0,0)" xlink:href="#aa"/><use transform="matrix(0.06172839506172839,0,0,0.06172839506172839,15.987654320987653,0)" xlink:href="#ab"/><use transform="matrix(0.06172839506172839,0,0,0.06172839506172839,28.333333333333332,0)" xlink:href="#ac"/><use transform="matrix(0.06172839506172839,0,0,0.06172839506172839,40.67901234567901,0)" xlink:href="#ad"/><use transform="matrix(0.06172839506172839,0,0,0.06172839506172839,46.851851851851855,0)" xlink:href="#ae"/><use transform="matrix(0.06172839506172839,0,0,0.06172839506172839,54.19753086419753,0)" xlink:href="#ab"/><use transform="matrix(0.06172839506172839,0,0,0.06172839506172839,66.54320987654322,0)" xlink:href="#af"/></g><path fill="#333" d="M30-248c87 1 191-15 191 75 0 78-77 80-158 76V0H30v-248zm33 125c57 0 124 11 124-50 0-59-68-47-124-48v98" id="aU"/><path fill="#333" d="M24-231v-30h32v30H24zM24 0v-190h32V0H24" id="aV"/><path fill="#333" d="M179-190L93 31C79 59 56 82 12 73V49c39 6 53-20 64-50L1-190h34L92-34l54-156h33" id="aW"/><g id="T"><use transform="matrix(0.06172839506172839,0,0,0.06172839506172839,0,0)" xlink:href="#aU"/><use transform="matrix(0.06172839506172839,0,0,0.06172839506172839,14.814814814814813,0)" xlink:href="#ab"/><use transform="matrix(0.06172839506172839,0,0,0.06172839506172839,27.160493827160494,0)" xlink:href="#af"/><use transform="matrix(0.06172839506172839,0,0,0.06172839506172839,32.03703703703704,0)" xlink:href="#aV"/><use transform="matrix(0.06172839506172839,0,0,0.06172839506172839,36.91358024691358,0)" xlink:href="#X"/><use transform="matrix(0.06172839506172839,0,0,0.06172839506172839,48.0246913580247,0)" xlink:href="#aW"/></g><path fill="#333" d="M177-190C167-65 218 103 67 71c-23-6-38-20-44-43l32-5c15 47 100 32 89-28v-30C133-14 115 1 83 1 29 1 15-40 15-95c0-56 16-97 71-98 29-1 48 16 59 35 1-10 0-23 2-32h30zM94-22c36 0 50-32 50-73 0-42-14-75-50-75-39 0-46 34-46 75s6 73 46 73" id="aX"/><g id="U"><use transform="matrix(0.06172839506172839,0,0,0.06172839506172839,0,0)" xlink:href="#W"/><use transform="matrix(0.06172839506172839,0,0,0.06172839506172839,14.814814814814813,0)" xlink:href="#aX"/><use transform="matrix(0.06172839506172839,0,0,0.06172839506172839,27.160493827160494,0)" xlink:href="#Y"/><use transform="matrix(0.06172839506172839,0,0,0.06172839506172839,39.50617283950617,0)" xlink:href="#ac"/><use transform="matrix(0.06172839506172839,0,0,0.06172839506172839,51.85185185185185,0)" xlink:href="#ad"/></g><path fill="#333" d="M143 4C61 4 22-44 18-125c-5-107 100-154 193-111 17 8 29 25 37 43l-32 9c-13-25-37-40-76-40-61 0-88 39-88 99 0 61 29 100 91 101 35 0 62-11 79-27v-45h-74v-28h105v86C228-13 192 4 143 4" id="aY"/><path fill="#333" d="M115-194c55 1 70 41 70 98S169 2 115 4C84 4 66-9 55-30l1 105H24l-1-265h31l2 30c10-21 28-34 59-34zm-8 174c40 0 45-34 45-75s-6-73-45-74c-42 0-51 32-51 76 0 43 10 73 51 73" id="aZ"/><g id="V"><use transform="matrix(0.06172839506172839,0,0,0.06172839506172839,0,0)" xlink:href="#aY"/><use transform="matrix(0.06172839506172839,0,0,0.06172839506172839,17.28395061728395,0)" xlink:href="#ae"/><use transform="matrix(0.06172839506172839,0,0,0.06172839506172839,24.629629629629626,0)" xlink:href="#ab"/><use transform="matrix(0.06172839506172839,0,0,0.06172839506172839,36.9753086419753,0)" xlink:href="#ah"/><use transform="matrix(0.06172839506172839,0,0,0.06172839506172839,49.32098765432098,0)" xlink:href="#aZ"/><use transform="matrix(0.06172839506172839,0,0,0.06172839506172839,61.66666666666666,0)" xlink:href="#Z"/></g></defs></g></svg>